<svg xmlns="http://www.w3.org/2000/svg" xmlns:xlink="http://www.w3.org/1999/xlink" width="100.0" height="100.0" viewBox="-0.8006072042052136 -0.8593042373485343 1.6012144084104272 0.6186084746970687" preserveAspectRatio="xMinYMin meet"><g transform="matrix(1,0,0,-1,0,-1.1)"><polyline fill="none" stroke="#66cc99" stroke-width="0.03202428816820854" points="0.7413029668566793,-0.3 -0.7413029668566793,-0.3 -0.739103626009029,-0.3061467458920729 -0.7055370114786834,-0.37711738946079926 -0.6651756898420356,-0.4444561864156829 -0.6184083626901887,-0.5075146273309175 -0.565685424949237,-0.5656854249492391 -0.5075146273309151,-0.6184083626901906 -0.4444561864156804,-0.6651756898420371 -0.3771173894607966,-0.7055370114786849 -0.3061467458920703,-0.73910362600903 -0.23222774180356842,-0.7655522685857676 -0.1560722576129012,-0.7846282243225846 -0.07841371226364711,-0.7961477813377577 1.2924356595460695e-15,-0.8 0.07841371226364968,-0.7961477813377574 0.15607225761290372,-0.7846282243225842 0.2322277418035709,-0.7655522685857669 0.3061467458920727,-0.7391036260090291 0.37711738946079887,-0.7055370114786836 0.44445618641568246,-0.6651756898420358 0.5075146273309169,-0.6184083626901891 0.5656854249492386,-0.5656854249492376 0.61840836269019,-0.507514627330916 0.6651756898420365,-0.4444561864156814 0.7055370114786843,-0.37711738946079776 0.7391036260090296,-0.3061467458920715 0.7413029668566793,-0.3" opacity="0.8" /></g></svg>