<svg xmlns="http://www.w3.org/2000/svg" xmlns:xlink="http://www.w3.org/1999/xlink" width="100.0" height="100.0" viewBox="-1.08 -1.08 2.16 2.16" preserveAspectRatio="xMinYMin meet"><g transform="matrix(1,0,0,-1,0,0.0)"><polyline fill="none" stroke="#66cc99" stroke-width="0.0432" points="0.9569403357322088,-0.29028467725446233 0.9238795325112867,-0.3826834323650898 0.881921264348355,-0.47139673682599764 0.8314696123025452,-0.5555702330196022 0.773010453362737,-0.6343932841636455 0.7071067811865476,-0.7071067811865475 0.6343932841636455,-0.773010453362737 0.5555702330196023,-0.8314696123025452 0.4713967368259978,-0.8819212643483549 0.38268343236508984,-0.9238795325112867 0.29028467725446233,-0.9569403357322088 0.19509032201612833,-0.9807852804032304 0.09801714032956077,-0.9951847266721968 0.0,-1.0 -0.09801714032956065,-0.9951847266721969 -0.1950903220161282,-0.9807852804032304 -0.29028467725446216,-0.9569403357322089 -0.3826834323650897,-0.9238795325112867 -0.4713967368259977,-0.881921264348355 -0.555570233019602,-0.8314696123025453 -0.6343932841636454,-0.7730104533627371 -0.7071067811865475,-0.7071067811865476 -0.773010453362737,-0.6343932841636455 -0.8314696123025453,-0.5555702330196022 -0.8819212643483549,-0.47139673682599786 -0.9238795325112867,-0.3826834323650899 -0.9569403357322088,-0.2902846772544624 -0.9807852804032304,-0.1950903220161286 -0.9951847266721968,-0.09801714032956083 -1.0,0.0 -0.9951847266721969,0.09801714032956059 -0.9807852804032304,0.19509032201612836 -0.9569403357322089,0.2902846772544621 -0.9238795325112868,0.38268343236508967 -0.881921264348355,0.47139673682599764 -0.8314696123025455,0.555570233019602 -0.7730104533627371,0.6343932841636453 -0.7071067811865477,0.7071067811865475 -0.6343932841636458,0.7730104533627367 -0.5555702330196022,0.8314696123025452 -0.4713967368259979,0.8819212643483549 -0.38268343236509034,0.9238795325112865 -0.29028467725446244,0.9569403357322088 -0.19509032201612866,0.9807852804032303 -0.09801714032956045,0.9951847266721969 0.0,1.0 0.09801714032956009,0.9951847266721969 0.1950903220161283,0.9807852804032304 0.29028467725446205,0.9569403357322089 0.38268343236509,0.9238795325112866 0.4713967368259976,0.881921264348355 0.5555702330196018,0.8314696123025455 0.6343932841636456,0.7730104533627369 0.7071067811865474,0.7071067811865477 0.7730104533627367,0.6343932841636459 0.8314696123025452,0.5555702330196022 0.8819212643483548,0.471396736825998 0.9238795325112865,0.3826834323650904 0.9569403357322088,0.2902846772544625 0.9807852804032303,0.19509032201612872 0.9951847266721969,0.0980171403295605 1.0,0.0 0.9951847266721969,-0.0980171403295606 0.9807852804032304,-0.19509032201612825 0.9569403357322088,-0.29028467725446233" opacity="0.8" /></g></svg>