<?xml version="1.0" encoding="utf-8" standalone="no"?>
<!DOCTYPE svg PUBLIC "-//W3C//DTD SVG 1.1//EN"
  "http://www.w3.org/Graphics/SVG/1.1/DTD/svg11.dtd">
<!-- Created with matplotlib (https://matplotlib.org/) -->
<svg height="262.19625pt" version="1.1" viewBox="0 0 392.465625 262.19625" width="392.465625pt" xmlns="http://www.w3.org/2000/svg" xmlns:xlink="http://www.w3.org/1999/xlink">
 <metadata>
  <rdf:RDF xmlns:cc="http://creativecommons.org/ns#" xmlns:dc="http://purl.org/dc/elements/1.1/" xmlns:rdf="http://www.w3.org/1999/02/22-rdf-syntax-ns#">
   <cc:Work>
    <dc:type rdf:resource="http://purl.org/dc/dcmitype/StillImage"/>
    <dc:date>2021-08-20T09:20:22.400697</dc:date>
    <dc:format>image/svg+xml</dc:format>
    <dc:creator>
     <cc:Agent>
      <dc:title>Matplotlib v3.3.3, https://matplotlib.org/</dc:title>
     </cc:Agent>
    </dc:creator>
   </cc:Work>
  </rdf:RDF>
 </metadata>
 <defs>
  <style type="text/css">*{stroke-linecap:butt;stroke-linejoin:round;}</style>
 </defs>
 <g id="figure_1">
  <g id="patch_1">
   <path d="M 0 262.19625 
L 392.465625 262.19625 
L 392.465625 0 
L 0 0 
z
" style="fill:none;"/>
  </g>
  <g id="axes_1">
   <g id="patch_2">
    <path d="M 50.465625 224.64 
L 385.265625 224.64 
L 385.265625 7.2 
L 50.465625 7.2 
z
" style="fill:#ffffff;"/>
   </g>
   <g id="matplotlib.axis_1">
    <g id="xtick_1">
     <g id="line2d_1">
      <defs>
       <path d="M 0 0 
L 0 3.5 
" id="me0d77b7dbc" style="stroke:#000000;stroke-width:0.8;"/>
      </defs>
      <g>
       <use style="stroke:#000000;stroke-width:0.8;" x="63.126129" xlink:href="#me0d77b7dbc" y="224.64"/>
      </g>
     </g>
     <g id="text_1">
      <!-- 0 -->
      <g transform="translate(59.944879 239.238437)scale(0.1 -0.1)">
       <defs>
        <path d="M 31.78125 66.40625 
Q 24.171875 66.40625 20.328125 58.90625 
Q 16.5 51.421875 16.5 36.375 
Q 16.5 21.390625 20.328125 13.890625 
Q 24.171875 6.390625 31.78125 6.390625 
Q 39.453125 6.390625 43.28125 13.890625 
Q 47.125 21.390625 47.125 36.375 
Q 47.125 51.421875 43.28125 58.90625 
Q 39.453125 66.40625 31.78125 66.40625 
z
M 31.78125 74.21875 
Q 44.046875 74.21875 50.515625 64.515625 
Q 56.984375 54.828125 56.984375 36.375 
Q 56.984375 17.96875 50.515625 8.265625 
Q 44.046875 -1.421875 31.78125 -1.421875 
Q 19.53125 -1.421875 13.0625 8.265625 
Q 6.59375 17.96875 6.59375 36.375 
Q 6.59375 54.828125 13.0625 64.515625 
Q 19.53125 74.21875 31.78125 74.21875 
z
" id="DejaVuSans-48"/>
       </defs>
       <use xlink:href="#DejaVuSans-48"/>
      </g>
     </g>
    </g>
    <g id="xtick_2">
     <g id="line2d_2">
      <g>
       <use style="stroke:#000000;stroke-width:0.8;" x="114.279682" xlink:href="#me0d77b7dbc" y="224.64"/>
      </g>
     </g>
     <g id="text_2">
      <!-- 20 -->
      <g transform="translate(107.917182 239.238437)scale(0.1 -0.1)">
       <defs>
        <path d="M 19.1875 8.296875 
L 53.609375 8.296875 
L 53.609375 0 
L 7.328125 0 
L 7.328125 8.296875 
Q 12.9375 14.109375 22.625 23.890625 
Q 32.328125 33.6875 34.8125 36.53125 
Q 39.546875 41.84375 41.421875 45.53125 
Q 43.3125 49.21875 43.3125 52.78125 
Q 43.3125 58.59375 39.234375 62.25 
Q 35.15625 65.921875 28.609375 65.921875 
Q 23.96875 65.921875 18.8125 64.3125 
Q 13.671875 62.703125 7.8125 59.421875 
L 7.8125 69.390625 
Q 13.765625 71.78125 18.9375 73 
Q 24.125 74.21875 28.421875 74.21875 
Q 39.75 74.21875 46.484375 68.546875 
Q 53.21875 62.890625 53.21875 53.421875 
Q 53.21875 48.921875 51.53125 44.890625 
Q 49.859375 40.875 45.40625 35.40625 
Q 44.1875 33.984375 37.640625 27.21875 
Q 31.109375 20.453125 19.1875 8.296875 
z
" id="DejaVuSans-50"/>
       </defs>
       <use xlink:href="#DejaVuSans-50"/>
       <use x="63.623047" xlink:href="#DejaVuSans-48"/>
      </g>
     </g>
    </g>
    <g id="xtick_3">
     <g id="line2d_3">
      <g>
       <use style="stroke:#000000;stroke-width:0.8;" x="165.433234" xlink:href="#me0d77b7dbc" y="224.64"/>
      </g>
     </g>
     <g id="text_3">
      <!-- 40 -->
      <g transform="translate(159.070734 239.238437)scale(0.1 -0.1)">
       <defs>
        <path d="M 37.796875 64.3125 
L 12.890625 25.390625 
L 37.796875 25.390625 
z
M 35.203125 72.90625 
L 47.609375 72.90625 
L 47.609375 25.390625 
L 58.015625 25.390625 
L 58.015625 17.1875 
L 47.609375 17.1875 
L 47.609375 0 
L 37.796875 0 
L 37.796875 17.1875 
L 4.890625 17.1875 
L 4.890625 26.703125 
z
" id="DejaVuSans-52"/>
       </defs>
       <use xlink:href="#DejaVuSans-52"/>
       <use x="63.623047" xlink:href="#DejaVuSans-48"/>
      </g>
     </g>
    </g>
    <g id="xtick_4">
     <g id="line2d_4">
      <g>
       <use style="stroke:#000000;stroke-width:0.8;" x="216.586786" xlink:href="#me0d77b7dbc" y="224.64"/>
      </g>
     </g>
     <g id="text_4">
      <!-- 60 -->
      <g transform="translate(210.224286 239.238437)scale(0.1 -0.1)">
       <defs>
        <path d="M 33.015625 40.375 
Q 26.375 40.375 22.484375 35.828125 
Q 18.609375 31.296875 18.609375 23.390625 
Q 18.609375 15.53125 22.484375 10.953125 
Q 26.375 6.390625 33.015625 6.390625 
Q 39.65625 6.390625 43.53125 10.953125 
Q 47.40625 15.53125 47.40625 23.390625 
Q 47.40625 31.296875 43.53125 35.828125 
Q 39.65625 40.375 33.015625 40.375 
z
M 52.59375 71.296875 
L 52.59375 62.3125 
Q 48.875 64.0625 45.09375 64.984375 
Q 41.3125 65.921875 37.59375 65.921875 
Q 27.828125 65.921875 22.671875 59.328125 
Q 17.53125 52.734375 16.796875 39.40625 
Q 19.671875 43.65625 24.015625 45.921875 
Q 28.375 48.1875 33.59375 48.1875 
Q 44.578125 48.1875 50.953125 41.515625 
Q 57.328125 34.859375 57.328125 23.390625 
Q 57.328125 12.15625 50.6875 5.359375 
Q 44.046875 -1.421875 33.015625 -1.421875 
Q 20.359375 -1.421875 13.671875 8.265625 
Q 6.984375 17.96875 6.984375 36.375 
Q 6.984375 53.65625 15.1875 63.9375 
Q 23.390625 74.21875 37.203125 74.21875 
Q 40.921875 74.21875 44.703125 73.484375 
Q 48.484375 72.75 52.59375 71.296875 
z
" id="DejaVuSans-54"/>
       </defs>
       <use xlink:href="#DejaVuSans-54"/>
       <use x="63.623047" xlink:href="#DejaVuSans-48"/>
      </g>
     </g>
    </g>
    <g id="xtick_5">
     <g id="line2d_5">
      <g>
       <use style="stroke:#000000;stroke-width:0.8;" x="267.740339" xlink:href="#me0d77b7dbc" y="224.64"/>
      </g>
     </g>
     <g id="text_5">
      <!-- 80 -->
      <g transform="translate(261.377839 239.238437)scale(0.1 -0.1)">
       <defs>
        <path d="M 31.78125 34.625 
Q 24.75 34.625 20.71875 30.859375 
Q 16.703125 27.09375 16.703125 20.515625 
Q 16.703125 13.921875 20.71875 10.15625 
Q 24.75 6.390625 31.78125 6.390625 
Q 38.8125 6.390625 42.859375 10.171875 
Q 46.921875 13.96875 46.921875 20.515625 
Q 46.921875 27.09375 42.890625 30.859375 
Q 38.875 34.625 31.78125 34.625 
z
M 21.921875 38.8125 
Q 15.578125 40.375 12.03125 44.71875 
Q 8.5 49.078125 8.5 55.328125 
Q 8.5 64.0625 14.71875 69.140625 
Q 20.953125 74.21875 31.78125 74.21875 
Q 42.671875 74.21875 48.875 69.140625 
Q 55.078125 64.0625 55.078125 55.328125 
Q 55.078125 49.078125 51.53125 44.71875 
Q 48 40.375 41.703125 38.8125 
Q 48.828125 37.15625 52.796875 32.3125 
Q 56.78125 27.484375 56.78125 20.515625 
Q 56.78125 9.90625 50.3125 4.234375 
Q 43.84375 -1.421875 31.78125 -1.421875 
Q 19.734375 -1.421875 13.25 4.234375 
Q 6.78125 9.90625 6.78125 20.515625 
Q 6.78125 27.484375 10.78125 32.3125 
Q 14.796875 37.15625 21.921875 38.8125 
z
M 18.3125 54.390625 
Q 18.3125 48.734375 21.84375 45.5625 
Q 25.390625 42.390625 31.78125 42.390625 
Q 38.140625 42.390625 41.71875 45.5625 
Q 45.3125 48.734375 45.3125 54.390625 
Q 45.3125 60.0625 41.71875 63.234375 
Q 38.140625 66.40625 31.78125 66.40625 
Q 25.390625 66.40625 21.84375 63.234375 
Q 18.3125 60.0625 18.3125 54.390625 
z
" id="DejaVuSans-56"/>
       </defs>
       <use xlink:href="#DejaVuSans-56"/>
       <use x="63.623047" xlink:href="#DejaVuSans-48"/>
      </g>
     </g>
    </g>
    <g id="xtick_6">
     <g id="line2d_6">
      <g>
       <use style="stroke:#000000;stroke-width:0.8;" x="318.893891" xlink:href="#me0d77b7dbc" y="224.64"/>
      </g>
     </g>
     <g id="text_6">
      <!-- 100 -->
      <g transform="translate(309.350141 239.238437)scale(0.1 -0.1)">
       <defs>
        <path d="M 12.40625 8.296875 
L 28.515625 8.296875 
L 28.515625 63.921875 
L 10.984375 60.40625 
L 10.984375 69.390625 
L 28.421875 72.90625 
L 38.28125 72.90625 
L 38.28125 8.296875 
L 54.390625 8.296875 
L 54.390625 0 
L 12.40625 0 
z
" id="DejaVuSans-49"/>
       </defs>
       <use xlink:href="#DejaVuSans-49"/>
       <use x="63.623047" xlink:href="#DejaVuSans-48"/>
       <use x="127.246094" xlink:href="#DejaVuSans-48"/>
      </g>
     </g>
    </g>
    <g id="xtick_7">
     <g id="line2d_7">
      <g>
       <use style="stroke:#000000;stroke-width:0.8;" x="370.047443" xlink:href="#me0d77b7dbc" y="224.64"/>
      </g>
     </g>
     <g id="text_7">
      <!-- 120 -->
      <g transform="translate(360.503693 239.238437)scale(0.1 -0.1)">
       <use xlink:href="#DejaVuSans-49"/>
       <use x="63.623047" xlink:href="#DejaVuSans-50"/>
       <use x="127.246094" xlink:href="#DejaVuSans-48"/>
      </g>
     </g>
    </g>
    <g id="text_8">
     <!-- Ej/Ec -->
     <g transform="translate(205.724219 252.916562)scale(0.1 -0.1)">
      <defs>
       <path d="M 9.8125 72.90625 
L 55.90625 72.90625 
L 55.90625 64.59375 
L 19.671875 64.59375 
L 19.671875 43.015625 
L 54.390625 43.015625 
L 54.390625 34.71875 
L 19.671875 34.71875 
L 19.671875 8.296875 
L 56.78125 8.296875 
L 56.78125 0 
L 9.8125 0 
z
" id="DejaVuSans-69"/>
       <path d="M 9.421875 54.6875 
L 18.40625 54.6875 
L 18.40625 -0.984375 
Q 18.40625 -11.421875 14.421875 -16.109375 
Q 10.453125 -20.796875 1.609375 -20.796875 
L -1.8125 -20.796875 
L -1.8125 -13.1875 
L 0.59375 -13.1875 
Q 5.71875 -13.1875 7.5625 -10.8125 
Q 9.421875 -8.453125 9.421875 -0.984375 
z
M 9.421875 75.984375 
L 18.40625 75.984375 
L 18.40625 64.59375 
L 9.421875 64.59375 
z
" id="DejaVuSans-106"/>
       <path d="M 25.390625 72.90625 
L 33.6875 72.90625 
L 8.296875 -9.28125 
L 0 -9.28125 
z
" id="DejaVuSans-47"/>
       <path d="M 48.78125 52.59375 
L 48.78125 44.1875 
Q 44.96875 46.296875 41.140625 47.34375 
Q 37.3125 48.390625 33.40625 48.390625 
Q 24.65625 48.390625 19.8125 42.84375 
Q 14.984375 37.3125 14.984375 27.296875 
Q 14.984375 17.28125 19.8125 11.734375 
Q 24.65625 6.203125 33.40625 6.203125 
Q 37.3125 6.203125 41.140625 7.25 
Q 44.96875 8.296875 48.78125 10.40625 
L 48.78125 2.09375 
Q 45.015625 0.34375 40.984375 -0.53125 
Q 36.96875 -1.421875 32.421875 -1.421875 
Q 20.0625 -1.421875 12.78125 6.34375 
Q 5.515625 14.109375 5.515625 27.296875 
Q 5.515625 40.671875 12.859375 48.328125 
Q 20.21875 56 33.015625 56 
Q 37.15625 56 41.109375 55.140625 
Q 45.0625 54.296875 48.78125 52.59375 
z
" id="DejaVuSans-99"/>
      </defs>
      <use xlink:href="#DejaVuSans-69"/>
      <use x="63.183594" xlink:href="#DejaVuSans-106"/>
      <use x="90.966797" xlink:href="#DejaVuSans-47"/>
      <use x="124.658203" xlink:href="#DejaVuSans-69"/>
      <use x="187.841797" xlink:href="#DejaVuSans-99"/>
     </g>
    </g>
   </g>
   <g id="matplotlib.axis_2">
    <g id="ytick_1">
     <g id="line2d_8">
      <defs>
       <path d="M 0 0 
L -3.5 0 
" id="mc0087825b6" style="stroke:#000000;stroke-width:0.8;"/>
      </defs>
      <g>
       <use style="stroke:#000000;stroke-width:0.8;" x="50.465625" xlink:href="#mc0087825b6" y="214.756364"/>
      </g>
     </g>
     <g id="text_9">
      <!-- 0.00 -->
      <g transform="translate(21.2 218.555582)scale(0.1 -0.1)">
       <defs>
        <path d="M 10.6875 12.40625 
L 21 12.40625 
L 21 0 
L 10.6875 0 
z
" id="DejaVuSans-46"/>
       </defs>
       <use xlink:href="#DejaVuSans-48"/>
       <use x="63.623047" xlink:href="#DejaVuSans-46"/>
       <use x="95.410156" xlink:href="#DejaVuSans-48"/>
       <use x="159.033203" xlink:href="#DejaVuSans-48"/>
      </g>
     </g>
    </g>
    <g id="ytick_2">
     <g id="line2d_9">
      <g>
       <use style="stroke:#000000;stroke-width:0.8;" x="50.465625" xlink:href="#mc0087825b6" y="188.73298"/>
      </g>
     </g>
     <g id="text_10">
      <!-- 0.25 -->
      <g transform="translate(21.2 192.532199)scale(0.1 -0.1)">
       <defs>
        <path d="M 10.796875 72.90625 
L 49.515625 72.90625 
L 49.515625 64.59375 
L 19.828125 64.59375 
L 19.828125 46.734375 
Q 21.96875 47.46875 24.109375 47.828125 
Q 26.265625 48.1875 28.421875 48.1875 
Q 40.625 48.1875 47.75 41.5 
Q 54.890625 34.8125 54.890625 23.390625 
Q 54.890625 11.625 47.5625 5.09375 
Q 40.234375 -1.421875 26.90625 -1.421875 
Q 22.3125 -1.421875 17.546875 -0.640625 
Q 12.796875 0.140625 7.71875 1.703125 
L 7.71875 11.625 
Q 12.109375 9.234375 16.796875 8.0625 
Q 21.484375 6.890625 26.703125 6.890625 
Q 35.15625 6.890625 40.078125 11.328125 
Q 45.015625 15.765625 45.015625 23.390625 
Q 45.015625 31 40.078125 35.4375 
Q 35.15625 39.890625 26.703125 39.890625 
Q 22.75 39.890625 18.8125 39.015625 
Q 14.890625 38.140625 10.796875 36.28125 
z
" id="DejaVuSans-53"/>
       </defs>
       <use xlink:href="#DejaVuSans-48"/>
       <use x="63.623047" xlink:href="#DejaVuSans-46"/>
       <use x="95.410156" xlink:href="#DejaVuSans-50"/>
       <use x="159.033203" xlink:href="#DejaVuSans-53"/>
      </g>
     </g>
    </g>
    <g id="ytick_3">
     <g id="line2d_10">
      <g>
       <use style="stroke:#000000;stroke-width:0.8;" x="50.465625" xlink:href="#mc0087825b6" y="162.709596"/>
      </g>
     </g>
     <g id="text_11">
      <!-- 0.50 -->
      <g transform="translate(21.2 166.508815)scale(0.1 -0.1)">
       <use xlink:href="#DejaVuSans-48"/>
       <use x="63.623047" xlink:href="#DejaVuSans-46"/>
       <use x="95.410156" xlink:href="#DejaVuSans-53"/>
       <use x="159.033203" xlink:href="#DejaVuSans-48"/>
      </g>
     </g>
    </g>
    <g id="ytick_4">
     <g id="line2d_11">
      <g>
       <use style="stroke:#000000;stroke-width:0.8;" x="50.465625" xlink:href="#mc0087825b6" y="136.686213"/>
      </g>
     </g>
     <g id="text_12">
      <!-- 0.75 -->
      <g transform="translate(21.2 140.485432)scale(0.1 -0.1)">
       <defs>
        <path d="M 8.203125 72.90625 
L 55.078125 72.90625 
L 55.078125 68.703125 
L 28.609375 0 
L 18.3125 0 
L 43.21875 64.59375 
L 8.203125 64.59375 
z
" id="DejaVuSans-55"/>
       </defs>
       <use xlink:href="#DejaVuSans-48"/>
       <use x="63.623047" xlink:href="#DejaVuSans-46"/>
       <use x="95.410156" xlink:href="#DejaVuSans-55"/>
       <use x="159.033203" xlink:href="#DejaVuSans-53"/>
      </g>
     </g>
    </g>
    <g id="ytick_5">
     <g id="line2d_12">
      <g>
       <use style="stroke:#000000;stroke-width:0.8;" x="50.465625" xlink:href="#mc0087825b6" y="110.662829"/>
      </g>
     </g>
     <g id="text_13">
      <!-- 1.00 -->
      <g transform="translate(21.2 114.462048)scale(0.1 -0.1)">
       <use xlink:href="#DejaVuSans-49"/>
       <use x="63.623047" xlink:href="#DejaVuSans-46"/>
       <use x="95.410156" xlink:href="#DejaVuSans-48"/>
       <use x="159.033203" xlink:href="#DejaVuSans-48"/>
      </g>
     </g>
    </g>
    <g id="ytick_6">
     <g id="line2d_13">
      <g>
       <use style="stroke:#000000;stroke-width:0.8;" x="50.465625" xlink:href="#mc0087825b6" y="84.639446"/>
      </g>
     </g>
     <g id="text_14">
      <!-- 1.25 -->
      <g transform="translate(21.2 88.438664)scale(0.1 -0.1)">
       <use xlink:href="#DejaVuSans-49"/>
       <use x="63.623047" xlink:href="#DejaVuSans-46"/>
       <use x="95.410156" xlink:href="#DejaVuSans-50"/>
       <use x="159.033203" xlink:href="#DejaVuSans-53"/>
      </g>
     </g>
    </g>
    <g id="ytick_7">
     <g id="line2d_14">
      <g>
       <use style="stroke:#000000;stroke-width:0.8;" x="50.465625" xlink:href="#mc0087825b6" y="58.616062"/>
      </g>
     </g>
     <g id="text_15">
      <!-- 1.50 -->
      <g transform="translate(21.2 62.415281)scale(0.1 -0.1)">
       <use xlink:href="#DejaVuSans-49"/>
       <use x="63.623047" xlink:href="#DejaVuSans-46"/>
       <use x="95.410156" xlink:href="#DejaVuSans-53"/>
       <use x="159.033203" xlink:href="#DejaVuSans-48"/>
      </g>
     </g>
    </g>
    <g id="ytick_8">
     <g id="line2d_15">
      <g>
       <use style="stroke:#000000;stroke-width:0.8;" x="50.465625" xlink:href="#mc0087825b6" y="32.592678"/>
      </g>
     </g>
     <g id="text_16">
      <!-- 1.75 -->
      <g transform="translate(21.2 36.391897)scale(0.1 -0.1)">
       <use xlink:href="#DejaVuSans-49"/>
       <use x="63.623047" xlink:href="#DejaVuSans-46"/>
       <use x="95.410156" xlink:href="#DejaVuSans-55"/>
       <use x="159.033203" xlink:href="#DejaVuSans-53"/>
      </g>
     </g>
    </g>
    <g id="text_17">
     <!-- &lt;i|n|j&gt; -->
     <g transform="translate(14.842188 133.615312)rotate(-90)scale(0.1 -0.1)">
      <defs>
       <path d="M 73.1875 49.21875 
L 22.796875 31.296875 
L 73.1875 13.484375 
L 73.1875 4.59375 
L 10.59375 27.296875 
L 10.59375 35.40625 
L 73.1875 58.109375 
z
" id="DejaVuSans-60"/>
       <path d="M 9.421875 54.6875 
L 18.40625 54.6875 
L 18.40625 0 
L 9.421875 0 
z
M 9.421875 75.984375 
L 18.40625 75.984375 
L 18.40625 64.59375 
L 9.421875 64.59375 
z
" id="DejaVuSans-105"/>
       <path d="M 21 76.421875 
L 21 -23.578125 
L 12.703125 -23.578125 
L 12.703125 76.421875 
z
" id="DejaVuSans-124"/>
       <path d="M 54.890625 33.015625 
L 54.890625 0 
L 45.90625 0 
L 45.90625 32.71875 
Q 45.90625 40.484375 42.875 44.328125 
Q 39.84375 48.1875 33.796875 48.1875 
Q 26.515625 48.1875 22.3125 43.546875 
Q 18.109375 38.921875 18.109375 30.90625 
L 18.109375 0 
L 9.078125 0 
L 9.078125 54.6875 
L 18.109375 54.6875 
L 18.109375 46.1875 
Q 21.34375 51.125 25.703125 53.5625 
Q 30.078125 56 35.796875 56 
Q 45.21875 56 50.046875 50.171875 
Q 54.890625 44.34375 54.890625 33.015625 
z
" id="DejaVuSans-110"/>
       <path d="M 10.59375 49.21875 
L 10.59375 58.109375 
L 73.1875 35.40625 
L 73.1875 27.296875 
L 10.59375 4.59375 
L 10.59375 13.484375 
L 60.890625 31.296875 
z
" id="DejaVuSans-62"/>
      </defs>
      <use xlink:href="#DejaVuSans-60"/>
      <use x="83.789062" xlink:href="#DejaVuSans-105"/>
      <use x="111.572266" xlink:href="#DejaVuSans-124"/>
      <use x="145.263672" xlink:href="#DejaVuSans-110"/>
      <use x="208.642578" xlink:href="#DejaVuSans-124"/>
      <use x="242.333984" xlink:href="#DejaVuSans-106"/>
      <use x="270.117188" xlink:href="#DejaVuSans-62"/>
     </g>
    </g>
   </g>
   <g id="line2d_16">
    <path clip-path="url(#p75598e01c4)" d="M 65.683807 162.30633 
L 68.727443 160.835948 
L 71.77108 158.489848 
L 74.814716 155.582745 
L 77.858352 152.446449 
L 80.901989 149.335174 
L 83.945625 146.389578 
L 86.989261 143.659998 
L 90.032898 141.146867 
L 93.076534 138.830449 
L 96.12017 136.686152 
L 99.163807 134.690702 
L 102.207443 132.823981 
L 105.25108 131.069164 
L 108.294716 129.412313 
L 111.338352 127.841869 
L 114.381989 126.348192 
L 117.425625 124.923182 
L 120.469261 123.559977 
L 123.512898 122.252716 
L 126.556534 120.996358 
L 129.60017 119.786534 
L 132.643807 118.61943 
L 135.687443 117.491701 
L 138.73108 116.400394 
L 141.774716 115.342887 
L 144.818352 114.316842 
L 147.861989 113.320166 
L 150.905625 112.350977 
L 153.949261 111.407572 
L 156.992898 110.488412 
L 160.036534 109.592095 
L 163.08017 108.717343 
L 166.123807 107.862987 
L 169.167443 107.027954 
L 172.21108 106.211256 
L 175.254716 105.411984 
L 178.298352 104.629298 
L 181.341989 103.862417 
L 184.385625 103.11062 
L 187.429261 102.373233 
L 190.472898 101.64963 
L 193.516534 100.939227 
L 196.56017 100.241477 
L 199.603807 99.555867 
L 202.647443 98.881918 
L 205.69108 98.219178 
L 208.734716 97.567224 
L 211.778352 96.925655 
L 214.821989 96.294095 
L 217.865625 95.672188 
L 220.909261 95.059598 
L 223.952898 94.456006 
L 226.996534 93.861112 
L 230.04017 93.274628 
L 233.083807 92.696284 
L 236.127443 92.125821 
L 239.17108 91.562995 
L 242.214716 91.007571 
L 245.258352 90.459327 
L 248.301989 89.918051 
L 251.345625 89.38354 
L 254.389261 88.855601 
L 257.432898 88.334049 
L 260.476534 87.818707 
L 263.52017 87.309405 
L 266.563807 86.805982 
L 269.607443 86.308282 
L 272.65108 85.816156 
L 275.694716 85.329461 
L 278.738352 84.84806 
L 281.781989 84.37182 
L 284.825625 83.900615 
L 287.869261 83.434322 
L 290.912898 82.972824 
L 293.956534 82.516008 
L 297.00017 82.063765 
L 300.043807 81.615989 
L 303.087443 81.17258 
L 306.13108 80.73344 
L 309.174716 80.298474 
L 312.218352 79.867591 
L 315.261989 79.440702 
L 318.305625 79.017724 
L 321.349261 78.598573 
L 324.392898 78.183171 
L 327.436534 77.771439 
L 330.48017 77.363303 
L 333.523807 76.958692 
L 336.567443 76.557534 
L 339.61108 76.159763 
L 342.654716 75.765312 
L 345.698352 75.374118 
L 348.741989 74.986119 
L 351.785625 74.601254 
L 354.829261 74.219466 
L 357.872898 73.840698 
L 360.916534 73.464894 
L 363.96017 73.092002 
L 367.003807 72.72197 
L 370.047443 72.354746 
" style="fill:none;stroke:#000000;stroke-linecap:square;stroke-width:1.5;"/>
   </g>
   <g id="line2d_17">
    <path clip-path="url(#p75598e01c4)" d="M 65.683807 214.756364 
L 68.727443 214.756364 
L 71.77108 214.756364 
L 74.814716 214.756364 
L 77.858352 214.756364 
L 80.901989 214.756364 
L 83.945625 214.756364 
L 86.989261 214.756364 
L 90.032898 214.756364 
L 93.076534 214.756364 
L 96.12017 214.756364 
L 99.163807 214.756364 
L 102.207443 214.756364 
L 105.25108 214.756364 
L 108.294716 214.756364 
L 111.338352 214.756364 
L 114.381989 214.756364 
L 117.425625 214.756364 
L 120.469261 214.756364 
L 123.512898 214.756364 
L 126.556534 214.756364 
L 129.60017 214.756364 
L 132.643807 214.756364 
L 135.687443 214.756364 
L 138.73108 214.756364 
L 141.774716 214.756364 
L 144.818352 214.756364 
L 147.861989 214.756364 
L 150.905625 214.756364 
L 153.949261 214.756364 
L 156.992898 214.756364 
L 160.036534 214.756364 
L 163.08017 214.756364 
L 166.123807 214.756364 
L 169.167443 214.756364 
L 172.21108 214.756364 
L 175.254716 214.756364 
L 178.298352 214.756364 
L 181.341989 214.756364 
L 184.385625 214.756364 
L 187.429261 214.756364 
L 190.472898 214.756364 
L 193.516534 214.756364 
L 196.56017 214.756364 
L 199.603807 214.756364 
L 202.647443 214.756364 
L 205.69108 214.756364 
L 208.734716 214.756364 
L 211.778352 214.756364 
L 214.821989 214.756364 
L 217.865625 214.756364 
L 220.909261 214.756364 
L 223.952898 214.756364 
L 226.996534 214.756364 
L 230.04017 214.756364 
L 233.083807 214.756364 
L 236.127443 214.756364 
L 239.17108 214.756364 
L 242.214716 214.756364 
L 245.258352 214.756364 
L 248.301989 214.756364 
L 251.345625 214.756364 
L 254.389261 214.756364 
L 257.432898 214.756364 
L 260.476534 214.756364 
L 263.52017 214.756364 
L 266.563807 214.756364 
L 269.607443 214.756364 
L 272.65108 214.756364 
L 275.694716 214.756364 
L 278.738352 214.756364 
L 281.781989 214.756364 
L 284.825625 214.756364 
L 287.869261 214.756364 
L 290.912898 214.756364 
L 293.956534 214.756364 
L 297.00017 214.756364 
L 300.043807 214.756364 
L 303.087443 214.756364 
L 306.13108 214.756364 
L 309.174716 214.756364 
L 312.218352 214.756364 
L 315.261989 214.756364 
L 318.305625 214.756364 
L 321.349261 214.756364 
L 324.392898 214.756364 
L 327.436534 214.756364 
L 330.48017 214.756364 
L 333.523807 214.756364 
L 336.567443 214.756364 
L 339.61108 214.756364 
L 342.654716 214.756364 
L 345.698352 214.756364 
L 348.741989 214.756364 
L 351.785625 214.756364 
L 354.829261 214.756364 
L 357.872898 214.756364 
L 360.916534 214.756364 
L 363.96017 214.756364 
L 367.003807 214.756364 
L 370.047443 214.756364 
" style="fill:none;stroke:#ff0000;stroke-linecap:square;stroke-width:1.5;"/>
   </g>
   <g id="line2d_18">
    <path clip-path="url(#p75598e01c4)" d="M 65.683807 209.069359 
L 68.727443 204.400355 
L 71.77108 201.799589 
L 74.814716 200.859284 
L 77.858352 201.05774 
L 80.901989 201.887315 
L 83.945625 202.963195 
L 86.989261 204.052907 
L 90.032898 205.044193 
L 93.076534 205.897915 
L 96.12017 206.611944 
L 99.163807 207.19986 
L 102.207443 207.680203 
L 105.25108 208.071637 
L 108.294716 208.391058 
L 111.338352 208.653009 
L 114.381989 208.869647 
L 117.425625 209.050904 
L 120.469261 209.20472 
L 123.512898 209.337309 
L 126.556534 209.453439 
L 129.60017 209.556702 
L 132.643807 209.649773 
L 135.687443 209.73463 
L 138.73108 209.812737 
L 141.774716 209.885189 
L 144.818352 209.952812 
L 147.861989 210.016243 
L 150.905625 210.075986 
L 153.949261 210.132445 
L 156.992898 210.185951 
L 160.036534 210.236785 
L 163.08017 210.285182 
L 166.123807 210.331347 
L 169.167443 210.375458 
L 172.21108 210.417673 
L 175.254716 210.458132 
L 178.298352 210.496959 
L 181.341989 210.534266 
L 184.385625 210.570155 
L 187.429261 210.604717 
L 190.472898 210.638035 
L 193.516534 210.670185 
L 196.56017 210.701237 
L 199.603807 210.731255 
L 202.647443 210.760297 
L 205.69108 210.788417 
L 208.734716 210.815664 
L 211.778352 210.842086 
L 214.821989 210.867724 
L 217.865625 210.892618 
L 220.909261 210.916806 
L 223.952898 210.94032 
L 226.996534 210.963194 
L 230.04017 210.985457 
L 233.083807 211.007136 
L 236.127443 211.028259 
L 239.17108 211.04885 
L 242.214716 211.068931 
L 245.258352 211.088524 
L 248.301989 211.10765 
L 251.345625 211.126327 
L 254.389261 211.144575 
L 257.432898 211.162409 
L 260.476534 211.179846 
L 263.52017 211.196901 
L 266.563807 211.213588 
L 269.607443 211.229922 
L 272.65108 211.245914 
L 275.694716 211.261578 
L 278.738352 211.276925 
L 281.781989 211.291967 
L 284.825625 211.306712 
L 287.869261 211.321172 
L 290.912898 211.335357 
L 293.956534 211.349275 
L 297.00017 211.362934 
L 300.043807 211.376344 
L 303.087443 211.389512 
L 306.13108 211.402445 
L 309.174716 211.415152 
L 312.218352 211.427638 
L 315.261989 211.439911 
L 318.305625 211.451976 
L 321.349261 211.46384 
L 324.392898 211.475509 
L 327.436534 211.486988 
L 330.48017 211.498283 
L 333.523807 211.509399 
L 336.567443 211.52034 
L 339.61108 211.531111 
L 342.654716 211.541717 
L 345.698352 211.552163 
L 348.741989 211.562453 
L 351.785625 211.57259 
L 354.829261 211.582579 
L 357.872898 211.592423 
L 360.916534 211.602126 
L 363.96017 211.611692 
L 367.003807 211.621123 
L 370.047443 211.630424 
" style="fill:none;stroke:#bfbf00;stroke-linecap:square;stroke-width:1.5;"/>
   </g>
   <g id="line2d_19">
    <path clip-path="url(#p75598e01c4)" d="M 65.683807 207.455729 
L 68.727443 196.896944 
L 71.77108 184.906306 
L 74.814716 172.433195 
L 77.858352 160.483259 
L 80.901989 149.775463 
L 83.945625 140.596997 
L 86.989261 132.897062 
L 90.032898 126.460359 
L 93.076534 121.035772 
L 96.12017 116.398218 
L 99.163807 112.366971 
L 102.207443 108.8042 
L 105.25108 105.60716 
L 108.294716 102.699801 
L 111.338352 100.025718 
L 114.381989 97.542749 
L 117.425625 95.219029 
L 120.469261 93.030142 
L 123.512898 90.957106 
L 126.556534 88.984935 
L 129.60017 87.101615 
L 132.643807 85.29737 
L 135.687443 83.564131 
L 138.73108 81.895149 
L 141.774716 80.284709 
L 144.818352 78.72792 
L 147.861989 77.220552 
L 150.905625 75.758913 
L 153.949261 74.339756 
L 156.992898 72.960205 
L 160.036534 71.617695 
L 163.08017 70.309925 
L 166.123807 69.034822 
L 169.167443 67.790509 
L 172.21108 66.575278 
L 175.254716 65.387571 
L 178.298352 64.22596 
L 181.341989 63.089133 
L 184.385625 61.975883 
L 187.429261 60.885092 
L 190.472898 59.815725 
L 193.516534 58.766823 
L 196.56017 57.737491 
L 199.603807 56.726897 
L 202.647443 55.734263 
L 205.69108 54.758861 
L 208.734716 53.800008 
L 211.778352 52.857064 
L 214.821989 51.929427 
L 217.865625 51.01653 
L 220.909261 50.117839 
L 223.952898 49.232848 
L 226.996534 48.361083 
L 230.04017 47.502091 
L 233.083807 46.655445 
L 236.127443 45.82074 
L 239.17108 44.997592 
L 242.214716 44.185634 
L 245.258352 43.38452 
L 248.301989 42.593919 
L 251.345625 41.813514 
L 254.389261 41.043006 
L 257.432898 40.282108 
L 260.476534 39.530546 
L 263.52017 38.788057 
L 266.563807 38.054391 
L 269.607443 37.329308 
L 272.65108 36.612578 
L 275.694716 35.903982 
L 278.738352 35.203308 
L 281.781989 34.510352 
L 284.825625 33.824921 
L 287.869261 33.146827 
L 290.912898 32.47589 
L 293.956534 31.811938 
L 297.00017 31.154803 
L 300.043807 30.504325 
L 303.087443 29.86035 
L 306.13108 29.222729 
L 309.174716 28.591317 
L 312.218352 27.965976 
L 315.261989 27.346573 
L 318.305625 26.732978 
L 321.349261 26.125065 
L 324.392898 25.522715 
L 327.436534 24.92581 
L 330.48017 24.334238 
L 333.523807 23.747889 
L 336.567443 23.166657 
L 339.61108 22.59044 
L 342.654716 22.019138 
L 345.698352 21.452655 
L 348.741989 20.890898 
L 351.785625 20.333776 
L 354.829261 19.781201 
L 357.872898 19.233088 
L 360.916534 18.689355 
L 363.96017 18.14992 
L 367.003807 17.614706 
L 370.047443 17.083636 
" style="fill:none;stroke:#0000ff;stroke-linecap:square;stroke-width:1.5;"/>
   </g>
   <g id="patch_3">
    <path d="M 50.465625 224.64 
L 50.465625 7.2 
" style="fill:none;stroke:#000000;stroke-linecap:square;stroke-linejoin:miter;stroke-width:0.8;"/>
   </g>
   <g id="patch_4">
    <path d="M 385.265625 224.64 
L 385.265625 7.2 
" style="fill:none;stroke:#000000;stroke-linecap:square;stroke-linejoin:miter;stroke-width:0.8;"/>
   </g>
   <g id="patch_5">
    <path d="M 50.465625 224.64 
L 385.265625 224.64 
" style="fill:none;stroke:#000000;stroke-linecap:square;stroke-linejoin:miter;stroke-width:0.8;"/>
   </g>
   <g id="patch_6">
    <path d="M 50.465625 7.2 
L 385.265625 7.2 
" style="fill:none;stroke:#000000;stroke-linecap:square;stroke-linejoin:miter;stroke-width:0.8;"/>
   </g>
   <g id="legend_1">
    <g id="patch_7">
     <path d="M 303.70625 89.878125 
L 378.265625 89.878125 
Q 380.265625 89.878125 380.265625 87.878125 
L 380.265625 14.2 
Q 380.265625 12.2 378.265625 12.2 
L 303.70625 12.2 
Q 301.70625 12.2 301.70625 14.2 
L 301.70625 87.878125 
Q 301.70625 89.878125 303.70625 89.878125 
z
" style="fill:#ffffff;opacity:0.8;stroke:#cccccc;stroke-linejoin:miter;"/>
    </g>
    <g id="text_18">
     <!-- Energy Levels -->
     <g transform="translate(306.085938 23.798437)scale(0.1 -0.1)">
      <defs>
       <path d="M 56.203125 29.59375 
L 56.203125 25.203125 
L 14.890625 25.203125 
Q 15.484375 15.921875 20.484375 11.0625 
Q 25.484375 6.203125 34.421875 6.203125 
Q 39.59375 6.203125 44.453125 7.46875 
Q 49.3125 8.734375 54.109375 11.28125 
L 54.109375 2.78125 
Q 49.265625 0.734375 44.1875 -0.34375 
Q 39.109375 -1.421875 33.890625 -1.421875 
Q 20.796875 -1.421875 13.15625 6.1875 
Q 5.515625 13.8125 5.515625 26.8125 
Q 5.515625 40.234375 12.765625 48.109375 
Q 20.015625 56 32.328125 56 
Q 43.359375 56 49.78125 48.890625 
Q 56.203125 41.796875 56.203125 29.59375 
z
M 47.21875 32.234375 
Q 47.125 39.59375 43.09375 43.984375 
Q 39.0625 48.390625 32.421875 48.390625 
Q 24.90625 48.390625 20.390625 44.140625 
Q 15.875 39.890625 15.1875 32.171875 
z
" id="DejaVuSans-101"/>
       <path d="M 41.109375 46.296875 
Q 39.59375 47.171875 37.8125 47.578125 
Q 36.03125 48 33.890625 48 
Q 26.265625 48 22.1875 43.046875 
Q 18.109375 38.09375 18.109375 28.8125 
L 18.109375 0 
L 9.078125 0 
L 9.078125 54.6875 
L 18.109375 54.6875 
L 18.109375 46.1875 
Q 20.953125 51.171875 25.484375 53.578125 
Q 30.03125 56 36.53125 56 
Q 37.453125 56 38.578125 55.875 
Q 39.703125 55.765625 41.0625 55.515625 
z
" id="DejaVuSans-114"/>
       <path d="M 45.40625 27.984375 
Q 45.40625 37.75 41.375 43.109375 
Q 37.359375 48.484375 30.078125 48.484375 
Q 22.859375 48.484375 18.828125 43.109375 
Q 14.796875 37.75 14.796875 27.984375 
Q 14.796875 18.265625 18.828125 12.890625 
Q 22.859375 7.515625 30.078125 7.515625 
Q 37.359375 7.515625 41.375 12.890625 
Q 45.40625 18.265625 45.40625 27.984375 
z
M 54.390625 6.78125 
Q 54.390625 -7.171875 48.1875 -13.984375 
Q 42 -20.796875 29.203125 -20.796875 
Q 24.46875 -20.796875 20.265625 -20.09375 
Q 16.0625 -19.390625 12.109375 -17.921875 
L 12.109375 -9.1875 
Q 16.0625 -11.328125 19.921875 -12.34375 
Q 23.78125 -13.375 27.78125 -13.375 
Q 36.625 -13.375 41.015625 -8.765625 
Q 45.40625 -4.15625 45.40625 5.171875 
L 45.40625 9.625 
Q 42.625 4.78125 38.28125 2.390625 
Q 33.9375 0 27.875 0 
Q 17.828125 0 11.671875 7.65625 
Q 5.515625 15.328125 5.515625 27.984375 
Q 5.515625 40.671875 11.671875 48.328125 
Q 17.828125 56 27.875 56 
Q 33.9375 56 38.28125 53.609375 
Q 42.625 51.21875 45.40625 46.390625 
L 45.40625 54.6875 
L 54.390625 54.6875 
z
" id="DejaVuSans-103"/>
       <path d="M 32.171875 -5.078125 
Q 28.375 -14.84375 24.75 -17.8125 
Q 21.140625 -20.796875 15.09375 -20.796875 
L 7.90625 -20.796875 
L 7.90625 -13.28125 
L 13.1875 -13.28125 
Q 16.890625 -13.28125 18.9375 -11.515625 
Q 21 -9.765625 23.484375 -3.21875 
L 25.09375 0.875 
L 2.984375 54.6875 
L 12.5 54.6875 
L 29.59375 11.921875 
L 46.6875 54.6875 
L 56.203125 54.6875 
z
" id="DejaVuSans-121"/>
       <path id="DejaVuSans-32"/>
       <path d="M 9.8125 72.90625 
L 19.671875 72.90625 
L 19.671875 8.296875 
L 55.171875 8.296875 
L 55.171875 0 
L 9.8125 0 
z
" id="DejaVuSans-76"/>
       <path d="M 2.984375 54.6875 
L 12.5 54.6875 
L 29.59375 8.796875 
L 46.6875 54.6875 
L 56.203125 54.6875 
L 35.6875 0 
L 23.484375 0 
z
" id="DejaVuSans-118"/>
       <path d="M 9.421875 75.984375 
L 18.40625 75.984375 
L 18.40625 0 
L 9.421875 0 
z
" id="DejaVuSans-108"/>
       <path d="M 44.28125 53.078125 
L 44.28125 44.578125 
Q 40.484375 46.53125 36.375 47.5 
Q 32.28125 48.484375 27.875 48.484375 
Q 21.1875 48.484375 17.84375 46.4375 
Q 14.5 44.390625 14.5 40.28125 
Q 14.5 37.15625 16.890625 35.375 
Q 19.28125 33.59375 26.515625 31.984375 
L 29.59375 31.296875 
Q 39.15625 29.25 43.1875 25.515625 
Q 47.21875 21.78125 47.21875 15.09375 
Q 47.21875 7.46875 41.1875 3.015625 
Q 35.15625 -1.421875 24.609375 -1.421875 
Q 20.21875 -1.421875 15.453125 -0.5625 
Q 10.6875 0.296875 5.421875 2 
L 5.421875 11.28125 
Q 10.40625 8.6875 15.234375 7.390625 
Q 20.0625 6.109375 24.8125 6.109375 
Q 31.15625 6.109375 34.5625 8.28125 
Q 37.984375 10.453125 37.984375 14.40625 
Q 37.984375 18.0625 35.515625 20.015625 
Q 33.0625 21.96875 24.703125 23.78125 
L 21.578125 24.515625 
Q 13.234375 26.265625 9.515625 29.90625 
Q 5.8125 33.546875 5.8125 39.890625 
Q 5.8125 47.609375 11.28125 51.796875 
Q 16.75 56 26.8125 56 
Q 31.78125 56 36.171875 55.265625 
Q 40.578125 54.546875 44.28125 53.078125 
z
" id="DejaVuSans-115"/>
      </defs>
      <use xlink:href="#DejaVuSans-69"/>
      <use x="63.183594" xlink:href="#DejaVuSans-110"/>
      <use x="126.5625" xlink:href="#DejaVuSans-101"/>
      <use x="188.085938" xlink:href="#DejaVuSans-114"/>
      <use x="227.449219" xlink:href="#DejaVuSans-103"/>
      <use x="290.925781" xlink:href="#DejaVuSans-121"/>
      <use x="350.105469" xlink:href="#DejaVuSans-32"/>
      <use x="381.892578" xlink:href="#DejaVuSans-76"/>
      <use x="435.855469" xlink:href="#DejaVuSans-101"/>
      <use x="497.378906" xlink:href="#DejaVuSans-118"/>
      <use x="556.558594" xlink:href="#DejaVuSans-101"/>
      <use x="618.082031" xlink:href="#DejaVuSans-108"/>
      <use x="645.865234" xlink:href="#DejaVuSans-115"/>
     </g>
    </g>
    <g id="line2d_20">
     <path d="M 305.70625 35.020312 
L 325.70625 35.020312 
" style="fill:none;stroke:#000000;stroke-linecap:square;stroke-width:1.5;"/>
    </g>
    <g id="line2d_21"/>
    <g id="text_19">
     <!-- &lt;1|n|0&gt; -->
     <g transform="translate(333.70625 38.520312)scale(0.1 -0.1)">
      <use xlink:href="#DejaVuSans-60"/>
      <use x="83.789062" xlink:href="#DejaVuSans-49"/>
      <use x="147.412109" xlink:href="#DejaVuSans-124"/>
      <use x="181.103516" xlink:href="#DejaVuSans-110"/>
      <use x="244.482422" xlink:href="#DejaVuSans-124"/>
      <use x="278.173828" xlink:href="#DejaVuSans-48"/>
      <use x="341.796875" xlink:href="#DejaVuSans-62"/>
     </g>
    </g>
    <g id="line2d_22">
     <path d="M 305.70625 50.020312 
L 325.70625 50.020312 
" style="fill:none;stroke:#ff0000;stroke-linecap:square;stroke-width:1.5;"/>
    </g>
    <g id="line2d_23"/>
    <g id="text_20">
     <!-- &lt;2|n|0&gt; -->
     <g transform="translate(333.70625 53.520312)scale(0.1 -0.1)">
      <use xlink:href="#DejaVuSans-60"/>
      <use x="83.789062" xlink:href="#DejaVuSans-50"/>
      <use x="147.412109" xlink:href="#DejaVuSans-124"/>
      <use x="181.103516" xlink:href="#DejaVuSans-110"/>
      <use x="244.482422" xlink:href="#DejaVuSans-124"/>
      <use x="278.173828" xlink:href="#DejaVuSans-48"/>
      <use x="341.796875" xlink:href="#DejaVuSans-62"/>
     </g>
    </g>
    <g id="line2d_24">
     <path d="M 305.70625 65.020312 
L 325.70625 65.020312 
" style="fill:none;stroke:#bfbf00;stroke-linecap:square;stroke-width:1.5;"/>
    </g>
    <g id="line2d_25"/>
    <g id="text_21">
     <!-- &lt;3|n|0&gt; -->
     <g transform="translate(333.70625 68.520312)scale(0.1 -0.1)">
      <defs>
       <path d="M 40.578125 39.3125 
Q 47.65625 37.796875 51.625 33 
Q 55.609375 28.21875 55.609375 21.1875 
Q 55.609375 10.40625 48.1875 4.484375 
Q 40.765625 -1.421875 27.09375 -1.421875 
Q 22.515625 -1.421875 17.65625 -0.515625 
Q 12.796875 0.390625 7.625 2.203125 
L 7.625 11.71875 
Q 11.71875 9.328125 16.59375 8.109375 
Q 21.484375 6.890625 26.8125 6.890625 
Q 36.078125 6.890625 40.9375 10.546875 
Q 45.796875 14.203125 45.796875 21.1875 
Q 45.796875 27.640625 41.28125 31.265625 
Q 36.765625 34.90625 28.71875 34.90625 
L 20.21875 34.90625 
L 20.21875 43.015625 
L 29.109375 43.015625 
Q 36.375 43.015625 40.234375 45.921875 
Q 44.09375 48.828125 44.09375 54.296875 
Q 44.09375 59.90625 40.109375 62.90625 
Q 36.140625 65.921875 28.71875 65.921875 
Q 24.65625 65.921875 20.015625 65.03125 
Q 15.375 64.15625 9.8125 62.3125 
L 9.8125 71.09375 
Q 15.4375 72.65625 20.34375 73.4375 
Q 25.25 74.21875 29.59375 74.21875 
Q 40.828125 74.21875 47.359375 69.109375 
Q 53.90625 64.015625 53.90625 55.328125 
Q 53.90625 49.265625 50.4375 45.09375 
Q 46.96875 40.921875 40.578125 39.3125 
z
" id="DejaVuSans-51"/>
      </defs>
      <use xlink:href="#DejaVuSans-60"/>
      <use x="83.789062" xlink:href="#DejaVuSans-51"/>
      <use x="147.412109" xlink:href="#DejaVuSans-124"/>
      <use x="181.103516" xlink:href="#DejaVuSans-110"/>
      <use x="244.482422" xlink:href="#DejaVuSans-124"/>
      <use x="278.173828" xlink:href="#DejaVuSans-48"/>
      <use x="341.796875" xlink:href="#DejaVuSans-62"/>
     </g>
    </g>
    <g id="line2d_26">
     <path d="M 305.70625 80.020312 
L 325.70625 80.020312 
" style="fill:none;stroke:#0000ff;stroke-linecap:square;stroke-width:1.5;"/>
    </g>
    <g id="line2d_27"/>
    <g id="text_22">
     <!-- &lt;2|n|1&gt; -->
     <g transform="translate(333.70625 83.520312)scale(0.1 -0.1)">
      <use xlink:href="#DejaVuSans-60"/>
      <use x="83.789062" xlink:href="#DejaVuSans-50"/>
      <use x="147.412109" xlink:href="#DejaVuSans-124"/>
      <use x="181.103516" xlink:href="#DejaVuSans-110"/>
      <use x="244.482422" xlink:href="#DejaVuSans-124"/>
      <use x="278.173828" xlink:href="#DejaVuSans-49"/>
      <use x="341.796875" xlink:href="#DejaVuSans-62"/>
     </g>
    </g>
   </g>
  </g>
 </g>
 <defs>
  <clipPath id="p75598e01c4">
   <rect height="217.44" width="334.8" x="50.465625" y="7.2"/>
  </clipPath>
 </defs>
</svg>
