<svg xmlns="http://www.w3.org/2000/svg" xmlns:xlink="http://www.w3.org/1999/xlink" width="100.0" height="100.0" viewBox="-1.08 -1.08 2.16 2.16" preserveAspectRatio="xMinYMin meet"><g transform="matrix(1,0,0,-1,0,0.0)"><path fill-rule="evenodd" fill="#66cc99" stroke="#555555" stroke-width="0.0432" opacity="0.6" d="M 0.9569403357322088,-0.29028467725446233 L 0.9238795325112867,-0.3826834323650898 L 0.881921264348355,-0.47139673682599764 L 0.8314696123025452,-0.5555702330196022 L 0.773010453362737,-0.6343932841636455 L 0.7071067811865476,-0.7071067811865475 L 0.6343932841636455,-0.773010453362737 L 0.5555702330196023,-0.8314696123025452 L 0.4713967368259978,-0.8819212643483549 L 0.38268343236508984,-0.9238795325112867 L 0.29028467725446233,-0.9569403357322088 L 0.19509032201612833,-0.9807852804032304 L 0.09801714032956077,-0.9951847266721968 L 0.0,-1.0 L -0.09801714032956065,-0.9951847266721969 L -0.1950903220161282,-0.9807852804032304 L -0.29028467725446216,-0.9569403357322089 L -0.3826834323650897,-0.9238795325112867 L -0.4713967368259977,-0.881921264348355 L -0.555570233019602,-0.8314696123025453 L -0.6343932841636454,-0.7730104533627371 L -0.7071067811865475,-0.7071067811865476 L -0.773010453362737,-0.6343932841636455 L -0.8314696123025453,-0.5555702330196022 L -0.8819212643483549,-0.47139673682599786 L -0.9238795325112867,-0.3826834323650899 L -0.9569403357322088,-0.2902846772544624 L -0.9807852804032304,-0.1950903220161286 L -0.9951847266721968,-0.09801714032956083 L -1.0,0.0 L -0.9951847266721969,0.09801714032956059 L -0.9807852804032304,0.19509032201612836 L -0.9569403357322089,0.2902846772544621 L -0.9238795325112868,0.38268343236508967 L -0.881921264348355,0.47139673682599764 L -0.8314696123025455,0.555570233019602 L -0.7730104533627371,0.6343932841636453 L -0.7071067811865477,0.7071067811865475 L -0.6343932841636458,0.7730104533627367 L -0.5555702330196022,0.8314696123025452 L -0.4713967368259979,0.8819212643483549 L -0.38268343236509034,0.9238795325112865 L -0.29028467725446244,0.9569403357322088 L -0.19509032201612866,0.9807852804032303 L -0.09801714032956045,0.9951847266721969 L 0.0,1.0 L 0.09801714032956009,0.9951847266721969 L 0.1950903220161283,0.9807852804032304 L 0.29028467725446205,0.9569403357322089 L 0.38268343236509,0.9238795325112866 L 0.4713967368259976,0.881921264348355 L 0.5555702330196018,0.8314696123025455 L 0.6343932841636456,0.7730104533627369 L 0.7071067811865474,0.7071067811865477 L 0.7730104533627367,0.6343932841636459 L 0.8314696123025452,0.5555702330196022 L 0.8819212643483548,0.471396736825998 L 0.9238795325112865,0.3826834323650904 L 0.9569403357322088,0.2902846772544625 L 0.9807852804032303,0.19509032201612872 L 0.9951847266721969,0.0980171403295605 L 1.0,0.0 L 0.9951847266721969,-0.0980171403295606 L 0.9807852804032304,-0.19509032201612825 L 0.9569403357322088,-0.29028467725446233 z M -0.7391036260090295,-0.3061467458920719 L -0.705537011478684,-0.3771173894607983 L -0.6651756898420363,-0.44445618641568174 L -0.6184083626901896,-0.5075146273309165 L -0.565685424949238,-0.5656854249492381 L -0.5075146273309163,-0.6184083626901897 L -0.4444561864156816,-0.6651756898420363 L -0.3771173894607982,-0.7055370114786841 L -0.3061467458920718,-0.7391036260090295 L -0.23222774180356975,-0.7655522685857672 L -0.15607225761290255,-0.7846282243225844 L -0.07841371226364852,-0.7961477813377575 L 0.0,-0.8 L 0.07841371226364863,-0.7961477813377575 L 0.15607225761290267,-0.7846282243225844 L 0.23222774180356986,-0.7655522685857671 L 0.3061467458920719,-0.7391036260090295 L 0.37711738946079826,-0.705537011478684 L 0.44445618641568185,-0.6651756898420362 L 0.5075146273309165,-0.6184083626901896 L 0.5656854249492381,-0.565685424949238 L 0.6184083626901896,-0.5075146273309165 L 0.6651756898420362,-0.44445618641568174 L 0.7055370114786841,-0.37711738946079815 L 0.7391036260090295,-0.30614674589207186 L 0.7413029668566793,-0.3 L -0.7413029668566793,-0.3 L -0.7391036260090295,-0.3061467458920719 z M 0.5961570560806461,0.43901806440322577 L 0.5913880671464418,0.45805693545089254 L 0.5847759065022573,0.4765366864730181 L 0.576384252869671,0.49427934736519963 L 0.566293922460509,0.5111140466039205 L 0.5546020906725474,0.5268786568327293 L 0.5414213562373095,0.5414213562373096 L 0.5268786568327292,0.5546020906725474 L 0.5111140466039203,0.5662939224605091 L 0.4942793473651995,0.576384252869671 L 0.47653668647301806,0.5847759065022573 L 0.45805693545089243,0.5913880671464418 L 0.43901806440322566,0.5961570560806462 L 0.41960342806591205,0.5990369453344394 L 0.4,0.6000000000000001 L 0.38039657193408793,0.5990369453344394 L 0.3609819355967743,0.5961570560806461 L 0.3419430645491075,0.5913880671464418 L 0.32346331352698193,0.5847759065022573 L 0.3057206526348004,0.576384252869671 L 0.2888859533960796,0.566293922460509 L 0.2731213431672709,0.5546020906725474 L 0.25857864376269046,0.5414213562373096 L 0.2453979093274526,0.526878656832729 L 0.2337060775394909,0.5111140466039205 L 0.223615747130329,0.4942793473651996 L 0.21522409349774263,0.47653668647301795 L 0.20861193285355822,0.45805693545089243 L 0.20384294391935392,0.4390180644032257 L 0.20096305466556064,0.41960342806591217 L 0.2,0.4 L 0.20096305466556064,0.3803965719340879 L 0.20384294391935392,0.3609819355967743 L 0.20861193285355825,0.34194306454910756 L 0.21522409349774266,0.32346331352698204 L 0.22361574713032903,0.3057206526348004 L 0.23370607753949094,0.2888859533960796 L 0.24539790932745262,0.2731213431672709 L 0.2585786437626905,0.25857864376269046 L 0.27312134316727094,0.2453979093274526 L 0.28888595339607964,0.23370607753949094 L 0.30572065263480047,0.223615747130329 L 0.3234633135269821,0.21522409349774266 L 0.3419430645491076,0.20861193285355822 L 0.3609819355967744,0.20384294391935392 L 0.3803965719340879,0.20096305466556064 L 0.4,0.2 L 0.41960342806591217,0.20096305466556064 L 0.43901806440322566,0.20384294391935392 L 0.4580569354508925,0.20861193285355825 L 0.476536686473018,0.21522409349774266 L 0.4942793473651996,0.22361574713032903 L 0.5111140466039205,0.23370607753949096 L 0.5268786568327292,0.24539790932745262 L 0.5414213562373096,0.2585786437626905 L 0.5546020906725474,0.2731213431672709 L 0.566293922460509,0.2888859533960796 L 0.576384252869671,0.30572065263480047 L 0.5847759065022574,0.32346331352698204 L 0.5913880671464418,0.34194306454910756 L 0.5961570560806462,0.3609819355967744 L 0.5990369453344394,0.3803965719340879 L 0.6000000000000001,0.4 L 0.5990369453344394,0.4196034280659121 L 0.5961570560806461,0.43901806440322577 z M -0.20096305466556064,0.4196034280659121 L -0.20384294391935395,0.43901806440322577 L -0.20861193285355825,0.45805693545089254 L -0.2152240934977427,0.4765366864730181 L -0.22361574713032906,0.49427934736519963 L -0.23370607753949096,0.5111140466039205 L -0.24539790932745267,0.5268786568327293 L -0.2585786437626906,0.5414213562373096 L -0.2731213431672709,0.5546020906725474 L -0.28888595339607964,0.5662939224605091 L -0.3057206526348005,0.576384252869671 L -0.323463313526982,0.5847759065022573 L -0.3419430645491076,0.5913880671464418 L -0.3609819355967744,0.5961570560806462 L -0.380396571934088,0.5990369453344394 L -0.4,0.6000000000000001 L -0.4196034280659121,0.5990369453344394 L -0.43901806440322577,0.5961570560806461 L -0.45805693545089254,0.5913880671464418 L -0.4765366864730181,0.5847759065022573 L -0.49427934736519963,0.576384252869671 L -0.5111140466039205,0.566293922460509 L -0.5268786568327292,0.5546020906725474 L -0.5414213562373096,0.5414213562373096 L -0.5546020906725475,0.526878656832729 L -0.5662939224605091,0.5111140466039205 L -0.576384252869671,0.4942793473651996 L -0.5847759065022574,0.47653668647301795 L -0.5913880671464418,0.45805693545089243 L -0.5961570560806462,0.4390180644032257 L -0.5990369453344394,0.41960342806591217 L -0.6000000000000001,0.4 L -0.5990369453344394,0.3803965719340879 L -0.5961570560806462,0.3609819355967743 L -0.5913880671464418,0.34194306454910756 L -0.5847759065022574,0.32346331352698204 L -0.576384252869671,0.3057206526348004 L -0.5662939224605091,0.2888859533960796 L -0.5546020906725474,0.2731213431672709 L -0.5414213562373096,0.25857864376269046 L -0.526878656832729,0.2453979093274526 L -0.5111140466039205,0.23370607753949094 L -0.4942793473651996,0.223615747130329 L -0.47653668647301795,0.21522409349774266 L -0.45805693545089243,0.20861193285355822 L -0.43901806440322566,0.20384294391935392 L -0.41960342806591217,0.20096305466556064 L -0.4,0.2 L -0.3803965719340879,0.20096305466556064 L -0.3609819355967744,0.20384294391935392 L -0.34194306454910756,0.20861193285355825 L -0.32346331352698204,0.21522409349774266 L -0.30572065263480047,0.22361574713032903 L -0.2888859533960796,0.23370607753949096 L -0.2731213431672709,0.24539790932745262 L -0.25857864376269046,0.2585786437626905 L -0.24539790932745262,0.2731213431672709 L -0.23370607753949096,0.2888859533960796 L -0.223615747130329,0.30572065263480047 L -0.21522409349774266,0.32346331352698204 L -0.20861193285355825,0.34194306454910756 L -0.20384294391935392,0.3609819355967744 L -0.20096305466556064,0.3803965719340879 L -0.2,0.4 L -0.20096305466556064,0.4196034280659121 z" /></g></svg>