<svg xmlns="http://www.w3.org/2000/svg" xmlns:xlink="http://www.w3.org/1999/xlink" width="330" height="60.03" viewBox="-165 -30 330 60.03">
<defs>
<style type="text/css">
.l53d0 {stroke: #882D17; fill: #882D17; fill-opacity: 0.5;}
.l54d0 {stroke: #8DB600; fill: #8DB600; fill-opacity: 0.5;}
</style>
</defs>
<rect x="-165" y="-30" width="330" height="60.03" fill="#222222" stroke="none"/>
<g id="FakeJunction_01" transform="scale(1 -1)">
<polygon id="0x600001cec310" class="l53d0" points="20,-15 20,15 150,15 150,-15"/>
<polygon id="0x600001cec380" class="l53d0" points="-150,-15 -150,15 -20,15 -20,-15"/>
<polygon id="0x600001cec3f0" class="l53d0" points="-19.99,7.02 -19.99,14.77 -3.78,14.77 -3.78,7.02"/>
<polygon id="0x600001cec460" class="l53d0" points="4.89,-15.03 4.89,-4.89 20.01,-4.89 20.01,-15.03"/>
<polygon id="0x600001cec4d0" class="l53d0" points="-6.73,-4.89 -6.73,7.01 -3.96,7.01 -3.96,-4.89"/>
<polygon id="0x600001cec540" class="l53d0" points="-6.36,-10.05 -6.36,-7.74 5.07,-7.74 5.07,-10.05"/>
<polygon id="0x600001cec5b0" class="l54d0" points="-6.27,-7.65 -6.27,-6.18 5.07,-6.18 5.07,-7.65"/>
<polygon id="0x600001cec620" class="l54d0" points="2.86,-6.18 2.86,-3.41 4.98,-3.41 4.98,-6.18"/>
<polygon id="0x600001cec690" class="l54d0" points="4.98,-4.89 4.98,-3.6 20.19,-3.6 20.19,-4.89"/>
</g>
</svg>