<?xml version="1.0" encoding="utf-8" standalone="no"?>
<!DOCTYPE svg PUBLIC "-//W3C//DTD SVG 1.1//EN"
  "http://www.w3.org/Graphics/SVG/1.1/DTD/svg11.dtd">
<!-- Created with matplotlib (https://matplotlib.org/) -->
<svg height="262.19625pt" version="1.1" viewBox="0 0 397.778125 262.19625" width="397.778125pt" xmlns="http://www.w3.org/2000/svg" xmlns:xlink="http://www.w3.org/1999/xlink">
 <metadata>
  <rdf:RDF xmlns:cc="http://creativecommons.org/ns#" xmlns:dc="http://purl.org/dc/elements/1.1/" xmlns:rdf="http://www.w3.org/1999/02/22-rdf-syntax-ns#">
   <cc:Work>
    <dc:type rdf:resource="http://purl.org/dc/dcmitype/StillImage"/>
    <dc:date>2021-08-20T09:19:13.445851</dc:date>
    <dc:format>image/svg+xml</dc:format>
    <dc:creator>
     <cc:Agent>
      <dc:title>Matplotlib v3.3.3, https://matplotlib.org/</dc:title>
     </cc:Agent>
    </dc:creator>
   </cc:Work>
  </rdf:RDF>
 </metadata>
 <defs>
  <style type="text/css">*{stroke-linecap:butt;stroke-linejoin:round;}</style>
 </defs>
 <g id="figure_1">
  <g id="patch_1">
   <path d="M 0 262.19625 
L 397.778125 262.19625 
L 397.778125 0 
L 0 0 
z
" style="fill:none;"/>
  </g>
  <g id="axes_1">
   <g id="patch_2">
    <path d="M 55.778125 224.64 
L 390.578125 224.64 
L 390.578125 7.2 
L 55.778125 7.2 
z
" style="fill:#ffffff;"/>
   </g>
   <g id="matplotlib.axis_1">
    <g id="xtick_1">
     <g id="line2d_1">
      <defs>
       <path d="M 0 0 
L 0 3.5 
" id="m384e09f1cc" style="stroke:#000000;stroke-width:0.8;"/>
      </defs>
      <g>
       <use style="stroke:#000000;stroke-width:0.8;" x="68.80664" xlink:href="#m384e09f1cc" y="224.64"/>
      </g>
     </g>
     <g id="text_1">
      <!-- 0 -->
      <g transform="translate(65.62539 239.238437)scale(0.1 -0.1)">
       <defs>
        <path d="M 31.78125 66.40625 
Q 24.171875 66.40625 20.328125 58.90625 
Q 16.5 51.421875 16.5 36.375 
Q 16.5 21.390625 20.328125 13.890625 
Q 24.171875 6.390625 31.78125 6.390625 
Q 39.453125 6.390625 43.28125 13.890625 
Q 47.125 21.390625 47.125 36.375 
Q 47.125 51.421875 43.28125 58.90625 
Q 39.453125 66.40625 31.78125 66.40625 
z
M 31.78125 74.21875 
Q 44.046875 74.21875 50.515625 64.515625 
Q 56.984375 54.828125 56.984375 36.375 
Q 56.984375 17.96875 50.515625 8.265625 
Q 44.046875 -1.421875 31.78125 -1.421875 
Q 19.53125 -1.421875 13.0625 8.265625 
Q 6.59375 17.96875 6.59375 36.375 
Q 6.59375 54.828125 13.0625 64.515625 
Q 19.53125 74.21875 31.78125 74.21875 
z
" id="DejaVuSans-48"/>
       </defs>
       <use xlink:href="#DejaVuSans-48"/>
      </g>
     </g>
    </g>
    <g id="xtick_2">
     <g id="line2d_2">
      <g>
       <use style="stroke:#000000;stroke-width:0.8;" x="112.599969" xlink:href="#m384e09f1cc" y="224.64"/>
      </g>
     </g>
     <g id="text_2">
      <!-- 20 -->
      <g transform="translate(106.237469 239.238437)scale(0.1 -0.1)">
       <defs>
        <path d="M 19.1875 8.296875 
L 53.609375 8.296875 
L 53.609375 0 
L 7.328125 0 
L 7.328125 8.296875 
Q 12.9375 14.109375 22.625 23.890625 
Q 32.328125 33.6875 34.8125 36.53125 
Q 39.546875 41.84375 41.421875 45.53125 
Q 43.3125 49.21875 43.3125 52.78125 
Q 43.3125 58.59375 39.234375 62.25 
Q 35.15625 65.921875 28.609375 65.921875 
Q 23.96875 65.921875 18.8125 64.3125 
Q 13.671875 62.703125 7.8125 59.421875 
L 7.8125 69.390625 
Q 13.765625 71.78125 18.9375 73 
Q 24.125 74.21875 28.421875 74.21875 
Q 39.75 74.21875 46.484375 68.546875 
Q 53.21875 62.890625 53.21875 53.421875 
Q 53.21875 48.921875 51.53125 44.890625 
Q 49.859375 40.875 45.40625 35.40625 
Q 44.1875 33.984375 37.640625 27.21875 
Q 31.109375 20.453125 19.1875 8.296875 
z
" id="DejaVuSans-50"/>
       </defs>
       <use xlink:href="#DejaVuSans-50"/>
       <use x="63.623047" xlink:href="#DejaVuSans-48"/>
      </g>
     </g>
    </g>
    <g id="xtick_3">
     <g id="line2d_3">
      <g>
       <use style="stroke:#000000;stroke-width:0.8;" x="156.393298" xlink:href="#m384e09f1cc" y="224.64"/>
      </g>
     </g>
     <g id="text_3">
      <!-- 40 -->
      <g transform="translate(150.030798 239.238437)scale(0.1 -0.1)">
       <defs>
        <path d="M 37.796875 64.3125 
L 12.890625 25.390625 
L 37.796875 25.390625 
z
M 35.203125 72.90625 
L 47.609375 72.90625 
L 47.609375 25.390625 
L 58.015625 25.390625 
L 58.015625 17.1875 
L 47.609375 17.1875 
L 47.609375 0 
L 37.796875 0 
L 37.796875 17.1875 
L 4.890625 17.1875 
L 4.890625 26.703125 
z
" id="DejaVuSans-52"/>
       </defs>
       <use xlink:href="#DejaVuSans-52"/>
       <use x="63.623047" xlink:href="#DejaVuSans-48"/>
      </g>
     </g>
    </g>
    <g id="xtick_4">
     <g id="line2d_4">
      <g>
       <use style="stroke:#000000;stroke-width:0.8;" x="200.186627" xlink:href="#m384e09f1cc" y="224.64"/>
      </g>
     </g>
     <g id="text_4">
      <!-- 60 -->
      <g transform="translate(193.824127 239.238437)scale(0.1 -0.1)">
       <defs>
        <path d="M 33.015625 40.375 
Q 26.375 40.375 22.484375 35.828125 
Q 18.609375 31.296875 18.609375 23.390625 
Q 18.609375 15.53125 22.484375 10.953125 
Q 26.375 6.390625 33.015625 6.390625 
Q 39.65625 6.390625 43.53125 10.953125 
Q 47.40625 15.53125 47.40625 23.390625 
Q 47.40625 31.296875 43.53125 35.828125 
Q 39.65625 40.375 33.015625 40.375 
z
M 52.59375 71.296875 
L 52.59375 62.3125 
Q 48.875 64.0625 45.09375 64.984375 
Q 41.3125 65.921875 37.59375 65.921875 
Q 27.828125 65.921875 22.671875 59.328125 
Q 17.53125 52.734375 16.796875 39.40625 
Q 19.671875 43.65625 24.015625 45.921875 
Q 28.375 48.1875 33.59375 48.1875 
Q 44.578125 48.1875 50.953125 41.515625 
Q 57.328125 34.859375 57.328125 23.390625 
Q 57.328125 12.15625 50.6875 5.359375 
Q 44.046875 -1.421875 33.015625 -1.421875 
Q 20.359375 -1.421875 13.671875 8.265625 
Q 6.984375 17.96875 6.984375 36.375 
Q 6.984375 53.65625 15.1875 63.9375 
Q 23.390625 74.21875 37.203125 74.21875 
Q 40.921875 74.21875 44.703125 73.484375 
Q 48.484375 72.75 52.59375 71.296875 
z
" id="DejaVuSans-54"/>
       </defs>
       <use xlink:href="#DejaVuSans-54"/>
       <use x="63.623047" xlink:href="#DejaVuSans-48"/>
      </g>
     </g>
    </g>
    <g id="xtick_5">
     <g id="line2d_5">
      <g>
       <use style="stroke:#000000;stroke-width:0.8;" x="243.979956" xlink:href="#m384e09f1cc" y="224.64"/>
      </g>
     </g>
     <g id="text_5">
      <!-- 80 -->
      <g transform="translate(237.617456 239.238437)scale(0.1 -0.1)">
       <defs>
        <path d="M 31.78125 34.625 
Q 24.75 34.625 20.71875 30.859375 
Q 16.703125 27.09375 16.703125 20.515625 
Q 16.703125 13.921875 20.71875 10.15625 
Q 24.75 6.390625 31.78125 6.390625 
Q 38.8125 6.390625 42.859375 10.171875 
Q 46.921875 13.96875 46.921875 20.515625 
Q 46.921875 27.09375 42.890625 30.859375 
Q 38.875 34.625 31.78125 34.625 
z
M 21.921875 38.8125 
Q 15.578125 40.375 12.03125 44.71875 
Q 8.5 49.078125 8.5 55.328125 
Q 8.5 64.0625 14.71875 69.140625 
Q 20.953125 74.21875 31.78125 74.21875 
Q 42.671875 74.21875 48.875 69.140625 
Q 55.078125 64.0625 55.078125 55.328125 
Q 55.078125 49.078125 51.53125 44.71875 
Q 48 40.375 41.703125 38.8125 
Q 48.828125 37.15625 52.796875 32.3125 
Q 56.78125 27.484375 56.78125 20.515625 
Q 56.78125 9.90625 50.3125 4.234375 
Q 43.84375 -1.421875 31.78125 -1.421875 
Q 19.734375 -1.421875 13.25 4.234375 
Q 6.78125 9.90625 6.78125 20.515625 
Q 6.78125 27.484375 10.78125 32.3125 
Q 14.796875 37.15625 21.921875 38.8125 
z
M 18.3125 54.390625 
Q 18.3125 48.734375 21.84375 45.5625 
Q 25.390625 42.390625 31.78125 42.390625 
Q 38.140625 42.390625 41.71875 45.5625 
Q 45.3125 48.734375 45.3125 54.390625 
Q 45.3125 60.0625 41.71875 63.234375 
Q 38.140625 66.40625 31.78125 66.40625 
Q 25.390625 66.40625 21.84375 63.234375 
Q 18.3125 60.0625 18.3125 54.390625 
z
" id="DejaVuSans-56"/>
       </defs>
       <use xlink:href="#DejaVuSans-56"/>
       <use x="63.623047" xlink:href="#DejaVuSans-48"/>
      </g>
     </g>
    </g>
    <g id="xtick_6">
     <g id="line2d_6">
      <g>
       <use style="stroke:#000000;stroke-width:0.8;" x="287.773285" xlink:href="#m384e09f1cc" y="224.64"/>
      </g>
     </g>
     <g id="text_6">
      <!-- 100 -->
      <g transform="translate(278.229535 239.238437)scale(0.1 -0.1)">
       <defs>
        <path d="M 12.40625 8.296875 
L 28.515625 8.296875 
L 28.515625 63.921875 
L 10.984375 60.40625 
L 10.984375 69.390625 
L 28.421875 72.90625 
L 38.28125 72.90625 
L 38.28125 8.296875 
L 54.390625 8.296875 
L 54.390625 0 
L 12.40625 0 
z
" id="DejaVuSans-49"/>
       </defs>
       <use xlink:href="#DejaVuSans-49"/>
       <use x="63.623047" xlink:href="#DejaVuSans-48"/>
       <use x="127.246094" xlink:href="#DejaVuSans-48"/>
      </g>
     </g>
    </g>
    <g id="xtick_7">
     <g id="line2d_7">
      <g>
       <use style="stroke:#000000;stroke-width:0.8;" x="331.566614" xlink:href="#m384e09f1cc" y="224.64"/>
      </g>
     </g>
     <g id="text_7">
      <!-- 120 -->
      <g transform="translate(322.022864 239.238437)scale(0.1 -0.1)">
       <use xlink:href="#DejaVuSans-49"/>
       <use x="63.623047" xlink:href="#DejaVuSans-50"/>
       <use x="127.246094" xlink:href="#DejaVuSans-48"/>
      </g>
     </g>
    </g>
    <g id="xtick_8">
     <g id="line2d_8">
      <g>
       <use style="stroke:#000000;stroke-width:0.8;" x="375.359943" xlink:href="#m384e09f1cc" y="224.64"/>
      </g>
     </g>
     <g id="text_8">
      <!-- 140 -->
      <g transform="translate(365.816193 239.238437)scale(0.1 -0.1)">
       <use xlink:href="#DejaVuSans-49"/>
       <use x="63.623047" xlink:href="#DejaVuSans-52"/>
       <use x="127.246094" xlink:href="#DejaVuSans-48"/>
      </g>
     </g>
    </g>
    <g id="text_9">
     <!-- EJ/Ec -->
     <g transform="translate(210.950781 252.916562)scale(0.1 -0.1)">
      <defs>
       <path d="M 9.8125 72.90625 
L 55.90625 72.90625 
L 55.90625 64.59375 
L 19.671875 64.59375 
L 19.671875 43.015625 
L 54.390625 43.015625 
L 54.390625 34.71875 
L 19.671875 34.71875 
L 19.671875 8.296875 
L 56.78125 8.296875 
L 56.78125 0 
L 9.8125 0 
z
" id="DejaVuSans-69"/>
       <path d="M 9.8125 72.90625 
L 19.671875 72.90625 
L 19.671875 5.078125 
Q 19.671875 -8.109375 14.671875 -14.0625 
Q 9.671875 -20.015625 -1.421875 -20.015625 
L -5.171875 -20.015625 
L -5.171875 -11.71875 
L -2.09375 -11.71875 
Q 4.4375 -11.71875 7.125 -8.046875 
Q 9.8125 -4.390625 9.8125 5.078125 
z
" id="DejaVuSans-74"/>
       <path d="M 25.390625 72.90625 
L 33.6875 72.90625 
L 8.296875 -9.28125 
L 0 -9.28125 
z
" id="DejaVuSans-47"/>
       <path d="M 48.78125 52.59375 
L 48.78125 44.1875 
Q 44.96875 46.296875 41.140625 47.34375 
Q 37.3125 48.390625 33.40625 48.390625 
Q 24.65625 48.390625 19.8125 42.84375 
Q 14.984375 37.3125 14.984375 27.296875 
Q 14.984375 17.28125 19.8125 11.734375 
Q 24.65625 6.203125 33.40625 6.203125 
Q 37.3125 6.203125 41.140625 7.25 
Q 44.96875 8.296875 48.78125 10.40625 
L 48.78125 2.09375 
Q 45.015625 0.34375 40.984375 -0.53125 
Q 36.96875 -1.421875 32.421875 -1.421875 
Q 20.0625 -1.421875 12.78125 6.34375 
Q 5.515625 14.109375 5.515625 27.296875 
Q 5.515625 40.671875 12.859375 48.328125 
Q 20.21875 56 33.015625 56 
Q 37.15625 56 41.109375 55.140625 
Q 45.0625 54.296875 48.78125 52.59375 
z
" id="DejaVuSans-99"/>
      </defs>
      <use xlink:href="#DejaVuSans-69"/>
      <use x="63.183594" xlink:href="#DejaVuSans-74"/>
      <use x="92.675781" xlink:href="#DejaVuSans-47"/>
      <use x="126.367188" xlink:href="#DejaVuSans-69"/>
      <use x="189.550781" xlink:href="#DejaVuSans-99"/>
     </g>
    </g>
   </g>
   <g id="matplotlib.axis_2">
    <g id="ytick_1">
     <g id="line2d_9">
      <defs>
       <path d="M 0 0 
L -3.5 0 
" id="mefc8532109" style="stroke:#000000;stroke-width:0.8;"/>
      </defs>
      <g>
       <use style="stroke:#000000;stroke-width:0.8;" x="55.778125" xlink:href="#mefc8532109" y="196.986297"/>
      </g>
     </g>
     <g id="text_10">
      <!-- $\mathdefault{10^{-12}}$ -->
      <g transform="translate(20.878125 200.785516)scale(0.1 -0.1)">
       <defs>
        <path d="M 10.59375 35.5 
L 73.1875 35.5 
L 73.1875 27.203125 
L 10.59375 27.203125 
z
" id="DejaVuSans-8722"/>
       </defs>
       <use transform="translate(0 0.765625)" xlink:href="#DejaVuSans-49"/>
       <use transform="translate(63.623047 0.765625)" xlink:href="#DejaVuSans-48"/>
       <use transform="translate(128.203125 39.046875)scale(0.7)" xlink:href="#DejaVuSans-8722"/>
       <use transform="translate(186.855469 39.046875)scale(0.7)" xlink:href="#DejaVuSans-49"/>
       <use transform="translate(231.391602 39.046875)scale(0.7)" xlink:href="#DejaVuSans-50"/>
      </g>
     </g>
    </g>
    <g id="ytick_2">
     <g id="line2d_10">
      <g>
       <use style="stroke:#000000;stroke-width:0.8;" x="55.778125" xlink:href="#mefc8532109" y="168.977628"/>
      </g>
     </g>
     <g id="text_11">
      <!-- $\mathdefault{10^{-10}}$ -->
      <g transform="translate(20.878125 172.776846)scale(0.1 -0.1)">
       <use transform="translate(0 0.765625)" xlink:href="#DejaVuSans-49"/>
       <use transform="translate(63.623047 0.765625)" xlink:href="#DejaVuSans-48"/>
       <use transform="translate(128.203125 39.046875)scale(0.7)" xlink:href="#DejaVuSans-8722"/>
       <use transform="translate(186.855469 39.046875)scale(0.7)" xlink:href="#DejaVuSans-49"/>
       <use transform="translate(231.391602 39.046875)scale(0.7)" xlink:href="#DejaVuSans-48"/>
      </g>
     </g>
    </g>
    <g id="ytick_3">
     <g id="line2d_11">
      <g>
       <use style="stroke:#000000;stroke-width:0.8;" x="55.778125" xlink:href="#mefc8532109" y="140.968958"/>
      </g>
     </g>
     <g id="text_12">
      <!-- $\mathdefault{10^{-8}}$ -->
      <g transform="translate(25.278125 144.768177)scale(0.1 -0.1)">
       <use transform="translate(0 0.765625)" xlink:href="#DejaVuSans-49"/>
       <use transform="translate(63.623047 0.765625)" xlink:href="#DejaVuSans-48"/>
       <use transform="translate(128.203125 39.046875)scale(0.7)" xlink:href="#DejaVuSans-8722"/>
       <use transform="translate(186.855469 39.046875)scale(0.7)" xlink:href="#DejaVuSans-56"/>
      </g>
     </g>
    </g>
    <g id="ytick_4">
     <g id="line2d_12">
      <g>
       <use style="stroke:#000000;stroke-width:0.8;" x="55.778125" xlink:href="#mefc8532109" y="112.960288"/>
      </g>
     </g>
     <g id="text_13">
      <!-- $\mathdefault{10^{-6}}$ -->
      <g transform="translate(25.278125 116.759507)scale(0.1 -0.1)">
       <use transform="translate(0 0.765625)" xlink:href="#DejaVuSans-49"/>
       <use transform="translate(63.623047 0.765625)" xlink:href="#DejaVuSans-48"/>
       <use transform="translate(128.203125 39.046875)scale(0.7)" xlink:href="#DejaVuSans-8722"/>
       <use transform="translate(186.855469 39.046875)scale(0.7)" xlink:href="#DejaVuSans-54"/>
      </g>
     </g>
    </g>
    <g id="ytick_5">
     <g id="line2d_13">
      <g>
       <use style="stroke:#000000;stroke-width:0.8;" x="55.778125" xlink:href="#mefc8532109" y="84.951619"/>
      </g>
     </g>
     <g id="text_14">
      <!-- $\mathdefault{10^{-4}}$ -->
      <g transform="translate(25.278125 88.750838)scale(0.1 -0.1)">
       <use transform="translate(0 0.684375)" xlink:href="#DejaVuSans-49"/>
       <use transform="translate(63.623047 0.684375)" xlink:href="#DejaVuSans-48"/>
       <use transform="translate(128.203125 38.965625)scale(0.7)" xlink:href="#DejaVuSans-8722"/>
       <use transform="translate(186.855469 38.965625)scale(0.7)" xlink:href="#DejaVuSans-52"/>
      </g>
     </g>
    </g>
    <g id="ytick_6">
     <g id="line2d_14">
      <g>
       <use style="stroke:#000000;stroke-width:0.8;" x="55.778125" xlink:href="#mefc8532109" y="56.942949"/>
      </g>
     </g>
     <g id="text_15">
      <!-- $\mathdefault{10^{-2}}$ -->
      <g transform="translate(25.278125 60.742168)scale(0.1 -0.1)">
       <use transform="translate(0 0.765625)" xlink:href="#DejaVuSans-49"/>
       <use transform="translate(63.623047 0.765625)" xlink:href="#DejaVuSans-48"/>
       <use transform="translate(128.203125 39.046875)scale(0.7)" xlink:href="#DejaVuSans-8722"/>
       <use transform="translate(186.855469 39.046875)scale(0.7)" xlink:href="#DejaVuSans-50"/>
      </g>
     </g>
    </g>
    <g id="ytick_7">
     <g id="line2d_15">
      <g>
       <use style="stroke:#000000;stroke-width:0.8;" x="55.778125" xlink:href="#mefc8532109" y="28.93428"/>
      </g>
     </g>
     <g id="text_16">
      <!-- $\mathdefault{10^{0}}$ -->
      <g transform="translate(31.178125 32.733498)scale(0.1 -0.1)">
       <use transform="translate(0 0.765625)" xlink:href="#DejaVuSans-49"/>
       <use transform="translate(63.623047 0.765625)" xlink:href="#DejaVuSans-48"/>
       <use transform="translate(128.203125 39.046875)scale(0.7)" xlink:href="#DejaVuSans-48"/>
      </g>
     </g>
    </g>
    <g id="text_17">
     <!-- Epsilon/E01 -->
     <g transform="translate(14.798437 145.070781)rotate(-90)scale(0.1 -0.1)">
      <defs>
       <path d="M 18.109375 8.203125 
L 18.109375 -20.796875 
L 9.078125 -20.796875 
L 9.078125 54.6875 
L 18.109375 54.6875 
L 18.109375 46.390625 
Q 20.953125 51.265625 25.265625 53.625 
Q 29.59375 56 35.59375 56 
Q 45.5625 56 51.78125 48.09375 
Q 58.015625 40.1875 58.015625 27.296875 
Q 58.015625 14.40625 51.78125 6.484375 
Q 45.5625 -1.421875 35.59375 -1.421875 
Q 29.59375 -1.421875 25.265625 0.953125 
Q 20.953125 3.328125 18.109375 8.203125 
z
M 48.6875 27.296875 
Q 48.6875 37.203125 44.609375 42.84375 
Q 40.53125 48.484375 33.40625 48.484375 
Q 26.265625 48.484375 22.1875 42.84375 
Q 18.109375 37.203125 18.109375 27.296875 
Q 18.109375 17.390625 22.1875 11.75 
Q 26.265625 6.109375 33.40625 6.109375 
Q 40.53125 6.109375 44.609375 11.75 
Q 48.6875 17.390625 48.6875 27.296875 
z
" id="DejaVuSans-112"/>
       <path d="M 44.28125 53.078125 
L 44.28125 44.578125 
Q 40.484375 46.53125 36.375 47.5 
Q 32.28125 48.484375 27.875 48.484375 
Q 21.1875 48.484375 17.84375 46.4375 
Q 14.5 44.390625 14.5 40.28125 
Q 14.5 37.15625 16.890625 35.375 
Q 19.28125 33.59375 26.515625 31.984375 
L 29.59375 31.296875 
Q 39.15625 29.25 43.1875 25.515625 
Q 47.21875 21.78125 47.21875 15.09375 
Q 47.21875 7.46875 41.1875 3.015625 
Q 35.15625 -1.421875 24.609375 -1.421875 
Q 20.21875 -1.421875 15.453125 -0.5625 
Q 10.6875 0.296875 5.421875 2 
L 5.421875 11.28125 
Q 10.40625 8.6875 15.234375 7.390625 
Q 20.0625 6.109375 24.8125 6.109375 
Q 31.15625 6.109375 34.5625 8.28125 
Q 37.984375 10.453125 37.984375 14.40625 
Q 37.984375 18.0625 35.515625 20.015625 
Q 33.0625 21.96875 24.703125 23.78125 
L 21.578125 24.515625 
Q 13.234375 26.265625 9.515625 29.90625 
Q 5.8125 33.546875 5.8125 39.890625 
Q 5.8125 47.609375 11.28125 51.796875 
Q 16.75 56 26.8125 56 
Q 31.78125 56 36.171875 55.265625 
Q 40.578125 54.546875 44.28125 53.078125 
z
" id="DejaVuSans-115"/>
       <path d="M 9.421875 54.6875 
L 18.40625 54.6875 
L 18.40625 0 
L 9.421875 0 
z
M 9.421875 75.984375 
L 18.40625 75.984375 
L 18.40625 64.59375 
L 9.421875 64.59375 
z
" id="DejaVuSans-105"/>
       <path d="M 9.421875 75.984375 
L 18.40625 75.984375 
L 18.40625 0 
L 9.421875 0 
z
" id="DejaVuSans-108"/>
       <path d="M 30.609375 48.390625 
Q 23.390625 48.390625 19.1875 42.75 
Q 14.984375 37.109375 14.984375 27.296875 
Q 14.984375 17.484375 19.15625 11.84375 
Q 23.34375 6.203125 30.609375 6.203125 
Q 37.796875 6.203125 41.984375 11.859375 
Q 46.1875 17.53125 46.1875 27.296875 
Q 46.1875 37.015625 41.984375 42.703125 
Q 37.796875 48.390625 30.609375 48.390625 
z
M 30.609375 56 
Q 42.328125 56 49.015625 48.375 
Q 55.71875 40.765625 55.71875 27.296875 
Q 55.71875 13.875 49.015625 6.21875 
Q 42.328125 -1.421875 30.609375 -1.421875 
Q 18.84375 -1.421875 12.171875 6.21875 
Q 5.515625 13.875 5.515625 27.296875 
Q 5.515625 40.765625 12.171875 48.375 
Q 18.84375 56 30.609375 56 
z
" id="DejaVuSans-111"/>
       <path d="M 54.890625 33.015625 
L 54.890625 0 
L 45.90625 0 
L 45.90625 32.71875 
Q 45.90625 40.484375 42.875 44.328125 
Q 39.84375 48.1875 33.796875 48.1875 
Q 26.515625 48.1875 22.3125 43.546875 
Q 18.109375 38.921875 18.109375 30.90625 
L 18.109375 0 
L 9.078125 0 
L 9.078125 54.6875 
L 18.109375 54.6875 
L 18.109375 46.1875 
Q 21.34375 51.125 25.703125 53.5625 
Q 30.078125 56 35.796875 56 
Q 45.21875 56 50.046875 50.171875 
Q 54.890625 44.34375 54.890625 33.015625 
z
" id="DejaVuSans-110"/>
      </defs>
      <use xlink:href="#DejaVuSans-69"/>
      <use x="63.183594" xlink:href="#DejaVuSans-112"/>
      <use x="126.660156" xlink:href="#DejaVuSans-115"/>
      <use x="178.759766" xlink:href="#DejaVuSans-105"/>
      <use x="206.542969" xlink:href="#DejaVuSans-108"/>
      <use x="234.326172" xlink:href="#DejaVuSans-111"/>
      <use x="295.507812" xlink:href="#DejaVuSans-110"/>
      <use x="358.886719" xlink:href="#DejaVuSans-47"/>
      <use x="392.578125" xlink:href="#DejaVuSans-69"/>
      <use x="455.761719" xlink:href="#DejaVuSans-48"/>
      <use x="519.384766" xlink:href="#DejaVuSans-49"/>
     </g>
    </g>
   </g>
   <g id="line2d_16">
    <path clip-path="url(#p6aacb96d64)" d="M 70.996307 32.09476 
L 74.039943 41.841399 
L 77.08358 48.772789 
L 80.127216 54.436814 
L 83.170852 59.311307 
L 86.214489 63.642337 
L 89.258125 67.578315 
L 92.301761 71.214379 
L 95.345398 74.613945 
L 98.389034 77.820904 
L 101.43267 80.866806 
L 104.476307 83.77515 
L 107.519943 86.564004 
L 110.56358 89.247634 
L 113.607216 91.837568 
L 116.650852 94.343297 
L 119.694489 96.772761 
L 122.738125 99.132691 
L 125.781761 101.428861 
L 128.825398 103.666271 
L 131.869034 105.849288 
L 134.91267 107.981756 
L 137.956307 110.067082 
L 140.999943 112.1083 
L 144.04358 114.108132 
L 147.087216 116.069025 
L 150.130852 117.993194 
L 153.174489 119.882651 
L 156.218125 121.739228 
L 159.261761 123.564601 
L 162.305398 125.360308 
L 165.349034 127.127763 
L 168.39267 128.868271 
L 171.436307 130.58304 
L 174.479943 132.273188 
L 177.52358 133.939756 
L 180.567216 135.583713 
L 183.610852 137.205961 
L 186.654489 138.807346 
L 189.698125 140.38866 
L 192.741761 141.950644 
L 195.785398 143.493995 
L 198.829034 145.019372 
L 201.87267 146.527392 
L 204.916307 148.018638 
L 207.959943 149.493662 
L 211.00358 150.952987 
L 214.047216 152.397107 
L 217.090852 153.826493 
L 220.134489 155.241585 
L 223.178125 156.642813 
L 226.221761 158.030571 
L 229.265398 159.40525 
L 232.309034 160.767219 
L 235.35267 162.116814 
L 238.396307 163.454375 
L 241.439943 164.780228 
L 244.48358 166.094664 
L 247.527216 167.39798 
L 250.570852 168.690485 
L 253.614489 169.972367 
L 256.658125 171.243952 
L 259.701761 172.505425 
L 262.745398 173.757148 
L 265.789034 174.99926 
L 268.83267 176.231914 
L 271.876307 177.45544 
L 274.919943 178.669957 
L 277.96358 179.875749 
L 281.007216 181.07327 
L 284.050852 182.261558 
L 287.094489 183.442274 
L 290.138125 184.614618 
L 293.181761 185.779143 
L 296.225398 186.93657 
L 299.269034 188.085769 
L 302.31267 189.227669 
L 305.356307 190.362539 
L 308.399943 191.489496 
L 311.44358 192.610335 
L 314.487216 193.72116 
L 317.530852 194.827868 
L 320.574489 195.92943 
L 323.618125 197.021836 
L 326.661761 198.111771 
L 329.705398 199.188892 
L 332.749034 200.268626 
L 335.79267 201.335722 
L 338.836307 202.39698 
L 341.879943 203.453127 
L 344.92358 204.513578 
L 347.967216 205.55846 
L 351.010852 206.593962 
L 354.054489 207.620213 
L 357.098125 208.645624 
L 360.141761 209.66427 
L 363.185398 210.705292 
L 366.229034 211.708494 
L 369.27267 212.710611 
L 372.316307 213.73341 
L 375.359943 214.756364 
" style="fill:none;stroke:#000000;stroke-linecap:square;stroke-width:1.5;"/>
   </g>
   <g id="line2d_17">
    <path clip-path="url(#p6aacb96d64)" d="M 70.996307 23.307558 
L 74.039943 30.221235 
L 77.08358 34.799893 
L 80.127216 38.64787 
L 83.170852 42.147084 
L 86.214489 45.424859 
L 89.258125 48.531974 
L 92.301761 51.494777 
L 95.345398 54.331212 
L 98.389034 57.05548 
L 101.43267 59.679439 
L 104.476307 62.213143 
L 107.519943 64.665175 
L 110.56358 67.042899 
L 113.607216 69.352672 
L 116.650852 71.600014 
L 119.694489 73.789747 
L 122.738125 75.926115 
L 125.781761 78.012868 
L 128.825398 80.053341 
L 131.869034 82.050514 
L 134.91267 84.007062 
L 137.956307 85.925398 
L 140.999943 87.807705 
L 144.04358 89.655968 
L 147.087216 91.471995 
L 150.130852 93.25744 
L 153.174489 95.013823 
L 156.218125 96.742538 
L 159.261761 98.444875 
L 162.305398 100.122025 
L 165.349034 101.775091 
L 168.39267 103.405099 
L 171.436307 105.013005 
L 174.479943 106.599698 
L 177.52358 108.166011 
L 180.567216 109.712722 
L 183.610852 111.240563 
L 186.654489 112.750219 
L 189.698125 114.242336 
L 192.741761 115.717521 
L 195.785398 117.176348 
L 198.829034 118.61936 
L 201.87267 120.047067 
L 204.916307 121.459956 
L 207.959943 122.858486 
L 211.00358 124.243094 
L 214.047216 125.614194 
L 217.090852 126.972181 
L 220.134489 128.317431 
L 223.178125 129.650302 
L 226.221761 130.971134 
L 229.265398 132.280254 
L 232.309034 133.577974 
L 235.35267 134.86459 
L 238.396307 136.140387 
L 241.439943 137.40564 
L 244.48358 138.660609 
L 247.527216 139.905544 
L 250.570852 141.140687 
L 253.614489 142.366271 
L 256.658125 143.582514 
L 259.701761 144.789634 
L 262.745398 145.987832 
L 265.789034 147.177311 
L 268.83267 148.35826 
L 271.876307 149.53086 
L 274.919943 150.695293 
L 277.96358 151.851724 
L 281.007216 153.000323 
L 284.050852 154.141254 
L 287.094489 155.274659 
L 290.138125 156.400698 
L 293.181761 157.519501 
L 296.225398 158.631224 
L 299.269034 159.736008 
L 302.31267 160.833953 
L 305.356307 161.925211 
L 308.399943 163.009887 
L 311.44358 164.088129 
L 314.487216 165.160011 
L 317.530852 166.225666 
L 320.574489 167.285256 
L 323.618125 168.338784 
L 326.661761 169.386405 
L 329.705398 170.428252 
L 332.749034 171.464373 
L 335.79267 172.494859 
L 338.836307 173.519725 
L 341.879943 174.539325 
L 344.92358 175.553512 
L 347.967216 176.562661 
L 351.010852 177.566053 
L 354.054489 178.56468 
L 357.098125 179.55848 
L 360.141761 180.547424 
L 363.185398 181.530955 
L 366.229034 182.510258 
L 369.27267 183.483915 
L 372.316307 184.453876 
L 375.359943 185.418474 
" style="fill:none;stroke:#0000ff;stroke-linecap:square;stroke-width:1.5;"/>
   </g>
   <g id="line2d_18">
    <path clip-path="url(#p6aacb96d64)" d="M 70.996307 19.228962 
L 74.039943 24.877465 
L 77.08358 28.185699 
L 80.127216 30.72043 
L 83.170852 32.900474 
L 86.214489 34.913563 
L 89.258125 36.85953 
L 92.301761 38.790795 
L 95.345398 40.73052 
L 98.389034 42.68402 
L 101.43267 44.647008 
L 104.476307 46.611366 
L 107.519943 48.568642 
L 110.56358 50.511723 
L 113.607216 52.435319 
L 116.650852 54.335843 
L 119.694489 56.211083 
L 122.738125 58.059844 
L 125.781761 59.881647 
L 128.825398 61.676502 
L 131.869034 63.444739 
L 134.91267 65.186897 
L 137.956307 66.903638 
L 140.999943 68.595699 
L 144.04358 70.263853 
L 147.087216 71.908883 
L 150.130852 73.53157 
L 153.174489 75.132677 
L 156.218125 76.712946 
L 159.261761 78.273097 
L 162.305398 79.813817 
L 165.349034 81.335767 
L 168.39267 82.839579 
L 171.436307 84.325857 
L 174.479943 85.795175 
L 177.52358 87.248082 
L 180.567216 88.685101 
L 183.610852 90.10673 
L 186.654489 91.513445 
L 189.698125 92.905698 
L 192.741761 94.283921 
L 195.785398 95.648526 
L 198.829034 96.999906 
L 201.87267 98.338438 
L 204.916307 99.66448 
L 207.959943 100.978376 
L 211.00358 102.280453 
L 214.047216 103.571027 
L 217.090852 104.850398 
L 220.134489 106.118854 
L 223.178125 107.376673 
L 226.221761 108.624118 
L 229.265398 109.861446 
L 232.309034 111.088901 
L 235.35267 112.306718 
L 238.396307 113.515122 
L 241.439943 114.714332 
L 244.48358 115.904556 
L 247.527216 117.085997 
L 250.570852 118.258847 
L 253.614489 119.423296 
L 256.658125 120.579523 
L 259.701761 121.727702 
L 262.745398 122.868002 
L 265.789034 124.000586 
L 268.83267 125.125609 
L 271.876307 126.243225 
L 274.919943 127.353579 
L 277.96358 128.456815 
L 281.007216 129.553068 
L 284.050852 130.642473 
L 287.094489 131.725159 
L 290.138125 132.801249 
L 293.181761 133.870866 
L 296.225398 134.934127 
L 299.269034 135.991146 
L 302.31267 137.042034 
L 305.356307 138.086897 
L 308.399943 139.12584 
L 311.44358 140.158964 
L 314.487216 141.18637 
L 317.530852 142.20815 
L 320.574489 143.224399 
L 323.618125 144.235208 
L 326.661761 145.240662 
L 329.705398 146.240849 
L 332.749034 147.235856 
L 335.79267 148.225755 
L 338.836307 149.210637 
L 341.879943 150.190571 
L 344.92358 151.165631 
L 347.967216 152.135888 
L 351.010852 153.101429 
L 354.054489 154.062315 
L 357.098125 155.018612 
L 360.141761 155.97038 
L 363.185398 156.9177 
L 366.229034 157.860613 
L 369.27267 158.799198 
L 372.316307 159.733505 
L 375.359943 160.663611 
" style="fill:none;stroke:#ff0000;stroke-linecap:square;stroke-width:1.5;"/>
   </g>
   <g id="line2d_19">
    <path clip-path="url(#p6aacb96d64)" d="M 70.996307 17.083636 
L 74.039943 22.32564 
L 77.08358 25.049161 
L 80.127216 26.919788 
L 83.170852 28.39625 
L 86.214489 29.675278 
L 89.258125 30.85635 
L 92.301761 31.994227 
L 95.345398 33.121277 
L 98.389034 34.257948 
L 101.43267 35.417692 
L 104.476307 36.609235 
L 107.519943 37.837595 
L 110.56358 39.104608 
L 113.607216 40.409352 
L 116.650852 41.748668 
L 119.694489 43.117807 
L 122.738125 44.51114 
L 125.781761 45.922798 
L 128.825398 47.347176 
L 131.869034 48.779252 
L 134.91267 50.214736 
L 137.956307 51.650094 
L 140.999943 53.082499 
L 144.04358 54.509741 
L 147.087216 55.930122 
L 150.130852 57.342364 
L 153.174489 58.745517 
L 156.218125 60.138898 
L 159.261761 61.522023 
L 162.305398 62.894567 
L 165.349034 64.256328 
L 168.39267 65.607197 
L 171.436307 66.947137 
L 174.479943 68.276167 
L 177.52358 69.594349 
L 180.567216 70.901777 
L 183.610852 72.198569 
L 186.654489 73.484861 
L 189.698125 74.760804 
L 192.741761 76.026558 
L 195.785398 77.282289 
L 198.829034 78.52817 
L 201.87267 79.764373 
L 204.916307 80.991073 
L 207.959943 82.208446 
L 211.00358 83.416666 
L 214.047216 84.615904 
L 217.090852 85.806331 
L 220.134489 86.988115 
L 223.178125 88.161419 
L 226.221761 89.326407 
L 229.265398 90.483236 
L 232.309034 91.632061 
L 235.35267 92.773033 
L 238.396307 93.906301 
L 241.439943 95.032008 
L 244.48358 96.150294 
L 247.527216 97.261299 
L 250.570852 98.365154 
L 253.614489 99.461991 
L 256.658125 100.551936 
L 259.701761 101.635114 
L 262.745398 102.711644 
L 265.789034 103.781644 
L 268.83267 104.845229 
L 271.876307 105.902509 
L 274.919943 106.953594 
L 277.96358 107.998588 
L 281.007216 109.037596 
L 284.050852 110.070716 
L 287.094489 111.098047 
L 290.138125 112.119684 
L 293.181761 113.135719 
L 296.225398 114.146244 
L 299.269034 115.151346 
L 302.31267 116.151111 
L 305.356307 117.145623 
L 308.399943 118.134964 
L 311.44358 119.119213 
L 314.487216 120.098449 
L 317.530852 121.072746 
L 320.574489 122.042181 
L 323.618125 123.006823 
L 326.661761 123.966745 
L 329.705398 124.922015 
L 332.749034 125.8727 
L 335.79267 126.818867 
L 338.836307 127.760579 
L 341.879943 128.697899 
L 344.92358 129.630888 
L 347.967216 130.559607 
L 351.010852 131.484115 
L 354.054489 132.404467 
L 357.098125 133.320721 
L 360.141761 134.232932 
L 363.185398 135.141152 
L 366.229034 136.045435 
L 369.27267 136.945831 
L 372.316307 137.842392 
L 375.359943 138.735165 
" style="fill:none;stroke:#008000;stroke-linecap:square;stroke-width:1.5;"/>
   </g>
   <g id="patch_3">
    <path d="M 55.778125 224.64 
L 55.778125 7.2 
" style="fill:none;stroke:#000000;stroke-linecap:square;stroke-linejoin:miter;stroke-width:0.8;"/>
   </g>
   <g id="patch_4">
    <path d="M 390.578125 224.64 
L 390.578125 7.2 
" style="fill:none;stroke:#000000;stroke-linecap:square;stroke-linejoin:miter;stroke-width:0.8;"/>
   </g>
   <g id="patch_5">
    <path d="M 55.778125 224.64 
L 390.578125 224.64 
" style="fill:none;stroke:#000000;stroke-linecap:square;stroke-linejoin:miter;stroke-width:0.8;"/>
   </g>
   <g id="patch_6">
    <path d="M 55.778125 7.2 
L 390.578125 7.2 
" style="fill:none;stroke:#000000;stroke-linecap:square;stroke-linejoin:miter;stroke-width:0.8;"/>
   </g>
   <g id="legend_1">
    <g id="patch_7">
     <path d="M 314.9875 88.590625 
L 383.578125 88.590625 
Q 385.578125 88.590625 385.578125 86.590625 
L 385.578125 14.2 
Q 385.578125 12.2 383.578125 12.2 
L 314.9875 12.2 
Q 312.9875 12.2 312.9875 14.2 
L 312.9875 86.590625 
Q 312.9875 88.590625 314.9875 88.590625 
z
" style="fill:#ffffff;opacity:0.8;stroke:#cccccc;stroke-linejoin:miter;"/>
    </g>
    <g id="text_18">
     <!-- Energy Level -->
     <g transform="translate(316.9875 23.798437)scale(0.1 -0.1)">
      <defs>
       <path d="M 56.203125 29.59375 
L 56.203125 25.203125 
L 14.890625 25.203125 
Q 15.484375 15.921875 20.484375 11.0625 
Q 25.484375 6.203125 34.421875 6.203125 
Q 39.59375 6.203125 44.453125 7.46875 
Q 49.3125 8.734375 54.109375 11.28125 
L 54.109375 2.78125 
Q 49.265625 0.734375 44.1875 -0.34375 
Q 39.109375 -1.421875 33.890625 -1.421875 
Q 20.796875 -1.421875 13.15625 6.1875 
Q 5.515625 13.8125 5.515625 26.8125 
Q 5.515625 40.234375 12.765625 48.109375 
Q 20.015625 56 32.328125 56 
Q 43.359375 56 49.78125 48.890625 
Q 56.203125 41.796875 56.203125 29.59375 
z
M 47.21875 32.234375 
Q 47.125 39.59375 43.09375 43.984375 
Q 39.0625 48.390625 32.421875 48.390625 
Q 24.90625 48.390625 20.390625 44.140625 
Q 15.875 39.890625 15.1875 32.171875 
z
" id="DejaVuSans-101"/>
       <path d="M 41.109375 46.296875 
Q 39.59375 47.171875 37.8125 47.578125 
Q 36.03125 48 33.890625 48 
Q 26.265625 48 22.1875 43.046875 
Q 18.109375 38.09375 18.109375 28.8125 
L 18.109375 0 
L 9.078125 0 
L 9.078125 54.6875 
L 18.109375 54.6875 
L 18.109375 46.1875 
Q 20.953125 51.171875 25.484375 53.578125 
Q 30.03125 56 36.53125 56 
Q 37.453125 56 38.578125 55.875 
Q 39.703125 55.765625 41.0625 55.515625 
z
" id="DejaVuSans-114"/>
       <path d="M 45.40625 27.984375 
Q 45.40625 37.75 41.375 43.109375 
Q 37.359375 48.484375 30.078125 48.484375 
Q 22.859375 48.484375 18.828125 43.109375 
Q 14.796875 37.75 14.796875 27.984375 
Q 14.796875 18.265625 18.828125 12.890625 
Q 22.859375 7.515625 30.078125 7.515625 
Q 37.359375 7.515625 41.375 12.890625 
Q 45.40625 18.265625 45.40625 27.984375 
z
M 54.390625 6.78125 
Q 54.390625 -7.171875 48.1875 -13.984375 
Q 42 -20.796875 29.203125 -20.796875 
Q 24.46875 -20.796875 20.265625 -20.09375 
Q 16.0625 -19.390625 12.109375 -17.921875 
L 12.109375 -9.1875 
Q 16.0625 -11.328125 19.921875 -12.34375 
Q 23.78125 -13.375 27.78125 -13.375 
Q 36.625 -13.375 41.015625 -8.765625 
Q 45.40625 -4.15625 45.40625 5.171875 
L 45.40625 9.625 
Q 42.625 4.78125 38.28125 2.390625 
Q 33.9375 0 27.875 0 
Q 17.828125 0 11.671875 7.65625 
Q 5.515625 15.328125 5.515625 27.984375 
Q 5.515625 40.671875 11.671875 48.328125 
Q 17.828125 56 27.875 56 
Q 33.9375 56 38.28125 53.609375 
Q 42.625 51.21875 45.40625 46.390625 
L 45.40625 54.6875 
L 54.390625 54.6875 
z
" id="DejaVuSans-103"/>
       <path d="M 32.171875 -5.078125 
Q 28.375 -14.84375 24.75 -17.8125 
Q 21.140625 -20.796875 15.09375 -20.796875 
L 7.90625 -20.796875 
L 7.90625 -13.28125 
L 13.1875 -13.28125 
Q 16.890625 -13.28125 18.9375 -11.515625 
Q 21 -9.765625 23.484375 -3.21875 
L 25.09375 0.875 
L 2.984375 54.6875 
L 12.5 54.6875 
L 29.59375 11.921875 
L 46.6875 54.6875 
L 56.203125 54.6875 
z
" id="DejaVuSans-121"/>
       <path id="DejaVuSans-32"/>
       <path d="M 9.8125 72.90625 
L 19.671875 72.90625 
L 19.671875 8.296875 
L 55.171875 8.296875 
L 55.171875 0 
L 9.8125 0 
z
" id="DejaVuSans-76"/>
       <path d="M 2.984375 54.6875 
L 12.5 54.6875 
L 29.59375 8.796875 
L 46.6875 54.6875 
L 56.203125 54.6875 
L 35.6875 0 
L 23.484375 0 
z
" id="DejaVuSans-118"/>
      </defs>
      <use xlink:href="#DejaVuSans-69"/>
      <use x="63.183594" xlink:href="#DejaVuSans-110"/>
      <use x="126.5625" xlink:href="#DejaVuSans-101"/>
      <use x="188.085938" xlink:href="#DejaVuSans-114"/>
      <use x="227.449219" xlink:href="#DejaVuSans-103"/>
      <use x="290.925781" xlink:href="#DejaVuSans-121"/>
      <use x="350.105469" xlink:href="#DejaVuSans-32"/>
      <use x="381.892578" xlink:href="#DejaVuSans-76"/>
      <use x="435.855469" xlink:href="#DejaVuSans-101"/>
      <use x="497.378906" xlink:href="#DejaVuSans-118"/>
      <use x="556.558594" xlink:href="#DejaVuSans-101"/>
      <use x="618.082031" xlink:href="#DejaVuSans-108"/>
     </g>
    </g>
    <g id="line2d_20">
     <path d="M 323.041406 34.976562 
L 343.041406 34.976562 
" style="fill:none;stroke:#000000;stroke-linecap:square;stroke-width:1.5;"/>
    </g>
    <g id="line2d_21"/>
    <g id="text_19">
     <!-- m=0 -->
     <g transform="translate(351.041406 38.476562)scale(0.1 -0.1)">
      <defs>
       <path d="M 52 44.1875 
Q 55.375 50.25 60.0625 53.125 
Q 64.75 56 71.09375 56 
Q 79.640625 56 84.28125 50.015625 
Q 88.921875 44.046875 88.921875 33.015625 
L 88.921875 0 
L 79.890625 0 
L 79.890625 32.71875 
Q 79.890625 40.578125 77.09375 44.375 
Q 74.3125 48.1875 68.609375 48.1875 
Q 61.625 48.1875 57.5625 43.546875 
Q 53.515625 38.921875 53.515625 30.90625 
L 53.515625 0 
L 44.484375 0 
L 44.484375 32.71875 
Q 44.484375 40.625 41.703125 44.40625 
Q 38.921875 48.1875 33.109375 48.1875 
Q 26.21875 48.1875 22.15625 43.53125 
Q 18.109375 38.875 18.109375 30.90625 
L 18.109375 0 
L 9.078125 0 
L 9.078125 54.6875 
L 18.109375 54.6875 
L 18.109375 46.1875 
Q 21.1875 51.21875 25.484375 53.609375 
Q 29.78125 56 35.6875 56 
Q 41.65625 56 45.828125 52.96875 
Q 50 49.953125 52 44.1875 
z
" id="DejaVuSans-109"/>
       <path d="M 10.59375 45.40625 
L 73.1875 45.40625 
L 73.1875 37.203125 
L 10.59375 37.203125 
z
M 10.59375 25.484375 
L 73.1875 25.484375 
L 73.1875 17.1875 
L 10.59375 17.1875 
z
" id="DejaVuSans-61"/>
      </defs>
      <use xlink:href="#DejaVuSans-109"/>
      <use x="97.412109" xlink:href="#DejaVuSans-61"/>
      <use x="181.201172" xlink:href="#DejaVuSans-48"/>
     </g>
    </g>
    <g id="line2d_22">
     <path d="M 323.041406 49.654687 
L 343.041406 49.654687 
" style="fill:none;stroke:#0000ff;stroke-linecap:square;stroke-width:1.5;"/>
    </g>
    <g id="line2d_23"/>
    <g id="text_20">
     <!-- m=1 -->
     <g transform="translate(351.041406 53.154687)scale(0.1 -0.1)">
      <use xlink:href="#DejaVuSans-109"/>
      <use x="97.412109" xlink:href="#DejaVuSans-61"/>
      <use x="181.201172" xlink:href="#DejaVuSans-49"/>
     </g>
    </g>
    <g id="line2d_24">
     <path d="M 323.041406 64.332812 
L 343.041406 64.332812 
" style="fill:none;stroke:#ff0000;stroke-linecap:square;stroke-width:1.5;"/>
    </g>
    <g id="line2d_25"/>
    <g id="text_21">
     <!-- m=2 -->
     <g transform="translate(351.041406 67.832812)scale(0.1 -0.1)">
      <use xlink:href="#DejaVuSans-109"/>
      <use x="97.412109" xlink:href="#DejaVuSans-61"/>
      <use x="181.201172" xlink:href="#DejaVuSans-50"/>
     </g>
    </g>
    <g id="line2d_26">
     <path d="M 323.041406 79.010937 
L 343.041406 79.010937 
" style="fill:none;stroke:#008000;stroke-linecap:square;stroke-width:1.5;"/>
    </g>
    <g id="line2d_27"/>
    <g id="text_22">
     <!-- m=3 -->
     <g transform="translate(351.041406 82.510937)scale(0.1 -0.1)">
      <defs>
       <path d="M 40.578125 39.3125 
Q 47.65625 37.796875 51.625 33 
Q 55.609375 28.21875 55.609375 21.1875 
Q 55.609375 10.40625 48.1875 4.484375 
Q 40.765625 -1.421875 27.09375 -1.421875 
Q 22.515625 -1.421875 17.65625 -0.515625 
Q 12.796875 0.390625 7.625 2.203125 
L 7.625 11.71875 
Q 11.71875 9.328125 16.59375 8.109375 
Q 21.484375 6.890625 26.8125 6.890625 
Q 36.078125 6.890625 40.9375 10.546875 
Q 45.796875 14.203125 45.796875 21.1875 
Q 45.796875 27.640625 41.28125 31.265625 
Q 36.765625 34.90625 28.71875 34.90625 
L 20.21875 34.90625 
L 20.21875 43.015625 
L 29.109375 43.015625 
Q 36.375 43.015625 40.234375 45.921875 
Q 44.09375 48.828125 44.09375 54.296875 
Q 44.09375 59.90625 40.109375 62.90625 
Q 36.140625 65.921875 28.71875 65.921875 
Q 24.65625 65.921875 20.015625 65.03125 
Q 15.375 64.15625 9.8125 62.3125 
L 9.8125 71.09375 
Q 15.4375 72.65625 20.34375 73.4375 
Q 25.25 74.21875 29.59375 74.21875 
Q 40.828125 74.21875 47.359375 69.109375 
Q 53.90625 64.015625 53.90625 55.328125 
Q 53.90625 49.265625 50.4375 45.09375 
Q 46.96875 40.921875 40.578125 39.3125 
z
" id="DejaVuSans-51"/>
      </defs>
      <use xlink:href="#DejaVuSans-109"/>
      <use x="97.412109" xlink:href="#DejaVuSans-61"/>
      <use x="181.201172" xlink:href="#DejaVuSans-51"/>
     </g>
    </g>
   </g>
  </g>
 </g>
 <defs>
  <clipPath id="p6aacb96d64">
   <rect height="217.44" width="334.8" x="55.778125" y="7.2"/>
  </clipPath>
 </defs>
</svg>
