<svg xmlns="http://www.w3.org/2000/svg" xmlns:xlink="http://www.w3.org/1999/xlink" width="100.0" height="100.0" viewBox="-1.08 -1.08 2.16 2.16" preserveAspectRatio="xMinYMin meet"><g transform="matrix(1,0,0,-1,0,0.0)"><path fill-rule="evenodd" fill="#66cc99" stroke="#555555" stroke-width="0.0432" opacity="0.6" d="M 1.0,0.0 L 0.9951847266721969,-0.0980171403295605 L 0.9807852804032305,-0.19509032201612808 L 0.9569403357322089,-0.2902846772544621 L 0.923879532511287,-0.3826834323650894 L 0.8819212643483553,-0.4713967368259972 L 0.8314696123025456,-0.5555702330196017 L 0.7730104533627374,-0.6343932841636449 L 0.7071067811865481,-0.7071067811865469 L 0.6343932841636462,-0.7730104533627363 L 0.5555702330196031,-0.8314696123025447 L 0.4713967368259986,-0.8819212643483545 L 0.38268343236509084,-0.9238795325112863 L 0.2902846772544636,-0.9569403357322085 L 0.19509032201612964,-0.9807852804032302 L 0.09801714032956209,-0.9951847266721967 L 1.6155445744325867e-15,-1.0 L -0.09801714032955888,-0.995184726672197 L -0.19509032201612647,-0.9807852804032308 L -0.2902846772544605,-0.9569403357322095 L -0.38268343236508784,-0.9238795325112875 L -0.4713967368259957,-0.881921264348356 L -0.5555702330196005,-0.8314696123025463 L -0.6343932841636439,-0.7730104533627382 L -0.7071067811865462,-0.7071067811865489 L -0.7730104533627359,-0.6343932841636468 L -0.8314696123025443,-0.5555702330196036 L -0.8819212643483543,-0.47139673682599903 L -0.9238795325112862,-0.3826834323650911 L -0.9569403357322085,-0.29028467725446366 L -0.9807852804032302,-0.19509032201612947 L -0.9951847266721968,-0.09801714032956171 L -1.0,-1.0106430996148606e-15 L -0.9951847266721969,0.0980171403295597 L -0.9807852804032307,0.1950903220161275 L -0.956940335732209,0.2902846772544617 L -0.923879532511287,0.3826834323650892 L -0.8819212643483553,0.47139673682599725 L -0.8314696123025455,0.555570233019602 L -0.7730104533627371,0.6343932841636453 L -0.7071067811865477,0.7071067811865475 L -0.6343932841636459,0.7730104533627367 L -0.555570233019603,0.8314696123025448 L -0.4713967368259987,0.8819212643483545 L -0.38268343236509117,0.9238795325112862 L -0.2902846772544641,0.9569403357322084 L -0.1950903220161304,0.98078528040323 L -0.0980171403295631,0.9951847266721966 L -2.848232278972479e-15,1.0 L 0.09801714032955743,0.9951847266721972 L 0.1950903220161248,0.9807852804032311 L 0.29028467725445867,0.9569403357322099 L 0.3826834323650859,0.9238795325112884 L 0.47139673682599365,0.8819212643483572 L 0.5555702330195982,0.8314696123025479 L 0.6343932841636415,0.7730104533627402 L 0.7071067811865436,0.7071067811865515 L 0.7730104533627332,0.63439328416365 L 0.8314696123025418,0.5555702330196074 L 0.8819212643483519,0.4713967368260034 L 0.9238795325112841,0.38268343236509617 L 0.9569403357322067,0.29028467725446927 L 0.980785280403229,0.1950903220161357 L 0.9951847266721962,0.09801714032956847 L 1.0,8.238535137130597e-15 L 1.0,0.0 z M 0.7413029668566793,-0.3 L -0.7413029668566793,-0.3 L -0.739103626009029,-0.3061467458920729 L -0.7055370114786834,-0.37711738946079926 L -0.6651756898420356,-0.4444561864156829 L -0.6184083626901887,-0.5075146273309175 L -0.565685424949237,-0.5656854249492391 L -0.5075146273309151,-0.6184083626901906 L -0.4444561864156804,-0.6651756898420371 L -0.3771173894607966,-0.7055370114786849 L -0.3061467458920703,-0.73910362600903 L -0.23222774180356842,-0.7655522685857676 L -0.1560722576129012,-0.7846282243225846 L -0.07841371226364711,-0.7961477813377577 L 1.2924356595460695e-15,-0.8 L 0.07841371226364968,-0.7961477813377574 L 0.15607225761290372,-0.7846282243225842 L 0.2322277418035709,-0.7655522685857669 L 0.3061467458920727,-0.7391036260090291 L 0.37711738946079887,-0.7055370114786836 L 0.44445618641568246,-0.6651756898420358 L 0.5075146273309169,-0.6184083626901891 L 0.5656854249492386,-0.5656854249492376 L 0.61840836269019,-0.507514627330916 L 0.6651756898420365,-0.4444561864156814 L 0.7055370114786843,-0.37711738946079776 L 0.7391036260090296,-0.3061467458920715 L 0.7413029668566793,-0.3 z M 0.6000000000000001,0.4 L 0.6000000000000001,0.4000000000000017 L 0.5990369453344393,0.4196034280659137 L 0.5961570560806458,0.43901806440322716 L 0.5913880671464413,0.4580569354508939 L 0.5847759065022569,0.4765366864730193 L 0.5763842528696704,0.49427934736520074 L 0.5662939224605084,0.5111140466039215 L 0.5546020906725466,0.52687865683273 L 0.5414213562373087,0.5414213562373104 L 0.5268786568327284,0.5546020906725481 L 0.5111140466039197,0.5662939224605096 L 0.49427934736519874,0.5763842528696714 L 0.4765366864730172,0.5847759065022577 L 0.45805693545089177,0.591388067146442 L 0.439018064403225,0.5961570560806463 L 0.4196034280659115,0.5990369453344395 L 0.39999999999999947,0.6000000000000001 L 0.3803965719340874,0.5990369453344393 L 0.36098193559677394,0.5961570560806461 L 0.34194306454910717,0.5913880671464418 L 0.32346331352698177,0.5847759065022573 L 0.3057206526348003,0.576384252869671 L 0.2888859533960794,0.566293922460509 L 0.2731213431672708,0.5546020906725474 L 0.25857864376269046,0.5414213562373096 L 0.2453979093274526,0.526878656832729 L 0.2337060775394909,0.5111140466039205 L 0.22361574713032895,0.49427934736519946 L 0.21522409349774263,0.4765366864730179 L 0.2086119328535582,0.4580569354508924 L 0.20384294391935387,0.43901806440322555 L 0.20096305466556064,0.41960342806591194 L 0.2,0.3999999999999998 L 0.20096305466556064,0.38039657193408766 L 0.20384294391935398,0.3609819355967741 L 0.2086119328535583,0.3419430645491073 L 0.21522409349774277,0.32346331352698177 L 0.22361574713032917,0.3057206526348002 L 0.23370607753949113,0.2888859533960793 L 0.24539790932745284,0.27312134316727066 L 0.2585786437626908,0.25857864376269024 L 0.2731213431672712,0.24539790932745237 L 0.2888859533960799,0.23370607753949074 L 0.30572065263480086,0.2236157471303288 L 0.32346331352698243,0.21522409349774252 L 0.34194306454910794,0.2086119328535581 L 0.3609819355967747,0.20384294391935387 L 0.38039657193408827,0.2009630546655606 L 0.40000000000000036,0.2 L 0.41960342806591244,0.20096305466556066 L 0.43901806440322594,0.20384294391935398 L 0.45805693545089277,0.2086119328535583 L 0.47653668647301817,0.21522409349774274 L 0.49427934736519974,0.2236157471303291 L 0.5111140466039207,0.23370607753949107 L 0.5268786568327293,0.24539790932745276 L 0.5414213562373097,0.25857864376269063 L 0.5546020906725475,0.273121343167271 L 0.5662939224605091,0.2888859533960797 L 0.5763842528696711,0.3057206526348006 L 0.5847759065022574,0.32346331352698215 L 0.5913880671464418,0.3419430645491076 L 0.5961570560806462,0.3609819355967744 L 0.5990369453344394,0.38039657193408793 L 0.6000000000000001,0.4 z M -0.2,0.4 L -0.2,0.4000000000000017 L -0.20096305466556078,0.4196034280659137 L -0.2038429439193542,0.43901806440322716 L -0.20861193285355867,0.4580569354508939 L -0.21522409349774319,0.4765366864730193 L -0.2236157471303296,0.49427934736520074 L -0.23370607753949166,0.5111140466039215 L -0.24539790932745337,0.52687865683273 L -0.2585786437626913,0.5414213562373104 L -0.2731213431672717,0.5546020906725481 L -0.28888595339608036,0.5662939224605096 L -0.3057206526348013,0.5763842528696714 L -0.3234633135269828,0.5847759065022577 L -0.3419430645491083,0.591388067146442 L -0.36098193559677505,0.5961570560806463 L -0.38039657193408855,0.5990369453344395 L -0.4000000000000006,0.6000000000000001 L -0.41960342806591266,0.5990369453344393 L -0.4390180644032261,0.5961570560806461 L -0.4580569354508929,0.5913880671464418 L -0.4765366864730183,0.5847759065022573 L -0.49427934736519974,0.576384252869671 L -0.5111140466039206,0.566293922460509 L -0.5268786568327293,0.5546020906725474 L -0.5414213562373096,0.5414213562373096 L -0.5546020906725475,0.526878656832729 L -0.5662939224605091,0.5111140466039205 L -0.5763842528696711,0.49427934736519946 L -0.5847759065022574,0.4765366864730179 L -0.5913880671464419,0.4580569354508924 L -0.5961570560806462,0.43901806440322555 L -0.5990369453344394,0.41960342806591194 L -0.6000000000000001,0.3999999999999998 L -0.5990369453344394,0.38039657193408766 L -0.5961570560806461,0.3609819355967741 L -0.5913880671464418,0.3419430645491073 L -0.5847759065022573,0.32346331352698177 L -0.5763842528696709,0.3057206526348002 L -0.5662939224605089,0.2888859533960793 L -0.5546020906725472,0.27312134316727066 L -0.5414213562373092,0.25857864376269024 L -0.5268786568327288,0.24539790932745237 L -0.5111140466039201,0.23370607753949074 L -0.4942793473651992,0.2236157471303288 L -0.4765366864730176,0.21522409349774252 L -0.4580569354508921,0.2086119328535581 L -0.4390180644032253,0.20384294391935387 L -0.4196034280659118,0.2009630546655606 L -0.3999999999999997,0.2 L -0.3803965719340876,0.20096305466556066 L -0.3609819355967741,0.20384294391935398 L -0.3419430645491073,0.2086119328535583 L -0.3234633135269819,0.21522409349774274 L -0.3057206526348003,0.2236157471303291 L -0.2888859533960794,0.23370607753949107 L -0.27312134316727077,0.24539790932745276 L -0.25857864376269035,0.25857864376269063 L -0.24539790932745253,0.273121343167271 L -0.2337060775394909,0.2888859533960797 L -0.22361574713032895,0.3057206526348006 L -0.21522409349774263,0.32346331352698215 L -0.20861193285355822,0.3419430645491076 L -0.2038429439193539,0.3609819355967744 L -0.20096305466556064,0.38039657193408793 L -0.2,0.4 z" /></g></svg>