<?xml version="1.0" encoding="utf-8" standalone="no"?>
<!DOCTYPE svg PUBLIC "-//W3C//DTD SVG 1.1//EN"
  "http://www.w3.org/Graphics/SVG/1.1/DTD/svg11.dtd">
<!-- Created with matplotlib (https://matplotlib.org/) -->
<svg height="262.19625pt" version="1.1" viewBox="0 0 382.603125 262.19625" width="382.603125pt" xmlns="http://www.w3.org/2000/svg" xmlns:xlink="http://www.w3.org/1999/xlink">
 <metadata>
  <rdf:RDF xmlns:cc="http://creativecommons.org/ns#" xmlns:dc="http://purl.org/dc/elements/1.1/" xmlns:rdf="http://www.w3.org/1999/02/22-rdf-syntax-ns#">
   <cc:Work>
    <dc:type rdf:resource="http://purl.org/dc/dcmitype/StillImage"/>
    <dc:date>2021-08-20T09:19:23.750519</dc:date>
    <dc:format>image/svg+xml</dc:format>
    <dc:creator>
     <cc:Agent>
      <dc:title>Matplotlib v3.3.3, https://matplotlib.org/</dc:title>
     </cc:Agent>
    </dc:creator>
   </cc:Work>
  </rdf:RDF>
 </metadata>
 <defs>
  <style type="text/css">*{stroke-linecap:butt;stroke-linejoin:round;}</style>
 </defs>
 <g id="figure_1">
  <g id="patch_1">
   <path d="M 0 262.19625 
L 382.603125 262.19625 
L 382.603125 0 
L 0 0 
z
" style="fill:none;"/>
  </g>
  <g id="axes_1">
   <g id="patch_2">
    <path d="M 40.603125 224.64 
L 375.403125 224.64 
L 375.403125 7.2 
L 40.603125 7.2 
z
" style="fill:#ffffff;"/>
   </g>
   <g id="matplotlib.axis_1">
    <g id="xtick_1">
     <g id="line2d_1">
      <defs>
       <path d="M 0 0 
L 0 3.5 
" id="m90decd7ff4" style="stroke:#000000;stroke-width:0.8;"/>
      </defs>
      <g>
       <use style="stroke:#000000;stroke-width:0.8;" x="53.63164" xlink:href="#m90decd7ff4" y="224.64"/>
      </g>
     </g>
     <g id="text_1">
      <!-- 0 -->
      <g transform="translate(50.45039 239.238437)scale(0.1 -0.1)">
       <defs>
        <path d="M 31.78125 66.40625 
Q 24.171875 66.40625 20.328125 58.90625 
Q 16.5 51.421875 16.5 36.375 
Q 16.5 21.390625 20.328125 13.890625 
Q 24.171875 6.390625 31.78125 6.390625 
Q 39.453125 6.390625 43.28125 13.890625 
Q 47.125 21.390625 47.125 36.375 
Q 47.125 51.421875 43.28125 58.90625 
Q 39.453125 66.40625 31.78125 66.40625 
z
M 31.78125 74.21875 
Q 44.046875 74.21875 50.515625 64.515625 
Q 56.984375 54.828125 56.984375 36.375 
Q 56.984375 17.96875 50.515625 8.265625 
Q 44.046875 -1.421875 31.78125 -1.421875 
Q 19.53125 -1.421875 13.0625 8.265625 
Q 6.59375 17.96875 6.59375 36.375 
Q 6.59375 54.828125 13.0625 64.515625 
Q 19.53125 74.21875 31.78125 74.21875 
z
" id="DejaVuSans-48"/>
       </defs>
       <use xlink:href="#DejaVuSans-48"/>
      </g>
     </g>
    </g>
    <g id="xtick_2">
     <g id="line2d_2">
      <g>
       <use style="stroke:#000000;stroke-width:0.8;" x="97.424969" xlink:href="#m90decd7ff4" y="224.64"/>
      </g>
     </g>
     <g id="text_2">
      <!-- 20 -->
      <g transform="translate(91.062469 239.238437)scale(0.1 -0.1)">
       <defs>
        <path d="M 19.1875 8.296875 
L 53.609375 8.296875 
L 53.609375 0 
L 7.328125 0 
L 7.328125 8.296875 
Q 12.9375 14.109375 22.625 23.890625 
Q 32.328125 33.6875 34.8125 36.53125 
Q 39.546875 41.84375 41.421875 45.53125 
Q 43.3125 49.21875 43.3125 52.78125 
Q 43.3125 58.59375 39.234375 62.25 
Q 35.15625 65.921875 28.609375 65.921875 
Q 23.96875 65.921875 18.8125 64.3125 
Q 13.671875 62.703125 7.8125 59.421875 
L 7.8125 69.390625 
Q 13.765625 71.78125 18.9375 73 
Q 24.125 74.21875 28.421875 74.21875 
Q 39.75 74.21875 46.484375 68.546875 
Q 53.21875 62.890625 53.21875 53.421875 
Q 53.21875 48.921875 51.53125 44.890625 
Q 49.859375 40.875 45.40625 35.40625 
Q 44.1875 33.984375 37.640625 27.21875 
Q 31.109375 20.453125 19.1875 8.296875 
z
" id="DejaVuSans-50"/>
       </defs>
       <use xlink:href="#DejaVuSans-50"/>
       <use x="63.623047" xlink:href="#DejaVuSans-48"/>
      </g>
     </g>
    </g>
    <g id="xtick_3">
     <g id="line2d_3">
      <g>
       <use style="stroke:#000000;stroke-width:0.8;" x="141.218298" xlink:href="#m90decd7ff4" y="224.64"/>
      </g>
     </g>
     <g id="text_3">
      <!-- 40 -->
      <g transform="translate(134.855798 239.238437)scale(0.1 -0.1)">
       <defs>
        <path d="M 37.796875 64.3125 
L 12.890625 25.390625 
L 37.796875 25.390625 
z
M 35.203125 72.90625 
L 47.609375 72.90625 
L 47.609375 25.390625 
L 58.015625 25.390625 
L 58.015625 17.1875 
L 47.609375 17.1875 
L 47.609375 0 
L 37.796875 0 
L 37.796875 17.1875 
L 4.890625 17.1875 
L 4.890625 26.703125 
z
" id="DejaVuSans-52"/>
       </defs>
       <use xlink:href="#DejaVuSans-52"/>
       <use x="63.623047" xlink:href="#DejaVuSans-48"/>
      </g>
     </g>
    </g>
    <g id="xtick_4">
     <g id="line2d_4">
      <g>
       <use style="stroke:#000000;stroke-width:0.8;" x="185.011627" xlink:href="#m90decd7ff4" y="224.64"/>
      </g>
     </g>
     <g id="text_4">
      <!-- 60 -->
      <g transform="translate(178.649127 239.238437)scale(0.1 -0.1)">
       <defs>
        <path d="M 33.015625 40.375 
Q 26.375 40.375 22.484375 35.828125 
Q 18.609375 31.296875 18.609375 23.390625 
Q 18.609375 15.53125 22.484375 10.953125 
Q 26.375 6.390625 33.015625 6.390625 
Q 39.65625 6.390625 43.53125 10.953125 
Q 47.40625 15.53125 47.40625 23.390625 
Q 47.40625 31.296875 43.53125 35.828125 
Q 39.65625 40.375 33.015625 40.375 
z
M 52.59375 71.296875 
L 52.59375 62.3125 
Q 48.875 64.0625 45.09375 64.984375 
Q 41.3125 65.921875 37.59375 65.921875 
Q 27.828125 65.921875 22.671875 59.328125 
Q 17.53125 52.734375 16.796875 39.40625 
Q 19.671875 43.65625 24.015625 45.921875 
Q 28.375 48.1875 33.59375 48.1875 
Q 44.578125 48.1875 50.953125 41.515625 
Q 57.328125 34.859375 57.328125 23.390625 
Q 57.328125 12.15625 50.6875 5.359375 
Q 44.046875 -1.421875 33.015625 -1.421875 
Q 20.359375 -1.421875 13.671875 8.265625 
Q 6.984375 17.96875 6.984375 36.375 
Q 6.984375 53.65625 15.1875 63.9375 
Q 23.390625 74.21875 37.203125 74.21875 
Q 40.921875 74.21875 44.703125 73.484375 
Q 48.484375 72.75 52.59375 71.296875 
z
" id="DejaVuSans-54"/>
       </defs>
       <use xlink:href="#DejaVuSans-54"/>
       <use x="63.623047" xlink:href="#DejaVuSans-48"/>
      </g>
     </g>
    </g>
    <g id="xtick_5">
     <g id="line2d_5">
      <g>
       <use style="stroke:#000000;stroke-width:0.8;" x="228.804956" xlink:href="#m90decd7ff4" y="224.64"/>
      </g>
     </g>
     <g id="text_5">
      <!-- 80 -->
      <g transform="translate(222.442456 239.238437)scale(0.1 -0.1)">
       <defs>
        <path d="M 31.78125 34.625 
Q 24.75 34.625 20.71875 30.859375 
Q 16.703125 27.09375 16.703125 20.515625 
Q 16.703125 13.921875 20.71875 10.15625 
Q 24.75 6.390625 31.78125 6.390625 
Q 38.8125 6.390625 42.859375 10.171875 
Q 46.921875 13.96875 46.921875 20.515625 
Q 46.921875 27.09375 42.890625 30.859375 
Q 38.875 34.625 31.78125 34.625 
z
M 21.921875 38.8125 
Q 15.578125 40.375 12.03125 44.71875 
Q 8.5 49.078125 8.5 55.328125 
Q 8.5 64.0625 14.71875 69.140625 
Q 20.953125 74.21875 31.78125 74.21875 
Q 42.671875 74.21875 48.875 69.140625 
Q 55.078125 64.0625 55.078125 55.328125 
Q 55.078125 49.078125 51.53125 44.71875 
Q 48 40.375 41.703125 38.8125 
Q 48.828125 37.15625 52.796875 32.3125 
Q 56.78125 27.484375 56.78125 20.515625 
Q 56.78125 9.90625 50.3125 4.234375 
Q 43.84375 -1.421875 31.78125 -1.421875 
Q 19.734375 -1.421875 13.25 4.234375 
Q 6.78125 9.90625 6.78125 20.515625 
Q 6.78125 27.484375 10.78125 32.3125 
Q 14.796875 37.15625 21.921875 38.8125 
z
M 18.3125 54.390625 
Q 18.3125 48.734375 21.84375 45.5625 
Q 25.390625 42.390625 31.78125 42.390625 
Q 38.140625 42.390625 41.71875 45.5625 
Q 45.3125 48.734375 45.3125 54.390625 
Q 45.3125 60.0625 41.71875 63.234375 
Q 38.140625 66.40625 31.78125 66.40625 
Q 25.390625 66.40625 21.84375 63.234375 
Q 18.3125 60.0625 18.3125 54.390625 
z
" id="DejaVuSans-56"/>
       </defs>
       <use xlink:href="#DejaVuSans-56"/>
       <use x="63.623047" xlink:href="#DejaVuSans-48"/>
      </g>
     </g>
    </g>
    <g id="xtick_6">
     <g id="line2d_6">
      <g>
       <use style="stroke:#000000;stroke-width:0.8;" x="272.598285" xlink:href="#m90decd7ff4" y="224.64"/>
      </g>
     </g>
     <g id="text_6">
      <!-- 100 -->
      <g transform="translate(263.054535 239.238437)scale(0.1 -0.1)">
       <defs>
        <path d="M 12.40625 8.296875 
L 28.515625 8.296875 
L 28.515625 63.921875 
L 10.984375 60.40625 
L 10.984375 69.390625 
L 28.421875 72.90625 
L 38.28125 72.90625 
L 38.28125 8.296875 
L 54.390625 8.296875 
L 54.390625 0 
L 12.40625 0 
z
" id="DejaVuSans-49"/>
       </defs>
       <use xlink:href="#DejaVuSans-49"/>
       <use x="63.623047" xlink:href="#DejaVuSans-48"/>
       <use x="127.246094" xlink:href="#DejaVuSans-48"/>
      </g>
     </g>
    </g>
    <g id="xtick_7">
     <g id="line2d_7">
      <g>
       <use style="stroke:#000000;stroke-width:0.8;" x="316.391614" xlink:href="#m90decd7ff4" y="224.64"/>
      </g>
     </g>
     <g id="text_7">
      <!-- 120 -->
      <g transform="translate(306.847864 239.238437)scale(0.1 -0.1)">
       <use xlink:href="#DejaVuSans-49"/>
       <use x="63.623047" xlink:href="#DejaVuSans-50"/>
       <use x="127.246094" xlink:href="#DejaVuSans-48"/>
      </g>
     </g>
    </g>
    <g id="xtick_8">
     <g id="line2d_8">
      <g>
       <use style="stroke:#000000;stroke-width:0.8;" x="360.184943" xlink:href="#m90decd7ff4" y="224.64"/>
      </g>
     </g>
     <g id="text_8">
      <!-- 140 -->
      <g transform="translate(350.641193 239.238437)scale(0.1 -0.1)">
       <use xlink:href="#DejaVuSans-49"/>
       <use x="63.623047" xlink:href="#DejaVuSans-52"/>
       <use x="127.246094" xlink:href="#DejaVuSans-48"/>
      </g>
     </g>
    </g>
    <g id="text_9">
     <!-- Ej/Ec -->
     <g transform="translate(195.861719 252.916562)scale(0.1 -0.1)">
      <defs>
       <path d="M 9.8125 72.90625 
L 55.90625 72.90625 
L 55.90625 64.59375 
L 19.671875 64.59375 
L 19.671875 43.015625 
L 54.390625 43.015625 
L 54.390625 34.71875 
L 19.671875 34.71875 
L 19.671875 8.296875 
L 56.78125 8.296875 
L 56.78125 0 
L 9.8125 0 
z
" id="DejaVuSans-69"/>
       <path d="M 9.421875 54.6875 
L 18.40625 54.6875 
L 18.40625 -0.984375 
Q 18.40625 -11.421875 14.421875 -16.109375 
Q 10.453125 -20.796875 1.609375 -20.796875 
L -1.8125 -20.796875 
L -1.8125 -13.1875 
L 0.59375 -13.1875 
Q 5.71875 -13.1875 7.5625 -10.8125 
Q 9.421875 -8.453125 9.421875 -0.984375 
z
M 9.421875 75.984375 
L 18.40625 75.984375 
L 18.40625 64.59375 
L 9.421875 64.59375 
z
" id="DejaVuSans-106"/>
       <path d="M 25.390625 72.90625 
L 33.6875 72.90625 
L 8.296875 -9.28125 
L 0 -9.28125 
z
" id="DejaVuSans-47"/>
       <path d="M 48.78125 52.59375 
L 48.78125 44.1875 
Q 44.96875 46.296875 41.140625 47.34375 
Q 37.3125 48.390625 33.40625 48.390625 
Q 24.65625 48.390625 19.8125 42.84375 
Q 14.984375 37.3125 14.984375 27.296875 
Q 14.984375 17.28125 19.8125 11.734375 
Q 24.65625 6.203125 33.40625 6.203125 
Q 37.3125 6.203125 41.140625 7.25 
Q 44.96875 8.296875 48.78125 10.40625 
L 48.78125 2.09375 
Q 45.015625 0.34375 40.984375 -0.53125 
Q 36.96875 -1.421875 32.421875 -1.421875 
Q 20.0625 -1.421875 12.78125 6.34375 
Q 5.515625 14.109375 5.515625 27.296875 
Q 5.515625 40.671875 12.859375 48.328125 
Q 20.21875 56 33.015625 56 
Q 37.15625 56 41.109375 55.140625 
Q 45.0625 54.296875 48.78125 52.59375 
z
" id="DejaVuSans-99"/>
      </defs>
      <use xlink:href="#DejaVuSans-69"/>
      <use x="63.183594" xlink:href="#DejaVuSans-106"/>
      <use x="90.966797" xlink:href="#DejaVuSans-47"/>
      <use x="124.658203" xlink:href="#DejaVuSans-69"/>
      <use x="187.841797" xlink:href="#DejaVuSans-99"/>
     </g>
    </g>
   </g>
   <g id="matplotlib.axis_2">
    <g id="ytick_1">
     <g id="line2d_9">
      <defs>
       <path d="M 0 0 
L -3.5 0 
" id="ma469467e15" style="stroke:#000000;stroke-width:0.8;"/>
      </defs>
      <g>
       <use style="stroke:#000000;stroke-width:0.8;" x="40.603125" xlink:href="#ma469467e15" y="214.756364"/>
      </g>
     </g>
     <g id="text_10">
      <!-- 0 -->
      <g transform="translate(27.240625 218.555582)scale(0.1 -0.1)">
       <use xlink:href="#DejaVuSans-48"/>
      </g>
     </g>
    </g>
    <g id="ytick_2">
     <g id="line2d_10">
      <g>
       <use style="stroke:#000000;stroke-width:0.8;" x="40.603125" xlink:href="#ma469467e15" y="172.699959"/>
      </g>
     </g>
     <g id="text_11">
      <!-- 20 -->
      <g transform="translate(20.878125 176.499178)scale(0.1 -0.1)">
       <use xlink:href="#DejaVuSans-50"/>
       <use x="63.623047" xlink:href="#DejaVuSans-48"/>
      </g>
     </g>
    </g>
    <g id="ytick_3">
     <g id="line2d_11">
      <g>
       <use style="stroke:#000000;stroke-width:0.8;" x="40.603125" xlink:href="#ma469467e15" y="130.643555"/>
      </g>
     </g>
     <g id="text_12">
      <!-- 40 -->
      <g transform="translate(20.878125 134.442773)scale(0.1 -0.1)">
       <use xlink:href="#DejaVuSans-52"/>
       <use x="63.623047" xlink:href="#DejaVuSans-48"/>
      </g>
     </g>
    </g>
    <g id="ytick_4">
     <g id="line2d_12">
      <g>
       <use style="stroke:#000000;stroke-width:0.8;" x="40.603125" xlink:href="#ma469467e15" y="88.58715"/>
      </g>
     </g>
     <g id="text_13">
      <!-- 60 -->
      <g transform="translate(20.878125 92.386369)scale(0.1 -0.1)">
       <use xlink:href="#DejaVuSans-54"/>
       <use x="63.623047" xlink:href="#DejaVuSans-48"/>
      </g>
     </g>
    </g>
    <g id="ytick_5">
     <g id="line2d_13">
      <g>
       <use style="stroke:#000000;stroke-width:0.8;" x="40.603125" xlink:href="#ma469467e15" y="46.530746"/>
      </g>
     </g>
     <g id="text_14">
      <!-- 80 -->
      <g transform="translate(20.878125 50.329964)scale(0.1 -0.1)">
       <use xlink:href="#DejaVuSans-56"/>
       <use x="63.623047" xlink:href="#DejaVuSans-48"/>
      </g>
     </g>
    </g>
    <g id="text_15">
     <!-- Em0/Ec -->
     <g transform="translate(14.798438 134.723906)rotate(-90)scale(0.1 -0.1)">
      <defs>
       <path d="M 52 44.1875 
Q 55.375 50.25 60.0625 53.125 
Q 64.75 56 71.09375 56 
Q 79.640625 56 84.28125 50.015625 
Q 88.921875 44.046875 88.921875 33.015625 
L 88.921875 0 
L 79.890625 0 
L 79.890625 32.71875 
Q 79.890625 40.578125 77.09375 44.375 
Q 74.3125 48.1875 68.609375 48.1875 
Q 61.625 48.1875 57.5625 43.546875 
Q 53.515625 38.921875 53.515625 30.90625 
L 53.515625 0 
L 44.484375 0 
L 44.484375 32.71875 
Q 44.484375 40.625 41.703125 44.40625 
Q 38.921875 48.1875 33.109375 48.1875 
Q 26.21875 48.1875 22.15625 43.53125 
Q 18.109375 38.875 18.109375 30.90625 
L 18.109375 0 
L 9.078125 0 
L 9.078125 54.6875 
L 18.109375 54.6875 
L 18.109375 46.1875 
Q 21.1875 51.21875 25.484375 53.609375 
Q 29.78125 56 35.6875 56 
Q 41.65625 56 45.828125 52.96875 
Q 50 49.953125 52 44.1875 
z
" id="DejaVuSans-109"/>
      </defs>
      <use xlink:href="#DejaVuSans-69"/>
      <use x="63.183594" xlink:href="#DejaVuSans-109"/>
      <use x="160.595703" xlink:href="#DejaVuSans-48"/>
      <use x="224.21875" xlink:href="#DejaVuSans-47"/>
      <use x="257.910156" xlink:href="#DejaVuSans-69"/>
      <use x="321.09375" xlink:href="#DejaVuSans-99"/>
     </g>
    </g>
   </g>
   <g id="line2d_14">
    <path clip-path="url(#p0e13d6ef5a)" d="M 55.821307 214.756364 
L 58.864943 214.756364 
L 61.90858 214.756364 
L 64.952216 214.756364 
L 67.995852 214.756364 
L 71.039489 214.756364 
L 74.083125 214.756364 
L 77.126761 214.756364 
L 80.170398 214.756364 
L 83.214034 214.756364 
L 86.25767 214.756364 
L 89.301307 214.756364 
L 92.344943 214.756364 
L 95.38858 214.756364 
L 98.432216 214.756364 
L 101.475852 214.756364 
L 104.519489 214.756364 
L 107.563125 214.756364 
L 110.606761 214.756364 
L 113.650398 214.756364 
L 116.694034 214.756364 
L 119.73767 214.756364 
L 122.781307 214.756364 
L 125.824943 214.756364 
L 128.86858 214.756364 
L 131.912216 214.756364 
L 134.955852 214.756364 
L 137.999489 214.756364 
L 141.043125 214.756364 
L 144.086761 214.756364 
L 147.130398 214.756364 
L 150.174034 214.756364 
L 153.21767 214.756364 
L 156.261307 214.756364 
L 159.304943 214.756364 
L 162.34858 214.756364 
L 165.392216 214.756364 
L 168.435852 214.756364 
L 171.479489 214.756364 
L 174.523125 214.756364 
L 177.566761 214.756364 
L 180.610398 214.756364 
L 183.654034 214.756364 
L 186.69767 214.756364 
L 189.741307 214.756364 
L 192.784943 214.756364 
L 195.82858 214.756364 
L 198.872216 214.756364 
L 201.915852 214.756364 
L 204.959489 214.756364 
L 208.003125 214.756364 
L 211.046761 214.756364 
L 214.090398 214.756364 
L 217.134034 214.756364 
L 220.17767 214.756364 
L 223.221307 214.756364 
L 226.264943 214.756364 
L 229.30858 214.756364 
L 232.352216 214.756364 
L 235.395852 214.756364 
L 238.439489 214.756364 
L 241.483125 214.756364 
L 244.526761 214.756364 
L 247.570398 214.756364 
L 250.614034 214.756364 
L 253.65767 214.756364 
L 256.701307 214.756364 
L 259.744943 214.756364 
L 262.78858 214.756364 
L 265.832216 214.756364 
L 268.875852 214.756364 
L 271.919489 214.756364 
L 274.963125 214.756364 
L 278.006761 214.756364 
L 281.050398 214.756364 
L 284.094034 214.756364 
L 287.13767 214.756364 
L 290.181307 214.756364 
L 293.224943 214.756364 
L 296.26858 214.756364 
L 299.312216 214.756364 
L 302.355852 214.756364 
L 305.399489 214.756364 
L 308.443125 214.756364 
L 311.486761 214.756364 
L 314.530398 214.756364 
L 317.574034 214.756364 
L 320.61767 214.756364 
L 323.661307 214.756364 
L 326.704943 214.756364 
L 329.74858 214.756364 
L 332.792216 214.756364 
L 335.835852 214.756364 
L 338.879489 214.756364 
L 341.923125 214.756364 
L 344.966761 214.756364 
L 348.010398 214.756364 
L 351.054034 214.756364 
L 354.09767 214.756364 
L 357.141307 214.756364 
L 360.184943 214.756364 
" style="fill:none;stroke:#000000;stroke-linecap:square;stroke-width:1.5;"/>
   </g>
   <g id="line2d_15">
    <path clip-path="url(#p0e13d6ef5a)" d="M 55.821307 212.661718 
L 58.864943 209.839635 
L 61.90858 207.21989 
L 64.952216 204.869664 
L 67.995852 202.801752 
L 71.039489 200.986862 
L 74.083125 199.378333 
L 77.126761 197.930856 
L 80.170398 196.607937 
L 83.214034 195.382423 
L 86.25767 194.234646 
L 89.301307 193.150351 
L 92.344943 192.119061 
L 95.38858 191.132912 
L 98.432216 190.185871 
L 101.475852 189.273205 
L 104.519489 188.391119 
L 107.563125 187.536514 
L 110.606761 186.706818 
L 113.650398 185.899861 
L 116.694034 185.11379 
L 119.73767 184.347005 
L 122.781307 183.59811 
L 125.824943 182.865878 
L 128.86858 182.149222 
L 131.912216 181.44717 
L 134.955852 180.758852 
L 137.999489 180.083483 
L 141.043125 179.420351 
L 144.086761 178.768808 
L 147.130398 178.128263 
L 150.174034 177.498174 
L 153.21767 176.878042 
L 156.261307 176.267407 
L 159.304943 175.665845 
L 162.34858 175.07296 
L 165.392216 174.488388 
L 168.435852 173.911787 
L 171.479489 173.342838 
L 174.523125 172.781245 
L 177.566761 172.226729 
L 180.610398 171.679027 
L 183.654034 171.137896 
L 186.69767 170.603102 
L 189.741307 170.074429 
L 192.784943 169.551671 
L 195.82858 169.034633 
L 198.872216 168.523132 
L 201.915852 168.016992 
L 204.959489 167.516049 
L 208.003125 167.020146 
L 211.046761 166.529133 
L 214.090398 166.042869 
L 217.134034 165.561218 
L 220.17767 165.084051 
L 223.221307 164.611246 
L 226.264943 164.142684 
L 229.30858 163.678253 
L 232.352216 163.217846 
L 235.395852 162.761361 
L 238.439489 162.308697 
L 241.483125 161.859762 
L 244.526761 161.414464 
L 247.570398 160.972716 
L 250.614034 160.534435 
L 253.65767 160.09954 
L 256.701307 159.667954 
L 259.744943 159.239602 
L 262.78858 158.814413 
L 265.832216 158.392318 
L 268.875852 157.97325 
L 271.919489 157.557144 
L 274.963125 157.14394 
L 278.006761 156.733577 
L 281.050398 156.325996 
L 284.094034 155.921144 
L 287.13767 155.518964 
L 290.181307 155.119405 
L 293.224943 154.722417 
L 296.26858 154.32795 
L 299.312216 153.935957 
L 302.355852 153.546392 
L 305.399489 153.15921 
L 308.443125 152.774369 
L 311.486761 152.391825 
L 314.530398 152.011539 
L 317.574034 151.633471 
L 320.61767 151.257583 
L 323.661307 150.883837 
L 326.704943 150.512197 
L 329.74858 150.142628 
L 332.792216 149.775095 
L 335.835852 149.409566 
L 338.879489 149.046008 
L 341.923125 148.684389 
L 344.966761 148.324678 
L 348.010398 147.966847 
L 351.054034 147.610865 
L 354.09767 147.256704 
L 357.141307 146.904337 
L 360.184943 146.553736 
" style="fill:none;stroke:#0000ff;stroke-linecap:square;stroke-width:1.5;"/>
   </g>
   <g id="line2d_16">
    <path clip-path="url(#p0e13d6ef5a)" d="M 55.821307 196.791833 
L 58.864943 194.96233 
L 61.90858 192.94264 
L 64.952216 190.80932 
L 67.995852 188.617119 
L 71.039489 186.404514 
L 74.083125 184.198287 
L 77.126761 182.016851 
L 80.170398 179.872585 
L 83.214034 177.773483 
L 86.25767 175.724336 
L 89.301307 173.727596 
L 92.344943 171.784034 
L 95.38858 169.893232 
L 98.432216 168.053953 
L 101.475852 166.264428 
L 104.519489 164.522564 
L 107.563125 162.826095 
L 110.606761 161.172695 
L 113.650398 159.560049 
L 116.694034 157.985905 
L 119.73767 156.448109 
L 122.781307 154.944619 
L 125.824943 153.473515 
L 128.86858 152.033004 
L 131.912216 150.621415 
L 134.955852 149.237197 
L 137.999489 147.878911 
L 141.043125 146.545223 
L 144.086761 145.234897 
L 147.130398 143.946788 
L 150.174034 142.679832 
L 153.21767 141.433045 
L 156.261307 140.205509 
L 159.304943 138.996373 
L 162.34858 137.804842 
L 165.392216 136.630175 
L 168.435852 135.471683 
L 171.479489 134.328717 
L 174.523125 133.200673 
L 177.566761 132.086981 
L 180.610398 130.987109 
L 183.654034 129.900556 
L 186.69767 128.826848 
L 189.741307 127.765542 
L 192.784943 126.716215 
L 195.82858 125.678473 
L 198.872216 124.651937 
L 201.915852 123.636253 
L 204.959489 122.631084 
L 208.003125 121.636108 
L 211.046761 120.65102 
L 214.090398 119.675533 
L 217.134034 118.709368 
L 220.17767 117.752265 
L 223.221307 116.803971 
L 226.264943 115.864248 
L 229.30858 114.932867 
L 232.352216 114.009609 
L 235.395852 113.094265 
L 238.439489 112.186634 
L 241.483125 111.286524 
L 244.526761 110.393752 
L 247.570398 109.50814 
L 250.614034 108.629518 
L 253.65767 107.757723 
L 256.701307 106.892598 
L 259.744943 106.033992 
L 262.78858 105.181759 
L 265.832216 104.335761 
L 268.875852 103.49586 
L 271.919489 102.661928 
L 274.963125 101.833839 
L 278.006761 101.011471 
L 281.050398 100.194707 
L 284.094034 99.383434 
L 287.13767 98.577543 
L 290.181307 97.776928 
L 293.224943 96.981486 
L 296.26858 96.191118 
L 299.312216 95.405728 
L 302.355852 94.625224 
L 305.399489 93.849515 
L 308.443125 93.078513 
L 311.486761 92.312134 
L 314.530398 91.550296 
L 317.574034 90.792919 
L 320.61767 90.039925 
L 323.661307 89.291239 
L 326.704943 88.546788 
L 329.74858 87.8065 
L 332.792216 87.070307 
L 335.835852 86.338141 
L 338.879489 85.609937 
L 341.923125 84.885631 
L 344.966761 84.165161 
L 348.010398 83.448467 
L 351.054034 82.735489 
L 354.09767 82.026172 
L 357.141307 81.320458 
L 360.184943 80.618294 
" style="fill:none;stroke:#008000;stroke-linecap:square;stroke-width:1.5;"/>
   </g>
   <g id="line2d_17">
    <path clip-path="url(#p0e13d6ef5a)" d="M 55.821307 196.783659 
L 58.864943 194.853388 
L 61.90858 192.531133 
L 64.952216 189.827666 
L 67.995852 186.787711 
L 71.039489 183.48357 
L 74.083125 179.995214 
L 77.126761 176.394982 
L 80.170398 172.742324 
L 83.214034 169.084555 
L 86.25767 165.459247 
L 89.301307 161.896269 
L 92.344943 158.41898 
L 95.38858 155.044756 
L 98.432216 151.785217 
L 101.475852 148.646513 
L 104.519489 145.629884 
L 107.563125 142.732546 
L 110.606761 139.948776 
L 113.650398 137.271022 
L 116.694034 134.690856 
L 119.73767 132.199714 
L 122.781307 129.789382 
L 125.824943 127.452276 
L 128.86858 125.181566 
L 131.912216 122.971206 
L 134.955852 120.815888 
L 137.999489 118.710984 
L 141.043125 116.65246 
L 144.086761 114.636798 
L 147.130398 112.660924 
L 150.174034 110.722143 
L 153.21767 108.818077 
L 156.261307 106.946621 
L 159.304943 105.105902 
L 162.34858 103.294242 
L 165.392216 101.510132 
L 168.435852 99.752206 
L 171.479489 98.019226 
L 174.523125 96.310059 
L 177.566761 94.623667 
L 180.610398 92.959094 
L 183.654034 91.315458 
L 186.69767 89.691941 
L 189.741307 88.087782 
L 192.784943 86.502271 
L 195.82858 84.934745 
L 198.872216 83.384582 
L 201.915852 81.851198 
L 204.959489 80.334042 
L 208.003125 78.832595 
L 211.046761 77.346368 
L 214.090398 75.874896 
L 217.134034 74.417738 
L 220.17767 72.974479 
L 223.221307 71.544719 
L 226.264943 70.128083 
L 229.30858 68.724209 
L 232.352216 67.332755 
L 235.395852 65.953392 
L 238.439489 64.585807 
L 241.483125 63.229701 
L 244.526761 61.884786 
L 247.570398 60.550787 
L 250.614034 59.227441 
L 253.65767 57.914494 
L 256.701307 56.611703 
L 259.744943 55.318834 
L 262.78858 54.035663 
L 265.832216 52.761974 
L 268.875852 51.497556 
L 271.919489 50.242211 
L 274.963125 48.995745 
L 278.006761 47.75797 
L 281.050398 46.528706 
L 284.094034 45.30778 
L 287.13767 44.095023 
L 290.181307 42.890273 
L 293.224943 41.693373 
L 296.26858 40.50417 
L 299.312216 39.322517 
L 302.355852 38.148272 
L 305.399489 36.981297 
L 308.443125 35.821457 
L 311.486761 34.668623 
L 314.530398 33.52267 
L 317.574034 32.383474 
L 320.61767 31.250918 
L 323.661307 30.124886 
L 326.704943 29.005266 
L 329.74858 27.89195 
L 332.792216 26.784833 
L 335.835852 25.683811 
L 338.879489 24.588785 
L 341.923125 23.499657 
L 344.966761 22.416334 
L 348.010398 21.338722 
L 351.054034 20.266733 
L 354.09767 19.200278 
L 357.141307 18.139274 
L 360.184943 17.083636 
" style="fill:none;stroke:#ff0000;stroke-linecap:square;stroke-width:1.5;"/>
   </g>
   <g id="patch_3">
    <path d="M 40.603125 224.64 
L 40.603125 7.2 
" style="fill:none;stroke:#000000;stroke-linecap:square;stroke-linejoin:miter;stroke-width:0.8;"/>
   </g>
   <g id="patch_4">
    <path d="M 375.403125 224.64 
L 375.403125 7.2 
" style="fill:none;stroke:#000000;stroke-linecap:square;stroke-linejoin:miter;stroke-width:0.8;"/>
   </g>
   <g id="patch_5">
    <path d="M 40.603125 224.64 
L 375.403125 224.64 
" style="fill:none;stroke:#000000;stroke-linecap:square;stroke-linejoin:miter;stroke-width:0.8;"/>
   </g>
   <g id="patch_6">
    <path d="M 40.603125 7.2 
L 375.403125 7.2 
" style="fill:none;stroke:#000000;stroke-linecap:square;stroke-linejoin:miter;stroke-width:0.8;"/>
   </g>
   <g id="legend_1">
    <g id="patch_7">
     <path d="M 294.603125 88.590625 
L 368.403125 88.590625 
Q 370.403125 88.590625 370.403125 86.590625 
L 370.403125 14.2 
Q 370.403125 12.2 368.403125 12.2 
L 294.603125 12.2 
Q 292.603125 12.2 292.603125 14.2 
L 292.603125 86.590625 
Q 292.603125 88.590625 294.603125 88.590625 
z
" style="fill:#ffffff;opacity:0.8;stroke:#cccccc;stroke-linejoin:miter;"/>
    </g>
    <g id="text_16">
     <!-- Energy Levels -->
     <g transform="translate(296.603125 23.798437)scale(0.1 -0.1)">
      <defs>
       <path d="M 54.890625 33.015625 
L 54.890625 0 
L 45.90625 0 
L 45.90625 32.71875 
Q 45.90625 40.484375 42.875 44.328125 
Q 39.84375 48.1875 33.796875 48.1875 
Q 26.515625 48.1875 22.3125 43.546875 
Q 18.109375 38.921875 18.109375 30.90625 
L 18.109375 0 
L 9.078125 0 
L 9.078125 54.6875 
L 18.109375 54.6875 
L 18.109375 46.1875 
Q 21.34375 51.125 25.703125 53.5625 
Q 30.078125 56 35.796875 56 
Q 45.21875 56 50.046875 50.171875 
Q 54.890625 44.34375 54.890625 33.015625 
z
" id="DejaVuSans-110"/>
       <path d="M 56.203125 29.59375 
L 56.203125 25.203125 
L 14.890625 25.203125 
Q 15.484375 15.921875 20.484375 11.0625 
Q 25.484375 6.203125 34.421875 6.203125 
Q 39.59375 6.203125 44.453125 7.46875 
Q 49.3125 8.734375 54.109375 11.28125 
L 54.109375 2.78125 
Q 49.265625 0.734375 44.1875 -0.34375 
Q 39.109375 -1.421875 33.890625 -1.421875 
Q 20.796875 -1.421875 13.15625 6.1875 
Q 5.515625 13.8125 5.515625 26.8125 
Q 5.515625 40.234375 12.765625 48.109375 
Q 20.015625 56 32.328125 56 
Q 43.359375 56 49.78125 48.890625 
Q 56.203125 41.796875 56.203125 29.59375 
z
M 47.21875 32.234375 
Q 47.125 39.59375 43.09375 43.984375 
Q 39.0625 48.390625 32.421875 48.390625 
Q 24.90625 48.390625 20.390625 44.140625 
Q 15.875 39.890625 15.1875 32.171875 
z
" id="DejaVuSans-101"/>
       <path d="M 41.109375 46.296875 
Q 39.59375 47.171875 37.8125 47.578125 
Q 36.03125 48 33.890625 48 
Q 26.265625 48 22.1875 43.046875 
Q 18.109375 38.09375 18.109375 28.8125 
L 18.109375 0 
L 9.078125 0 
L 9.078125 54.6875 
L 18.109375 54.6875 
L 18.109375 46.1875 
Q 20.953125 51.171875 25.484375 53.578125 
Q 30.03125 56 36.53125 56 
Q 37.453125 56 38.578125 55.875 
Q 39.703125 55.765625 41.0625 55.515625 
z
" id="DejaVuSans-114"/>
       <path d="M 45.40625 27.984375 
Q 45.40625 37.75 41.375 43.109375 
Q 37.359375 48.484375 30.078125 48.484375 
Q 22.859375 48.484375 18.828125 43.109375 
Q 14.796875 37.75 14.796875 27.984375 
Q 14.796875 18.265625 18.828125 12.890625 
Q 22.859375 7.515625 30.078125 7.515625 
Q 37.359375 7.515625 41.375 12.890625 
Q 45.40625 18.265625 45.40625 27.984375 
z
M 54.390625 6.78125 
Q 54.390625 -7.171875 48.1875 -13.984375 
Q 42 -20.796875 29.203125 -20.796875 
Q 24.46875 -20.796875 20.265625 -20.09375 
Q 16.0625 -19.390625 12.109375 -17.921875 
L 12.109375 -9.1875 
Q 16.0625 -11.328125 19.921875 -12.34375 
Q 23.78125 -13.375 27.78125 -13.375 
Q 36.625 -13.375 41.015625 -8.765625 
Q 45.40625 -4.15625 45.40625 5.171875 
L 45.40625 9.625 
Q 42.625 4.78125 38.28125 2.390625 
Q 33.9375 0 27.875 0 
Q 17.828125 0 11.671875 7.65625 
Q 5.515625 15.328125 5.515625 27.984375 
Q 5.515625 40.671875 11.671875 48.328125 
Q 17.828125 56 27.875 56 
Q 33.9375 56 38.28125 53.609375 
Q 42.625 51.21875 45.40625 46.390625 
L 45.40625 54.6875 
L 54.390625 54.6875 
z
" id="DejaVuSans-103"/>
       <path d="M 32.171875 -5.078125 
Q 28.375 -14.84375 24.75 -17.8125 
Q 21.140625 -20.796875 15.09375 -20.796875 
L 7.90625 -20.796875 
L 7.90625 -13.28125 
L 13.1875 -13.28125 
Q 16.890625 -13.28125 18.9375 -11.515625 
Q 21 -9.765625 23.484375 -3.21875 
L 25.09375 0.875 
L 2.984375 54.6875 
L 12.5 54.6875 
L 29.59375 11.921875 
L 46.6875 54.6875 
L 56.203125 54.6875 
z
" id="DejaVuSans-121"/>
       <path id="DejaVuSans-32"/>
       <path d="M 9.8125 72.90625 
L 19.671875 72.90625 
L 19.671875 8.296875 
L 55.171875 8.296875 
L 55.171875 0 
L 9.8125 0 
z
" id="DejaVuSans-76"/>
       <path d="M 2.984375 54.6875 
L 12.5 54.6875 
L 29.59375 8.796875 
L 46.6875 54.6875 
L 56.203125 54.6875 
L 35.6875 0 
L 23.484375 0 
z
" id="DejaVuSans-118"/>
       <path d="M 9.421875 75.984375 
L 18.40625 75.984375 
L 18.40625 0 
L 9.421875 0 
z
" id="DejaVuSans-108"/>
       <path d="M 44.28125 53.078125 
L 44.28125 44.578125 
Q 40.484375 46.53125 36.375 47.5 
Q 32.28125 48.484375 27.875 48.484375 
Q 21.1875 48.484375 17.84375 46.4375 
Q 14.5 44.390625 14.5 40.28125 
Q 14.5 37.15625 16.890625 35.375 
Q 19.28125 33.59375 26.515625 31.984375 
L 29.59375 31.296875 
Q 39.15625 29.25 43.1875 25.515625 
Q 47.21875 21.78125 47.21875 15.09375 
Q 47.21875 7.46875 41.1875 3.015625 
Q 35.15625 -1.421875 24.609375 -1.421875 
Q 20.21875 -1.421875 15.453125 -0.5625 
Q 10.6875 0.296875 5.421875 2 
L 5.421875 11.28125 
Q 10.40625 8.6875 15.234375 7.390625 
Q 20.0625 6.109375 24.8125 6.109375 
Q 31.15625 6.109375 34.5625 8.28125 
Q 37.984375 10.453125 37.984375 14.40625 
Q 37.984375 18.0625 35.515625 20.015625 
Q 33.0625 21.96875 24.703125 23.78125 
L 21.578125 24.515625 
Q 13.234375 26.265625 9.515625 29.90625 
Q 5.8125 33.546875 5.8125 39.890625 
Q 5.8125 47.609375 11.28125 51.796875 
Q 16.75 56 26.8125 56 
Q 31.78125 56 36.171875 55.265625 
Q 40.578125 54.546875 44.28125 53.078125 
z
" id="DejaVuSans-115"/>
      </defs>
      <use xlink:href="#DejaVuSans-69"/>
      <use x="63.183594" xlink:href="#DejaVuSans-110"/>
      <use x="126.5625" xlink:href="#DejaVuSans-101"/>
      <use x="188.085938" xlink:href="#DejaVuSans-114"/>
      <use x="227.449219" xlink:href="#DejaVuSans-103"/>
      <use x="290.925781" xlink:href="#DejaVuSans-121"/>
      <use x="350.105469" xlink:href="#DejaVuSans-32"/>
      <use x="381.892578" xlink:href="#DejaVuSans-76"/>
      <use x="435.855469" xlink:href="#DejaVuSans-101"/>
      <use x="497.378906" xlink:href="#DejaVuSans-118"/>
      <use x="556.558594" xlink:href="#DejaVuSans-101"/>
      <use x="618.082031" xlink:href="#DejaVuSans-108"/>
      <use x="645.865234" xlink:href="#DejaVuSans-115"/>
     </g>
    </g>
    <g id="line2d_18">
     <path d="M 305.261719 34.976562 
L 325.261719 34.976562 
" style="fill:none;stroke:#000000;stroke-linecap:square;stroke-width:1.5;"/>
    </g>
    <g id="line2d_19"/>
    <g id="text_17">
     <!-- m0 -->
     <g transform="translate(333.261719 38.476562)scale(0.1 -0.1)">
      <use xlink:href="#DejaVuSans-109"/>
      <use x="97.412109" xlink:href="#DejaVuSans-48"/>
     </g>
    </g>
    <g id="line2d_20">
     <path d="M 305.261719 49.654687 
L 325.261719 49.654687 
" style="fill:none;stroke:#0000ff;stroke-linecap:square;stroke-width:1.5;"/>
    </g>
    <g id="line2d_21"/>
    <g id="text_18">
     <!-- m=1 -->
     <g transform="translate(333.261719 53.154687)scale(0.1 -0.1)">
      <defs>
       <path d="M 10.59375 45.40625 
L 73.1875 45.40625 
L 73.1875 37.203125 
L 10.59375 37.203125 
z
M 10.59375 25.484375 
L 73.1875 25.484375 
L 73.1875 17.1875 
L 10.59375 17.1875 
z
" id="DejaVuSans-61"/>
      </defs>
      <use xlink:href="#DejaVuSans-109"/>
      <use x="97.412109" xlink:href="#DejaVuSans-61"/>
      <use x="181.201172" xlink:href="#DejaVuSans-49"/>
     </g>
    </g>
    <g id="line2d_22">
     <path d="M 305.261719 64.332812 
L 325.261719 64.332812 
" style="fill:none;stroke:#008000;stroke-linecap:square;stroke-width:1.5;"/>
    </g>
    <g id="line2d_23"/>
    <g id="text_19">
     <!-- m=2 -->
     <g transform="translate(333.261719 67.832812)scale(0.1 -0.1)">
      <use xlink:href="#DejaVuSans-109"/>
      <use x="97.412109" xlink:href="#DejaVuSans-61"/>
      <use x="181.201172" xlink:href="#DejaVuSans-50"/>
     </g>
    </g>
    <g id="line2d_24">
     <path d="M 305.261719 79.010937 
L 325.261719 79.010937 
" style="fill:none;stroke:#ff0000;stroke-linecap:square;stroke-width:1.5;"/>
    </g>
    <g id="line2d_25"/>
    <g id="text_20">
     <!-- m=3 -->
     <g transform="translate(333.261719 82.510937)scale(0.1 -0.1)">
      <defs>
       <path d="M 40.578125 39.3125 
Q 47.65625 37.796875 51.625 33 
Q 55.609375 28.21875 55.609375 21.1875 
Q 55.609375 10.40625 48.1875 4.484375 
Q 40.765625 -1.421875 27.09375 -1.421875 
Q 22.515625 -1.421875 17.65625 -0.515625 
Q 12.796875 0.390625 7.625 2.203125 
L 7.625 11.71875 
Q 11.71875 9.328125 16.59375 8.109375 
Q 21.484375 6.890625 26.8125 6.890625 
Q 36.078125 6.890625 40.9375 10.546875 
Q 45.796875 14.203125 45.796875 21.1875 
Q 45.796875 27.640625 41.28125 31.265625 
Q 36.765625 34.90625 28.71875 34.90625 
L 20.21875 34.90625 
L 20.21875 43.015625 
L 29.109375 43.015625 
Q 36.375 43.015625 40.234375 45.921875 
Q 44.09375 48.828125 44.09375 54.296875 
Q 44.09375 59.90625 40.109375 62.90625 
Q 36.140625 65.921875 28.71875 65.921875 
Q 24.65625 65.921875 20.015625 65.03125 
Q 15.375 64.15625 9.8125 62.3125 
L 9.8125 71.09375 
Q 15.4375 72.65625 20.34375 73.4375 
Q 25.25 74.21875 29.59375 74.21875 
Q 40.828125 74.21875 47.359375 69.109375 
Q 53.90625 64.015625 53.90625 55.328125 
Q 53.90625 49.265625 50.4375 45.09375 
Q 46.96875 40.921875 40.578125 39.3125 
z
" id="DejaVuSans-51"/>
      </defs>
      <use xlink:href="#DejaVuSans-109"/>
      <use x="97.412109" xlink:href="#DejaVuSans-61"/>
      <use x="181.201172" xlink:href="#DejaVuSans-51"/>
     </g>
    </g>
   </g>
  </g>
 </g>
 <defs>
  <clipPath id="p0e13d6ef5a">
   <rect height="217.44" width="334.8" x="40.603125" y="7.2"/>
  </clipPath>
 </defs>
</svg>
