<svg xmlns="http://www.w3.org/2000/svg" xmlns:xlink="http://www.w3.org/1999/xlink" width="100.0" height="100.0" viewBox="-1.08 -1.08 2.16 2.16" preserveAspectRatio="xMinYMin meet"><g transform="matrix(1,0,0,-1,0,0.0)"><polyline fill="none" stroke="#66cc99" stroke-width="0.0432" points="1.0,0.0 0.9951847266721969,-0.0980171403295605 0.9807852804032305,-0.19509032201612808 0.9569403357322089,-0.2902846772544621 0.923879532511287,-0.3826834323650894 0.8819212643483553,-0.4713967368259972 0.8314696123025456,-0.5555702330196017 0.7730104533627374,-0.6343932841636449 0.7071067811865481,-0.7071067811865469 0.6343932841636462,-0.7730104533627363 0.5555702330196031,-0.8314696123025447 0.4713967368259986,-0.8819212643483545 0.38268343236509084,-0.9238795325112863 0.2902846772544636,-0.9569403357322085 0.19509032201612964,-0.9807852804032302 0.09801714032956209,-0.9951847266721967 1.6155445744325867e-15,-1.0 -0.09801714032955888,-0.995184726672197 -0.19509032201612647,-0.9807852804032308 -0.2902846772544605,-0.9569403357322095 -0.38268343236508784,-0.9238795325112875 -0.4713967368259957,-0.881921264348356 -0.5555702330196005,-0.8314696123025463 -0.6343932841636439,-0.7730104533627382 -0.7071067811865462,-0.7071067811865489 -0.7730104533627359,-0.6343932841636468 -0.8314696123025443,-0.5555702330196036 -0.8819212643483543,-0.47139673682599903 -0.9238795325112862,-0.3826834323650911 -0.9569403357322085,-0.29028467725446366 -0.9807852804032302,-0.19509032201612947 -0.9951847266721968,-0.09801714032956171 -1.0,-1.0106430996148606e-15 -0.9951847266721969,0.0980171403295597 -0.9807852804032307,0.1950903220161275 -0.956940335732209,0.2902846772544617 -0.923879532511287,0.3826834323650892 -0.8819212643483553,0.47139673682599725 -0.8314696123025455,0.555570233019602 -0.7730104533627371,0.6343932841636453 -0.7071067811865477,0.7071067811865475 -0.6343932841636459,0.7730104533627367 -0.555570233019603,0.8314696123025448 -0.4713967368259987,0.8819212643483545 -0.38268343236509117,0.9238795325112862 -0.2902846772544641,0.9569403357322084 -0.1950903220161304,0.98078528040323 -0.0980171403295631,0.9951847266721966 -2.848232278972479e-15,1.0 0.09801714032955743,0.9951847266721972 0.1950903220161248,0.9807852804032311 0.29028467725445867,0.9569403357322099 0.3826834323650859,0.9238795325112884 0.47139673682599365,0.8819212643483572 0.5555702330195982,0.8314696123025479 0.6343932841636415,0.7730104533627402 0.7071067811865436,0.7071067811865515 0.7730104533627332,0.63439328416365 0.8314696123025418,0.5555702330196074 0.8819212643483519,0.4713967368260034 0.9238795325112841,0.38268343236509617 0.9569403357322067,0.29028467725446927 0.980785280403229,0.1950903220161357 0.9951847266721962,0.09801714032956847 1.0,8.238535137130597e-15 1.0,0.0" opacity="0.8" /></g></svg>