<?xml version="1.0" encoding="utf-8" standalone="no"?>
<!DOCTYPE svg PUBLIC "-//W3C//DTD SVG 1.1//EN"
  "http://www.w3.org/Graphics/SVG/1.1/DTD/svg11.dtd">
<!-- Created with matplotlib (https://matplotlib.org/) -->
<svg height="262.274375pt" version="1.1" viewBox="0 0 394.239062 262.274375" width="394.239062pt" xmlns="http://www.w3.org/2000/svg" xmlns:xlink="http://www.w3.org/1999/xlink">
 <metadata>
  <rdf:RDF xmlns:cc="http://creativecommons.org/ns#" xmlns:dc="http://purl.org/dc/elements/1.1/" xmlns:rdf="http://www.w3.org/1999/02/22-rdf-syntax-ns#">
   <cc:Work>
    <dc:type rdf:resource="http://purl.org/dc/dcmitype/StillImage"/>
    <dc:date>2021-08-20T09:18:54.198570</dc:date>
    <dc:format>image/svg+xml</dc:format>
    <dc:creator>
     <cc:Agent>
      <dc:title>Matplotlib v3.3.3, https://matplotlib.org/</dc:title>
     </cc:Agent>
    </dc:creator>
   </cc:Work>
  </rdf:RDF>
 </metadata>
 <defs>
  <style type="text/css">*{stroke-linecap:butt;stroke-linejoin:round;}</style>
 </defs>
 <g id="figure_1">
  <g id="patch_1">
   <path d="M 0 262.274375 
L 394.239062 262.274375 
L 394.239062 0 
L 0 0 
z
" style="fill:none;"/>
  </g>
  <g id="axes_1">
   <g id="patch_2">
    <path d="M 52.239063 224.64 
L 387.039062 224.64 
L 387.039062 7.2 
L 52.239063 7.2 
z
" style="fill:#ffffff;"/>
   </g>
   <g id="matplotlib.axis_1">
    <g id="xtick_1">
     <g id="line2d_1">
      <defs>
       <path d="M 0 0 
L 0 3.5 
" id="m0b4f34837d" style="stroke:#000000;stroke-width:0.8;"/>
      </defs>
      <g>
       <use style="stroke:#000000;stroke-width:0.8;" x="74.316131" xlink:href="#m0b4f34837d" y="224.64"/>
      </g>
     </g>
     <g id="text_1">
      <!-- −3 -->
      <g transform="translate(66.945037 239.238437)scale(0.1 -0.1)">
       <defs>
        <path d="M 10.59375 35.5 
L 73.1875 35.5 
L 73.1875 27.203125 
L 10.59375 27.203125 
z
" id="DejaVuSans-8722"/>
        <path d="M 40.578125 39.3125 
Q 47.65625 37.796875 51.625 33 
Q 55.609375 28.21875 55.609375 21.1875 
Q 55.609375 10.40625 48.1875 4.484375 
Q 40.765625 -1.421875 27.09375 -1.421875 
Q 22.515625 -1.421875 17.65625 -0.515625 
Q 12.796875 0.390625 7.625 2.203125 
L 7.625 11.71875 
Q 11.71875 9.328125 16.59375 8.109375 
Q 21.484375 6.890625 26.8125 6.890625 
Q 36.078125 6.890625 40.9375 10.546875 
Q 45.796875 14.203125 45.796875 21.1875 
Q 45.796875 27.640625 41.28125 31.265625 
Q 36.765625 34.90625 28.71875 34.90625 
L 20.21875 34.90625 
L 20.21875 43.015625 
L 29.109375 43.015625 
Q 36.375 43.015625 40.234375 45.921875 
Q 44.09375 48.828125 44.09375 54.296875 
Q 44.09375 59.90625 40.109375 62.90625 
Q 36.140625 65.921875 28.71875 65.921875 
Q 24.65625 65.921875 20.015625 65.03125 
Q 15.375 64.15625 9.8125 62.3125 
L 9.8125 71.09375 
Q 15.4375 72.65625 20.34375 73.4375 
Q 25.25 74.21875 29.59375 74.21875 
Q 40.828125 74.21875 47.359375 69.109375 
Q 53.90625 64.015625 53.90625 55.328125 
Q 53.90625 49.265625 50.4375 45.09375 
Q 46.96875 40.921875 40.578125 39.3125 
z
" id="DejaVuSans-51"/>
       </defs>
       <use xlink:href="#DejaVuSans-8722"/>
       <use x="83.789062" xlink:href="#DejaVuSans-51"/>
      </g>
     </g>
    </g>
    <g id="xtick_2">
     <g id="line2d_2">
      <g>
       <use style="stroke:#000000;stroke-width:0.8;" x="122.757108" xlink:href="#m0b4f34837d" y="224.64"/>
      </g>
     </g>
     <g id="text_2">
      <!-- −2 -->
      <g transform="translate(115.386014 239.238437)scale(0.1 -0.1)">
       <defs>
        <path d="M 19.1875 8.296875 
L 53.609375 8.296875 
L 53.609375 0 
L 7.328125 0 
L 7.328125 8.296875 
Q 12.9375 14.109375 22.625 23.890625 
Q 32.328125 33.6875 34.8125 36.53125 
Q 39.546875 41.84375 41.421875 45.53125 
Q 43.3125 49.21875 43.3125 52.78125 
Q 43.3125 58.59375 39.234375 62.25 
Q 35.15625 65.921875 28.609375 65.921875 
Q 23.96875 65.921875 18.8125 64.3125 
Q 13.671875 62.703125 7.8125 59.421875 
L 7.8125 69.390625 
Q 13.765625 71.78125 18.9375 73 
Q 24.125 74.21875 28.421875 74.21875 
Q 39.75 74.21875 46.484375 68.546875 
Q 53.21875 62.890625 53.21875 53.421875 
Q 53.21875 48.921875 51.53125 44.890625 
Q 49.859375 40.875 45.40625 35.40625 
Q 44.1875 33.984375 37.640625 27.21875 
Q 31.109375 20.453125 19.1875 8.296875 
z
" id="DejaVuSans-50"/>
       </defs>
       <use xlink:href="#DejaVuSans-8722"/>
       <use x="83.789062" xlink:href="#DejaVuSans-50"/>
      </g>
     </g>
    </g>
    <g id="xtick_3">
     <g id="line2d_3">
      <g>
       <use style="stroke:#000000;stroke-width:0.8;" x="171.198085" xlink:href="#m0b4f34837d" y="224.64"/>
      </g>
     </g>
     <g id="text_3">
      <!-- −1 -->
      <g transform="translate(163.826992 239.238437)scale(0.1 -0.1)">
       <defs>
        <path d="M 12.40625 8.296875 
L 28.515625 8.296875 
L 28.515625 63.921875 
L 10.984375 60.40625 
L 10.984375 69.390625 
L 28.421875 72.90625 
L 38.28125 72.90625 
L 38.28125 8.296875 
L 54.390625 8.296875 
L 54.390625 0 
L 12.40625 0 
z
" id="DejaVuSans-49"/>
       </defs>
       <use xlink:href="#DejaVuSans-8722"/>
       <use x="83.789062" xlink:href="#DejaVuSans-49"/>
      </g>
     </g>
    </g>
    <g id="xtick_4">
     <g id="line2d_4">
      <g>
       <use style="stroke:#000000;stroke-width:0.8;" x="219.639063" xlink:href="#m0b4f34837d" y="224.64"/>
      </g>
     </g>
     <g id="text_4">
      <!-- 0 -->
      <g transform="translate(216.457813 239.238437)scale(0.1 -0.1)">
       <defs>
        <path d="M 31.78125 66.40625 
Q 24.171875 66.40625 20.328125 58.90625 
Q 16.5 51.421875 16.5 36.375 
Q 16.5 21.390625 20.328125 13.890625 
Q 24.171875 6.390625 31.78125 6.390625 
Q 39.453125 6.390625 43.28125 13.890625 
Q 47.125 21.390625 47.125 36.375 
Q 47.125 51.421875 43.28125 58.90625 
Q 39.453125 66.40625 31.78125 66.40625 
z
M 31.78125 74.21875 
Q 44.046875 74.21875 50.515625 64.515625 
Q 56.984375 54.828125 56.984375 36.375 
Q 56.984375 17.96875 50.515625 8.265625 
Q 44.046875 -1.421875 31.78125 -1.421875 
Q 19.53125 -1.421875 13.0625 8.265625 
Q 6.59375 17.96875 6.59375 36.375 
Q 6.59375 54.828125 13.0625 64.515625 
Q 19.53125 74.21875 31.78125 74.21875 
z
" id="DejaVuSans-48"/>
       </defs>
       <use xlink:href="#DejaVuSans-48"/>
      </g>
     </g>
    </g>
    <g id="xtick_5">
     <g id="line2d_5">
      <g>
       <use style="stroke:#000000;stroke-width:0.8;" x="268.08004" xlink:href="#m0b4f34837d" y="224.64"/>
      </g>
     </g>
     <g id="text_5">
      <!-- 1 -->
      <g transform="translate(264.89879 239.238437)scale(0.1 -0.1)">
       <use xlink:href="#DejaVuSans-49"/>
      </g>
     </g>
    </g>
    <g id="xtick_6">
     <g id="line2d_6">
      <g>
       <use style="stroke:#000000;stroke-width:0.8;" x="316.521017" xlink:href="#m0b4f34837d" y="224.64"/>
      </g>
     </g>
     <g id="text_6">
      <!-- 2 -->
      <g transform="translate(313.339767 239.238437)scale(0.1 -0.1)">
       <use xlink:href="#DejaVuSans-50"/>
      </g>
     </g>
    </g>
    <g id="xtick_7">
     <g id="line2d_7">
      <g>
       <use style="stroke:#000000;stroke-width:0.8;" x="364.961994" xlink:href="#m0b4f34837d" y="224.64"/>
      </g>
     </g>
     <g id="text_7">
      <!-- 3 -->
      <g transform="translate(361.780744 239.238437)scale(0.1 -0.1)">
       <use xlink:href="#DejaVuSans-51"/>
      </g>
     </g>
    </g>
    <g id="text_8">
     <!-- Junction phase θ (wrapped in the interval [-π, π]) -->
     <g transform="translate(97.789844 252.994687)scale(0.1 -0.1)">
      <defs>
       <path d="M 9.8125 72.90625 
L 19.671875 72.90625 
L 19.671875 5.078125 
Q 19.671875 -8.109375 14.671875 -14.0625 
Q 9.671875 -20.015625 -1.421875 -20.015625 
L -5.171875 -20.015625 
L -5.171875 -11.71875 
L -2.09375 -11.71875 
Q 4.4375 -11.71875 7.125 -8.046875 
Q 9.8125 -4.390625 9.8125 5.078125 
z
" id="DejaVuSans-74"/>
       <path d="M 8.5 21.578125 
L 8.5 54.6875 
L 17.484375 54.6875 
L 17.484375 21.921875 
Q 17.484375 14.15625 20.5 10.265625 
Q 23.53125 6.390625 29.59375 6.390625 
Q 36.859375 6.390625 41.078125 11.03125 
Q 45.3125 15.671875 45.3125 23.6875 
L 45.3125 54.6875 
L 54.296875 54.6875 
L 54.296875 0 
L 45.3125 0 
L 45.3125 8.40625 
Q 42.046875 3.421875 37.71875 1 
Q 33.40625 -1.421875 27.6875 -1.421875 
Q 18.265625 -1.421875 13.375 4.4375 
Q 8.5 10.296875 8.5 21.578125 
z
M 31.109375 56 
z
" id="DejaVuSans-117"/>
       <path d="M 54.890625 33.015625 
L 54.890625 0 
L 45.90625 0 
L 45.90625 32.71875 
Q 45.90625 40.484375 42.875 44.328125 
Q 39.84375 48.1875 33.796875 48.1875 
Q 26.515625 48.1875 22.3125 43.546875 
Q 18.109375 38.921875 18.109375 30.90625 
L 18.109375 0 
L 9.078125 0 
L 9.078125 54.6875 
L 18.109375 54.6875 
L 18.109375 46.1875 
Q 21.34375 51.125 25.703125 53.5625 
Q 30.078125 56 35.796875 56 
Q 45.21875 56 50.046875 50.171875 
Q 54.890625 44.34375 54.890625 33.015625 
z
" id="DejaVuSans-110"/>
       <path d="M 48.78125 52.59375 
L 48.78125 44.1875 
Q 44.96875 46.296875 41.140625 47.34375 
Q 37.3125 48.390625 33.40625 48.390625 
Q 24.65625 48.390625 19.8125 42.84375 
Q 14.984375 37.3125 14.984375 27.296875 
Q 14.984375 17.28125 19.8125 11.734375 
Q 24.65625 6.203125 33.40625 6.203125 
Q 37.3125 6.203125 41.140625 7.25 
Q 44.96875 8.296875 48.78125 10.40625 
L 48.78125 2.09375 
Q 45.015625 0.34375 40.984375 -0.53125 
Q 36.96875 -1.421875 32.421875 -1.421875 
Q 20.0625 -1.421875 12.78125 6.34375 
Q 5.515625 14.109375 5.515625 27.296875 
Q 5.515625 40.671875 12.859375 48.328125 
Q 20.21875 56 33.015625 56 
Q 37.15625 56 41.109375 55.140625 
Q 45.0625 54.296875 48.78125 52.59375 
z
" id="DejaVuSans-99"/>
       <path d="M 18.3125 70.21875 
L 18.3125 54.6875 
L 36.8125 54.6875 
L 36.8125 47.703125 
L 18.3125 47.703125 
L 18.3125 18.015625 
Q 18.3125 11.328125 20.140625 9.421875 
Q 21.96875 7.515625 27.59375 7.515625 
L 36.8125 7.515625 
L 36.8125 0 
L 27.59375 0 
Q 17.1875 0 13.234375 3.875 
Q 9.28125 7.765625 9.28125 18.015625 
L 9.28125 47.703125 
L 2.6875 47.703125 
L 2.6875 54.6875 
L 9.28125 54.6875 
L 9.28125 70.21875 
z
" id="DejaVuSans-116"/>
       <path d="M 9.421875 54.6875 
L 18.40625 54.6875 
L 18.40625 0 
L 9.421875 0 
z
M 9.421875 75.984375 
L 18.40625 75.984375 
L 18.40625 64.59375 
L 9.421875 64.59375 
z
" id="DejaVuSans-105"/>
       <path d="M 30.609375 48.390625 
Q 23.390625 48.390625 19.1875 42.75 
Q 14.984375 37.109375 14.984375 27.296875 
Q 14.984375 17.484375 19.15625 11.84375 
Q 23.34375 6.203125 30.609375 6.203125 
Q 37.796875 6.203125 41.984375 11.859375 
Q 46.1875 17.53125 46.1875 27.296875 
Q 46.1875 37.015625 41.984375 42.703125 
Q 37.796875 48.390625 30.609375 48.390625 
z
M 30.609375 56 
Q 42.328125 56 49.015625 48.375 
Q 55.71875 40.765625 55.71875 27.296875 
Q 55.71875 13.875 49.015625 6.21875 
Q 42.328125 -1.421875 30.609375 -1.421875 
Q 18.84375 -1.421875 12.171875 6.21875 
Q 5.515625 13.875 5.515625 27.296875 
Q 5.515625 40.765625 12.171875 48.375 
Q 18.84375 56 30.609375 56 
z
" id="DejaVuSans-111"/>
       <path id="DejaVuSans-32"/>
       <path d="M 18.109375 8.203125 
L 18.109375 -20.796875 
L 9.078125 -20.796875 
L 9.078125 54.6875 
L 18.109375 54.6875 
L 18.109375 46.390625 
Q 20.953125 51.265625 25.265625 53.625 
Q 29.59375 56 35.59375 56 
Q 45.5625 56 51.78125 48.09375 
Q 58.015625 40.1875 58.015625 27.296875 
Q 58.015625 14.40625 51.78125 6.484375 
Q 45.5625 -1.421875 35.59375 -1.421875 
Q 29.59375 -1.421875 25.265625 0.953125 
Q 20.953125 3.328125 18.109375 8.203125 
z
M 48.6875 27.296875 
Q 48.6875 37.203125 44.609375 42.84375 
Q 40.53125 48.484375 33.40625 48.484375 
Q 26.265625 48.484375 22.1875 42.84375 
Q 18.109375 37.203125 18.109375 27.296875 
Q 18.109375 17.390625 22.1875 11.75 
Q 26.265625 6.109375 33.40625 6.109375 
Q 40.53125 6.109375 44.609375 11.75 
Q 48.6875 17.390625 48.6875 27.296875 
z
" id="DejaVuSans-112"/>
       <path d="M 54.890625 33.015625 
L 54.890625 0 
L 45.90625 0 
L 45.90625 32.71875 
Q 45.90625 40.484375 42.875 44.328125 
Q 39.84375 48.1875 33.796875 48.1875 
Q 26.515625 48.1875 22.3125 43.546875 
Q 18.109375 38.921875 18.109375 30.90625 
L 18.109375 0 
L 9.078125 0 
L 9.078125 75.984375 
L 18.109375 75.984375 
L 18.109375 46.1875 
Q 21.34375 51.125 25.703125 53.5625 
Q 30.078125 56 35.796875 56 
Q 45.21875 56 50.046875 50.171875 
Q 54.890625 44.34375 54.890625 33.015625 
z
" id="DejaVuSans-104"/>
       <path d="M 34.28125 27.484375 
Q 23.390625 27.484375 19.1875 25 
Q 14.984375 22.515625 14.984375 16.5 
Q 14.984375 11.71875 18.140625 8.90625 
Q 21.296875 6.109375 26.703125 6.109375 
Q 34.1875 6.109375 38.703125 11.40625 
Q 43.21875 16.703125 43.21875 25.484375 
L 43.21875 27.484375 
z
M 52.203125 31.203125 
L 52.203125 0 
L 43.21875 0 
L 43.21875 8.296875 
Q 40.140625 3.328125 35.546875 0.953125 
Q 30.953125 -1.421875 24.3125 -1.421875 
Q 15.921875 -1.421875 10.953125 3.296875 
Q 6 8.015625 6 15.921875 
Q 6 25.140625 12.171875 29.828125 
Q 18.359375 34.515625 30.609375 34.515625 
L 43.21875 34.515625 
L 43.21875 35.40625 
Q 43.21875 41.609375 39.140625 45 
Q 35.0625 48.390625 27.6875 48.390625 
Q 23 48.390625 18.546875 47.265625 
Q 14.109375 46.140625 10.015625 43.890625 
L 10.015625 52.203125 
Q 14.9375 54.109375 19.578125 55.046875 
Q 24.21875 56 28.609375 56 
Q 40.484375 56 46.34375 49.84375 
Q 52.203125 43.703125 52.203125 31.203125 
z
" id="DejaVuSans-97"/>
       <path d="M 44.28125 53.078125 
L 44.28125 44.578125 
Q 40.484375 46.53125 36.375 47.5 
Q 32.28125 48.484375 27.875 48.484375 
Q 21.1875 48.484375 17.84375 46.4375 
Q 14.5 44.390625 14.5 40.28125 
Q 14.5 37.15625 16.890625 35.375 
Q 19.28125 33.59375 26.515625 31.984375 
L 29.59375 31.296875 
Q 39.15625 29.25 43.1875 25.515625 
Q 47.21875 21.78125 47.21875 15.09375 
Q 47.21875 7.46875 41.1875 3.015625 
Q 35.15625 -1.421875 24.609375 -1.421875 
Q 20.21875 -1.421875 15.453125 -0.5625 
Q 10.6875 0.296875 5.421875 2 
L 5.421875 11.28125 
Q 10.40625 8.6875 15.234375 7.390625 
Q 20.0625 6.109375 24.8125 6.109375 
Q 31.15625 6.109375 34.5625 8.28125 
Q 37.984375 10.453125 37.984375 14.40625 
Q 37.984375 18.0625 35.515625 20.015625 
Q 33.0625 21.96875 24.703125 23.78125 
L 21.578125 24.515625 
Q 13.234375 26.265625 9.515625 29.90625 
Q 5.8125 33.546875 5.8125 39.890625 
Q 5.8125 47.609375 11.28125 51.796875 
Q 16.75 56 26.8125 56 
Q 31.78125 56 36.171875 55.265625 
Q 40.578125 54.546875 44.28125 53.078125 
z
" id="DejaVuSans-115"/>
       <path d="M 56.203125 29.59375 
L 56.203125 25.203125 
L 14.890625 25.203125 
Q 15.484375 15.921875 20.484375 11.0625 
Q 25.484375 6.203125 34.421875 6.203125 
Q 39.59375 6.203125 44.453125 7.46875 
Q 49.3125 8.734375 54.109375 11.28125 
L 54.109375 2.78125 
Q 49.265625 0.734375 44.1875 -0.34375 
Q 39.109375 -1.421875 33.890625 -1.421875 
Q 20.796875 -1.421875 13.15625 6.1875 
Q 5.515625 13.8125 5.515625 26.8125 
Q 5.515625 40.234375 12.765625 48.109375 
Q 20.015625 56 32.328125 56 
Q 43.359375 56 49.78125 48.890625 
Q 56.203125 41.796875 56.203125 29.59375 
z
M 47.21875 32.234375 
Q 47.125 39.59375 43.09375 43.984375 
Q 39.0625 48.390625 32.421875 48.390625 
Q 24.90625 48.390625 20.390625 44.140625 
Q 15.875 39.890625 15.1875 32.171875 
z
" id="DejaVuSans-101"/>
       <path d="M 46.140625 34.671875 
L 15.046875 34.671875 
Q 15.765625 20.0625 19.140625 13.875 
Q 23.34375 6.25 30.609375 6.25 
Q 37.9375 6.25 42 13.921875 
Q 45.5625 20.65625 46.140625 34.671875 
z
M 46 42.96875 
Q 44.625 56.84375 42 61.71875 
Q 37.796875 69.4375 30.609375 69.4375 
Q 23.140625 69.4375 19.1875 61.8125 
Q 16.0625 55.671875 15.140625 42.96875 
z
M 30.609375 76.765625 
Q 42.328125 76.765625 49.03125 66.40625 
Q 55.71875 56.109375 55.71875 37.84375 
Q 55.71875 19.625 49.03125 9.28125 
Q 42.328125 -1.125 30.609375 -1.125 
Q 18.84375 -1.125 12.203125 9.28125 
Q 5.515625 19.625 5.515625 37.84375 
Q 5.515625 56.109375 12.203125 66.40625 
Q 18.84375 76.765625 30.609375 76.765625 
z
" id="DejaVuSans-952"/>
       <path d="M 31 75.875 
Q 24.46875 64.65625 21.28125 53.65625 
Q 18.109375 42.671875 18.109375 31.390625 
Q 18.109375 20.125 21.3125 9.0625 
Q 24.515625 -2 31 -13.1875 
L 23.1875 -13.1875 
Q 15.875 -1.703125 12.234375 9.375 
Q 8.59375 20.453125 8.59375 31.390625 
Q 8.59375 42.28125 12.203125 53.3125 
Q 15.828125 64.359375 23.1875 75.875 
z
" id="DejaVuSans-40"/>
       <path d="M 4.203125 54.6875 
L 13.1875 54.6875 
L 24.421875 12.015625 
L 35.59375 54.6875 
L 46.1875 54.6875 
L 57.421875 12.015625 
L 68.609375 54.6875 
L 77.59375 54.6875 
L 63.28125 0 
L 52.6875 0 
L 40.921875 44.828125 
L 29.109375 0 
L 18.5 0 
z
" id="DejaVuSans-119"/>
       <path d="M 41.109375 46.296875 
Q 39.59375 47.171875 37.8125 47.578125 
Q 36.03125 48 33.890625 48 
Q 26.265625 48 22.1875 43.046875 
Q 18.109375 38.09375 18.109375 28.8125 
L 18.109375 0 
L 9.078125 0 
L 9.078125 54.6875 
L 18.109375 54.6875 
L 18.109375 46.1875 
Q 20.953125 51.171875 25.484375 53.578125 
Q 30.03125 56 36.53125 56 
Q 37.453125 56 38.578125 55.875 
Q 39.703125 55.765625 41.0625 55.515625 
z
" id="DejaVuSans-114"/>
       <path d="M 45.40625 46.390625 
L 45.40625 75.984375 
L 54.390625 75.984375 
L 54.390625 0 
L 45.40625 0 
L 45.40625 8.203125 
Q 42.578125 3.328125 38.25 0.953125 
Q 33.9375 -1.421875 27.875 -1.421875 
Q 17.96875 -1.421875 11.734375 6.484375 
Q 5.515625 14.40625 5.515625 27.296875 
Q 5.515625 40.1875 11.734375 48.09375 
Q 17.96875 56 27.875 56 
Q 33.9375 56 38.25 53.625 
Q 42.578125 51.265625 45.40625 46.390625 
z
M 14.796875 27.296875 
Q 14.796875 17.390625 18.875 11.75 
Q 22.953125 6.109375 30.078125 6.109375 
Q 37.203125 6.109375 41.296875 11.75 
Q 45.40625 17.390625 45.40625 27.296875 
Q 45.40625 37.203125 41.296875 42.84375 
Q 37.203125 48.484375 30.078125 48.484375 
Q 22.953125 48.484375 18.875 42.84375 
Q 14.796875 37.203125 14.796875 27.296875 
z
" id="DejaVuSans-100"/>
       <path d="M 2.984375 54.6875 
L 12.5 54.6875 
L 29.59375 8.796875 
L 46.6875 54.6875 
L 56.203125 54.6875 
L 35.6875 0 
L 23.484375 0 
z
" id="DejaVuSans-118"/>
       <path d="M 9.421875 75.984375 
L 18.40625 75.984375 
L 18.40625 0 
L 9.421875 0 
z
" id="DejaVuSans-108"/>
       <path d="M 8.59375 75.984375 
L 29.296875 75.984375 
L 29.296875 69 
L 17.578125 69 
L 17.578125 -6.203125 
L 29.296875 -6.203125 
L 29.296875 -13.1875 
L 8.59375 -13.1875 
z
" id="DejaVuSans-91"/>
       <path d="M 4.890625 31.390625 
L 31.203125 31.390625 
L 31.203125 23.390625 
L 4.890625 23.390625 
z
" id="DejaVuSans-45"/>
       <path d="M 3.609375 54.6875 
L 56 54.6875 
L 56 45.703125 
L 49.125 45.703125 
L 49.125 12.109375 
Q 49.125 8.59375 50.3125 7.046875 
Q 51.515625 5.515625 54.203125 5.515625 
Q 54.9375 5.515625 56 5.640625 
Q 57.078125 5.765625 57.421875 5.8125 
L 57.421875 -0.6875 
Q 55.71875 -1.3125 53.90625 -1.609375 
Q 52.09375 -1.90625 50.296875 -1.90625 
Q 44.4375 -1.90625 42.1875 1.296875 
Q 39.9375 4.5 39.9375 13.09375 
L 39.9375 45.703125 
L 19.78125 45.703125 
L 19.78125 0 
L 10.59375 0 
L 10.59375 45.703125 
L 3.609375 45.703125 
z
" id="DejaVuSans-960"/>
       <path d="M 11.71875 12.40625 
L 22.015625 12.40625 
L 22.015625 4 
L 14.015625 -11.625 
L 7.71875 -11.625 
L 11.71875 4 
z
" id="DejaVuSans-44"/>
       <path d="M 30.421875 75.984375 
L 30.421875 -13.1875 
L 9.71875 -13.1875 
L 9.71875 -6.203125 
L 21.390625 -6.203125 
L 21.390625 69 
L 9.71875 69 
L 9.71875 75.984375 
z
" id="DejaVuSans-93"/>
       <path d="M 8.015625 75.875 
L 15.828125 75.875 
Q 23.140625 64.359375 26.78125 53.3125 
Q 30.421875 42.28125 30.421875 31.390625 
Q 30.421875 20.453125 26.78125 9.375 
Q 23.140625 -1.703125 15.828125 -13.1875 
L 8.015625 -13.1875 
Q 14.5 -2 17.703125 9.0625 
Q 20.90625 20.125 20.90625 31.390625 
Q 20.90625 42.671875 17.703125 53.65625 
Q 14.5 64.65625 8.015625 75.875 
z
" id="DejaVuSans-41"/>
      </defs>
      <use xlink:href="#DejaVuSans-74"/>
      <use x="29.492188" xlink:href="#DejaVuSans-117"/>
      <use x="92.871094" xlink:href="#DejaVuSans-110"/>
      <use x="156.25" xlink:href="#DejaVuSans-99"/>
      <use x="211.230469" xlink:href="#DejaVuSans-116"/>
      <use x="250.439453" xlink:href="#DejaVuSans-105"/>
      <use x="278.222656" xlink:href="#DejaVuSans-111"/>
      <use x="339.404297" xlink:href="#DejaVuSans-110"/>
      <use x="402.783203" xlink:href="#DejaVuSans-32"/>
      <use x="434.570312" xlink:href="#DejaVuSans-112"/>
      <use x="498.046875" xlink:href="#DejaVuSans-104"/>
      <use x="561.425781" xlink:href="#DejaVuSans-97"/>
      <use x="622.705078" xlink:href="#DejaVuSans-115"/>
      <use x="674.804688" xlink:href="#DejaVuSans-101"/>
      <use x="736.328125" xlink:href="#DejaVuSans-32"/>
      <use x="768.115234" xlink:href="#DejaVuSans-952"/>
      <use x="829.296875" xlink:href="#DejaVuSans-32"/>
      <use x="861.083984" xlink:href="#DejaVuSans-40"/>
      <use x="900.097656" xlink:href="#DejaVuSans-119"/>
      <use x="981.884766" xlink:href="#DejaVuSans-114"/>
      <use x="1022.998047" xlink:href="#DejaVuSans-97"/>
      <use x="1084.277344" xlink:href="#DejaVuSans-112"/>
      <use x="1147.753906" xlink:href="#DejaVuSans-112"/>
      <use x="1211.230469" xlink:href="#DejaVuSans-101"/>
      <use x="1272.753906" xlink:href="#DejaVuSans-100"/>
      <use x="1336.230469" xlink:href="#DejaVuSans-32"/>
      <use x="1368.017578" xlink:href="#DejaVuSans-105"/>
      <use x="1395.800781" xlink:href="#DejaVuSans-110"/>
      <use x="1459.179688" xlink:href="#DejaVuSans-32"/>
      <use x="1490.966797" xlink:href="#DejaVuSans-116"/>
      <use x="1530.175781" xlink:href="#DejaVuSans-104"/>
      <use x="1593.554688" xlink:href="#DejaVuSans-101"/>
      <use x="1655.078125" xlink:href="#DejaVuSans-32"/>
      <use x="1686.865234" xlink:href="#DejaVuSans-105"/>
      <use x="1714.648438" xlink:href="#DejaVuSans-110"/>
      <use x="1778.027344" xlink:href="#DejaVuSans-116"/>
      <use x="1817.236328" xlink:href="#DejaVuSans-101"/>
      <use x="1878.759766" xlink:href="#DejaVuSans-114"/>
      <use x="1919.873047" xlink:href="#DejaVuSans-118"/>
      <use x="1979.052734" xlink:href="#DejaVuSans-97"/>
      <use x="2040.332031" xlink:href="#DejaVuSans-108"/>
      <use x="2068.115234" xlink:href="#DejaVuSans-32"/>
      <use x="2099.902344" xlink:href="#DejaVuSans-91"/>
      <use x="2138.916016" xlink:href="#DejaVuSans-45"/>
      <use x="2175" xlink:href="#DejaVuSans-960"/>
      <use x="2235.205078" xlink:href="#DejaVuSans-44"/>
      <use x="2266.992188" xlink:href="#DejaVuSans-32"/>
      <use x="2298.779297" xlink:href="#DejaVuSans-960"/>
      <use x="2358.984375" xlink:href="#DejaVuSans-93"/>
      <use x="2397.998047" xlink:href="#DejaVuSans-41"/>
     </g>
    </g>
   </g>
   <g id="matplotlib.axis_2">
    <g id="ytick_1">
     <g id="line2d_8">
      <defs>
       <path d="M 0 0 
L -3.5 0 
" id="m78d6b691be" style="stroke:#000000;stroke-width:0.8;"/>
      </defs>
      <g>
       <use style="stroke:#000000;stroke-width:0.8;" x="52.239063" xlink:href="#m78d6b691be" y="218.657323"/>
      </g>
     </g>
     <g id="text_9">
      <!-- −0.2 -->
      <g transform="translate(20.95625 222.456542)scale(0.1 -0.1)">
       <defs>
        <path d="M 10.6875 12.40625 
L 21 12.40625 
L 21 0 
L 10.6875 0 
z
" id="DejaVuSans-46"/>
       </defs>
       <use xlink:href="#DejaVuSans-8722"/>
       <use x="83.789062" xlink:href="#DejaVuSans-48"/>
       <use x="147.412109" xlink:href="#DejaVuSans-46"/>
       <use x="179.199219" xlink:href="#DejaVuSans-50"/>
      </g>
     </g>
    </g>
    <g id="ytick_2">
     <g id="line2d_9">
      <g>
       <use style="stroke:#000000;stroke-width:0.8;" x="52.239063" xlink:href="#m78d6b691be" y="171.356051"/>
      </g>
     </g>
     <g id="text_10">
      <!-- −0.1 -->
      <g transform="translate(20.95625 175.15527)scale(0.1 -0.1)">
       <use xlink:href="#DejaVuSans-8722"/>
       <use x="83.789062" xlink:href="#DejaVuSans-48"/>
       <use x="147.412109" xlink:href="#DejaVuSans-46"/>
       <use x="179.199219" xlink:href="#DejaVuSans-49"/>
      </g>
     </g>
    </g>
    <g id="ytick_3">
     <g id="line2d_10">
      <g>
       <use style="stroke:#000000;stroke-width:0.8;" x="52.239063" xlink:href="#m78d6b691be" y="124.054779"/>
      </g>
     </g>
     <g id="text_11">
      <!-- 0.0 -->
      <g transform="translate(29.335938 127.853998)scale(0.1 -0.1)">
       <use xlink:href="#DejaVuSans-48"/>
       <use x="63.623047" xlink:href="#DejaVuSans-46"/>
       <use x="95.410156" xlink:href="#DejaVuSans-48"/>
      </g>
     </g>
    </g>
    <g id="ytick_4">
     <g id="line2d_11">
      <g>
       <use style="stroke:#000000;stroke-width:0.8;" x="52.239063" xlink:href="#m78d6b691be" y="76.753507"/>
      </g>
     </g>
     <g id="text_12">
      <!-- 0.1 -->
      <g transform="translate(29.335938 80.552726)scale(0.1 -0.1)">
       <use xlink:href="#DejaVuSans-48"/>
       <use x="63.623047" xlink:href="#DejaVuSans-46"/>
       <use x="95.410156" xlink:href="#DejaVuSans-49"/>
      </g>
     </g>
    </g>
    <g id="ytick_5">
     <g id="line2d_12">
      <g>
       <use style="stroke:#000000;stroke-width:0.8;" x="52.239063" xlink:href="#m78d6b691be" y="29.452235"/>
      </g>
     </g>
     <g id="text_13">
      <!-- 0.2 -->
      <g transform="translate(29.335938 33.251454)scale(0.1 -0.1)">
       <use xlink:href="#DejaVuSans-48"/>
       <use x="63.623047" xlink:href="#DejaVuSans-46"/>
       <use x="95.410156" xlink:href="#DejaVuSans-50"/>
      </g>
     </g>
    </g>
    <g id="text_14">
     <!-- Re(ψ(θ)) -->
     <g transform="translate(14.876562 136.406719)rotate(-90)scale(0.1 -0.1)">
      <defs>
       <path d="M 44.390625 34.1875 
Q 47.5625 33.109375 50.5625 29.59375 
Q 53.5625 26.078125 56.59375 19.921875 
L 66.609375 0 
L 56 0 
L 46.6875 18.703125 
Q 43.0625 26.03125 39.671875 28.421875 
Q 36.28125 30.8125 30.421875 30.8125 
L 19.671875 30.8125 
L 19.671875 0 
L 9.8125 0 
L 9.8125 72.90625 
L 32.078125 72.90625 
Q 44.578125 72.90625 50.734375 67.671875 
Q 56.890625 62.453125 56.890625 51.90625 
Q 56.890625 45.015625 53.6875 40.46875 
Q 50.484375 35.9375 44.390625 34.1875 
z
M 19.671875 64.796875 
L 19.671875 38.921875 
L 32.078125 38.921875 
Q 39.203125 38.921875 42.84375 42.21875 
Q 46.484375 45.515625 46.484375 51.90625 
Q 46.484375 58.296875 42.84375 61.546875 
Q 39.203125 64.796875 32.078125 64.796875 
z
" id="DejaVuSans-82"/>
       <path d="M 28.375 -1.21875 
Q 17.09375 0.59375 11.859375 5.328125 
Q 5.46875 11.140625 5.46875 23 
L 5.46875 54.6875 
L 14.546875 54.6875 
L 14.546875 23.34375 
Q 14.546875 14.40625 18.703125 10.6875 
Q 22.3125 7.46875 28.375 6.78125 
L 28.375 54.6875 
L 37.3125 54.6875 
L 37.3125 6.84375 
Q 43.703125 7.515625 46.96875 10.75 
Q 51.125 14.84375 51.125 23.390625 
L 51.125 54.6875 
L 60.203125 54.6875 
L 60.203125 23.046875 
Q 60.203125 10.75 53.8125 5.375 
Q 48.046875 0.53125 37.3125 -1.171875 
L 37.3125 -20.796875 
L 28.375 -20.796875 
z
" id="DejaVuSans-968"/>
      </defs>
      <use xlink:href="#DejaVuSans-82"/>
      <use x="64.982422" xlink:href="#DejaVuSans-101"/>
      <use x="126.505859" xlink:href="#DejaVuSans-40"/>
      <use x="165.519531" xlink:href="#DejaVuSans-968"/>
      <use x="231.486328" xlink:href="#DejaVuSans-40"/>
      <use x="270.5" xlink:href="#DejaVuSans-952"/>
      <use x="331.681641" xlink:href="#DejaVuSans-41"/>
      <use x="370.695312" xlink:href="#DejaVuSans-41"/>
     </g>
    </g>
   </g>
   <g id="line2d_13">
    <path clip-path="url(#p99b6076026)" d="M 67.457244 125.239466 
L 70.500881 125.200697 
L 73.544517 125.085686 
L 76.588153 124.900862 
L 79.63179 124.65655 
L 82.675426 124.366372 
L 85.719063 124.046456 
L 88.762699 123.714463 
L 91.806335 123.388501 
L 94.849972 123.085948 
L 97.893608 122.822251 
L 100.937244 122.609757 
L 103.980881 122.456614 
L 107.024517 122.365806 
L 110.068153 122.334374 
L 113.11179 122.352845 
L 116.155426 122.40492 
L 119.199063 122.467447 
L 122.242699 122.510671 
L 125.286335 122.498794 
L 128.329972 122.390811 
L 131.373608 122.141626 
L 134.417244 121.703391 
L 137.460881 121.02706 
L 140.504517 120.064082 
L 143.548153 118.768189 
L 146.59179 117.097226 
L 149.635426 115.014946 
L 152.679063 112.492714 
L 155.722699 109.511054 
L 158.766335 106.060983 
L 161.809972 102.145079 
L 164.853608 97.77823 
L 167.897244 92.98804 
L 170.940881 87.814857 
L 173.984517 82.311418 
L 177.028153 76.5421 
L 180.07179 70.581806 
L 183.115426 64.514491 
L 186.159063 58.431378 
L 189.202699 52.428915 
L 192.246335 46.606511 
L 195.289972 41.064135 
L 198.333608 35.899845 
L 201.377244 31.207304 
L 204.420881 27.073383 
L 207.464517 23.575899 
L 210.508153 20.781573 
L 213.55179 18.744268 
L 216.595426 17.503551 
L 219.639063 17.083636 
L 222.682699 17.492738 
L 225.726335 18.722849 
L 228.769972 20.749953 
L 231.813608 23.534673 
L 234.857244 27.023322 
L 237.900881 31.149331 
L 240.944517 35.835014 
L 243.988153 40.993603 
L 247.03179 46.531507 
L 250.075426 52.350713 
L 253.119063 58.351261 
L 256.162699 64.433724 
L 259.206335 70.501605 
L 262.249972 76.463604 
L 265.293608 82.235666 
L 268.337244 87.742766 
L 271.380881 92.920389 
L 274.424517 97.715647 
L 277.468153 102.088033 
L 280.51179 106.009783 
L 283.555426 109.465851 
L 286.599063 112.453507 
L 289.642699 114.981591 
L 292.686335 117.069454 
L 295.729972 118.745622 
L 298.773608 120.046252 
L 301.817244 121.013432 
L 304.860881 121.693383 
L 307.904517 122.134636 
L 310.948153 122.386235 
L 313.99179 122.496046 
L 317.035426 122.509205 
L 320.079063 122.466768 
L 323.122699 122.4046 
L 326.166335 122.352531 
L 329.209972 122.333794 
L 332.253608 122.364769 
L 335.297244 122.45501 
L 338.340881 122.607555 
L 341.384517 122.819486 
L 344.428153 123.082715 
L 347.47179 123.384941 
L 350.515426 123.71075 
L 353.559063 124.042781 
L 356.602699 124.362934 
L 359.646335 124.653537 
L 362.689972 124.898441 
L 365.733608 125.083992 
L 368.777244 125.199825 
L 371.820881 125.239466 
" style="fill:none;stroke:#1f77b4;stroke-linecap:square;stroke-width:1.5;"/>
   </g>
   <g id="line2d_14">
    <path clip-path="url(#p99b6076026)" d="M 67.457244 124.050558 
L 70.500881 123.126414 
L 73.544517 122.253487 
L 76.588153 121.479598 
L 79.63179 120.846341 
L 82.675426 120.386326 
L 85.719063 120.120806 
L 88.762699 120.05781 
L 91.806335 120.190863 
L 94.849972 120.498366 
L 97.893608 120.943664 
L 100.937244 121.47582 
L 103.980881 122.031081 
L 107.024517 122.534995 
L 110.068153 122.9051 
L 113.11179 123.0541 
L 116.155426 122.893415 
L 119.199063 122.336971 
L 122.242699 121.305088 
L 125.286335 119.728321 
L 128.329972 117.551102 
L 131.373608 114.735036 
L 134.417244 111.261718 
L 137.460881 107.134945 
L 140.504517 102.382228 
L 143.548153 97.05552 
L 146.59179 91.231108 
L 149.635426 85.008649 
L 152.679063 78.509356 
L 155.722699 71.873372 
L 158.766335 65.256389 
L 161.809972 58.825625 
L 164.853608 52.755258 
L 167.897244 47.221467 
L 170.940881 42.397231 
L 173.984517 38.447057 
L 177.028153 35.521799 
L 180.07179 33.753749 
L 183.115426 33.252161 
L 186.159063 34.099355 
L 189.202699 36.347551 
L 192.246335 40.016527 
L 195.289972 45.092204 
L 198.333608 51.52621 
L 201.377244 59.236449 
L 204.420881 68.108672 
L 207.464517 77.999005 
L 210.508153 88.73738 
L 213.55179 100.131745 
L 216.595426 111.972955 
L 219.639063 124.040179 
L 222.682699 136.106662 
L 225.726335 147.945673 
L 228.769972 159.33645 
L 231.813608 170.069964 
L 234.857244 179.954317 
L 237.900881 188.81963 
L 240.944517 196.52225 
L 243.988153 202.948169 
L 247.03179 208.015548 
L 250.075426 211.676277 
L 253.119063 213.916539 
L 256.162699 214.756364 
L 259.206335 214.248201 
L 262.249972 212.474582 
L 265.293608 209.544935 
L 268.337244 205.591694 
L 271.380881 200.76581 
L 274.424517 195.231848 
L 277.468153 189.162799 
L 280.51179 182.734809 
L 283.555426 176.121984 
L 286.599063 169.491428 
L 289.642699 162.998688 
L 292.686335 156.783728 
L 295.729972 150.967563 
L 298.773608 145.649636 
L 301.817244 140.906011 
L 304.860881 136.788415 
L 307.904517 133.324143 
L 310.948153 130.516788 
L 313.99179 128.347759 
L 317.035426 126.778502 
L 320.079063 125.753321 
L 323.122699 125.202675 
L 326.166335 125.046821 
L 329.209972 125.199662 
L 332.253608 125.572626 
L 335.297244 126.078463 
L 338.340881 126.634783 
L 341.384517 127.167234 
L 344.428153 127.612184 
L 347.47179 127.918835 
L 350.515426 128.050675 
L 353.559063 127.986252 
L 356.602699 127.719238 
L 359.646335 127.257795 
L 362.689972 126.623294 
L 365.733608 125.848442 
L 368.777244 124.974908 
L 371.820881 124.050558 
" style="fill:none;stroke:#ff7f0e;stroke-linecap:square;stroke-width:1.5;"/>
   </g>
   <g id="line2d_15">
    <path clip-path="url(#p99b6076026)" d="M 67.457244 132.033846 
L 70.500881 131.849815 
L 73.544517 131.310336 
L 76.588153 130.45662 
L 79.63179 129.35541 
L 82.675426 128.096038 
L 85.719063 126.786465 
L 88.762699 125.548457 
L 91.806335 124.512076 
L 94.849972 123.809712 
L 97.893608 123.56988 
L 100.937244 123.911028 
L 103.980881 124.935606 
L 107.024517 126.72462 
L 110.068153 129.332916 
L 113.11179 132.785361 
L 116.155426 137.074109 
L 119.199063 142.157074 
L 122.242699 147.957676 
L 125.286335 154.365922 
L 128.329972 161.240788 
L 131.373608 168.413853 
L 134.417244 175.69408 
L 137.460881 182.873576 
L 140.504517 189.734168 
L 143.548153 196.054554 
L 146.59179 201.617792 
L 149.635426 206.218876 
L 152.679063 209.672112 
L 155.722699 211.818052 
L 158.766335 212.529721 
L 161.809972 211.717917 
L 164.853608 209.33537 
L 167.897244 205.379617 
L 170.940881 199.894449 
L 173.984517 192.969879 
L 177.028153 184.740592 
L 180.07179 175.382914 
L 183.115426 165.11038 
L 186.159063 154.168029 
L 189.202699 142.825587 
L 192.246335 131.369779 
L 195.289972 120.095977 
L 198.333608 109.299479 
L 201.377244 99.266687 
L 204.420881 90.266475 
L 207.464517 82.542028 
L 210.508153 76.303418 
L 213.55179 71.721169 
L 216.595426 68.921004 
L 219.639063 67.979979 
L 222.682699 68.924093 
L 225.726335 71.727492 
L 228.769972 76.313262 
L 231.813608 82.555804 
L 234.857244 90.284704 
L 237.900881 99.28997 
L 240.944517 109.328474 
L 243.988153 120.131362 
L 247.03179 131.412222 
L 250.075426 142.875709 
L 253.119063 154.226372 
L 256.162699 165.177375 
L 259.206335 175.458847 
L 262.249972 184.825586 
L 265.293608 193.063871 
L 268.337244 199.997176 
L 271.380881 205.490611 
L 274.424517 209.453959 
L 277.468153 211.843231 
L 280.51179 212.660707 
L 283.555426 211.953495 
L 286.599063 209.810663 
L 289.642699 206.359083 
L 292.686335 201.758138 
L 295.729972 196.193494 
L 298.773608 189.870172 
L 301.817244 183.005168 
L 304.860881 175.819878 
L 307.904517 168.532606 
L 310.948153 161.35141 
L 313.99179 154.467521 
L 317.035426 148.049572 
L 320.079063 142.238818 
L 323.122699 137.145489 
L 326.166335 132.846404 
L 329.209972 129.38388 
L 332.253608 126.765978 
L 335.297244 124.968025 
L 338.340881 123.935342 
L 341.384517 123.587054 
L 344.428153 123.820808 
L 347.47179 124.51821 
L 350.515426 125.550758 
L 353.559063 126.786033 
L 356.602699 128.093903 
L 359.646335 129.352497 
L 362.689972 130.453711 
L 365.733608 131.308044 
L 368.777244 131.848562 
L 371.820881 132.033846 
" style="fill:none;stroke:#2ca02c;stroke-linecap:square;stroke-width:1.5;"/>
   </g>
   <g id="patch_3">
    <path d="M 52.239063 224.64 
L 52.239063 7.2 
" style="fill:none;stroke:#000000;stroke-linecap:square;stroke-linejoin:miter;stroke-width:0.8;"/>
   </g>
   <g id="patch_4">
    <path d="M 387.039062 224.64 
L 387.039062 7.2 
" style="fill:none;stroke:#000000;stroke-linecap:square;stroke-linejoin:miter;stroke-width:0.8;"/>
   </g>
   <g id="patch_5">
    <path d="M 52.239063 224.64 
L 387.039062 224.64 
" style="fill:none;stroke:#000000;stroke-linecap:square;stroke-linejoin:miter;stroke-width:0.8;"/>
   </g>
   <g id="patch_6">
    <path d="M 52.239063 7.2 
L 387.039062 7.2 
" style="fill:none;stroke:#000000;stroke-linecap:square;stroke-linejoin:miter;stroke-width:0.8;"/>
   </g>
   <g id="legend_1">
    <g id="patch_7">
     <path d="M 329.928125 74.878125 
L 380.039062 74.878125 
Q 382.039062 74.878125 382.039062 72.878125 
L 382.039062 14.2 
Q 382.039062 12.2 380.039062 12.2 
L 329.928125 12.2 
Q 327.928125 12.2 327.928125 14.2 
L 327.928125 72.878125 
Q 327.928125 74.878125 329.928125 74.878125 
z
" style="fill:#ffffff;opacity:0.8;stroke:#cccccc;stroke-linejoin:miter;"/>
    </g>
    <g id="text_15">
     <!-- Level -->
     <g transform="translate(341.783594 23.798437)scale(0.1 -0.1)">
      <defs>
       <path d="M 9.8125 72.90625 
L 19.671875 72.90625 
L 19.671875 8.296875 
L 55.171875 8.296875 
L 55.171875 0 
L 9.8125 0 
z
" id="DejaVuSans-76"/>
      </defs>
      <use xlink:href="#DejaVuSans-76"/>
      <use x="53.962891" xlink:href="#DejaVuSans-101"/>
      <use x="115.486328" xlink:href="#DejaVuSans-118"/>
      <use x="174.666016" xlink:href="#DejaVuSans-101"/>
      <use x="236.189453" xlink:href="#DejaVuSans-108"/>
     </g>
    </g>
    <g id="line2d_16">
     <path d="M 331.928125 35.020312 
L 351.928125 35.020312 
" style="fill:none;stroke:#1f77b4;stroke-linecap:square;stroke-width:1.5;"/>
    </g>
    <g id="line2d_17"/>
    <g id="text_16">
     <!-- |0&gt; -->
     <g transform="translate(359.928125 38.520312)scale(0.1 -0.1)">
      <defs>
       <path d="M 21 76.421875 
L 21 -23.578125 
L 12.703125 -23.578125 
L 12.703125 76.421875 
z
" id="DejaVuSans-124"/>
       <path d="M 10.59375 49.21875 
L 10.59375 58.109375 
L 73.1875 35.40625 
L 73.1875 27.296875 
L 10.59375 4.59375 
L 10.59375 13.484375 
L 60.890625 31.296875 
z
" id="DejaVuSans-62"/>
      </defs>
      <use xlink:href="#DejaVuSans-124"/>
      <use x="33.691406" xlink:href="#DejaVuSans-48"/>
      <use x="97.314453" xlink:href="#DejaVuSans-62"/>
     </g>
    </g>
    <g id="line2d_18">
     <path d="M 331.928125 50.020312 
L 351.928125 50.020312 
" style="fill:none;stroke:#ff7f0e;stroke-linecap:square;stroke-width:1.5;"/>
    </g>
    <g id="line2d_19"/>
    <g id="text_17">
     <!-- |1&gt; -->
     <g transform="translate(359.928125 53.520312)scale(0.1 -0.1)">
      <use xlink:href="#DejaVuSans-124"/>
      <use x="33.691406" xlink:href="#DejaVuSans-49"/>
      <use x="97.314453" xlink:href="#DejaVuSans-62"/>
     </g>
    </g>
    <g id="line2d_20">
     <path d="M 331.928125 65.020312 
L 351.928125 65.020312 
" style="fill:none;stroke:#2ca02c;stroke-linecap:square;stroke-width:1.5;"/>
    </g>
    <g id="line2d_21"/>
    <g id="text_18">
     <!-- |2&gt; -->
     <g transform="translate(359.928125 68.520312)scale(0.1 -0.1)">
      <use xlink:href="#DejaVuSans-124"/>
      <use x="33.691406" xlink:href="#DejaVuSans-50"/>
      <use x="97.314453" xlink:href="#DejaVuSans-62"/>
     </g>
    </g>
   </g>
  </g>
 </g>
 <defs>
  <clipPath id="p99b6076026">
   <rect height="217.44" width="334.8" x="52.239063" y="7.2"/>
  </clipPath>
 </defs>
</svg>
