<svg xmlns="http://www.w3.org/2000/svg" xmlns:xlink="http://www.w3.org/1999/xlink" width="100.0" height="100.0" viewBox="-0.8006072042052136 -0.8593042373485343 1.6012144084104272 0.6186084746970687" preserveAspectRatio="xMinYMin meet"><g transform="matrix(1,0,0,-1,0,-1.1)"><polyline fill="none" stroke="#66cc99" stroke-width="0.03202428816820854" points="-0.7391036260090295,-0.3061467458920719 -0.705537011478684,-0.3771173894607983 -0.6651756898420363,-0.44445618641568174 -0.6184083626901896,-0.5075146273309165 -0.565685424949238,-0.5656854249492381 -0.5075146273309163,-0.6184083626901897 -0.4444561864156816,-0.6651756898420363 -0.3771173894607982,-0.7055370114786841 -0.3061467458920718,-0.7391036260090295 -0.23222774180356975,-0.7655522685857672 -0.15607225761290255,-0.7846282243225844 -0.07841371226364852,-0.7961477813377575 0.0,-0.8 0.07841371226364863,-0.7961477813377575 0.15607225761290267,-0.7846282243225844 0.23222774180356986,-0.7655522685857671 0.3061467458920719,-0.7391036260090295 0.37711738946079826,-0.705537011478684 0.44445618641568185,-0.6651756898420362 0.5075146273309165,-0.6184083626901896 0.5656854249492381,-0.565685424949238 0.6184083626901896,-0.5075146273309165 0.6651756898420362,-0.44445618641568174 0.7055370114786841,-0.37711738946079815 0.7391036260090295,-0.30614674589207186 0.7413029668566793,-0.3 -0.7413029668566793,-0.3 -0.7391036260090295,-0.3061467458920719" opacity="0.8" /></g></svg>