<?xml version="1.0" encoding="utf-8" standalone="no"?>
<!DOCTYPE svg PUBLIC "-//W3C//DTD SVG 1.1//EN"
  "http://www.w3.org/Graphics/SVG/1.1/DTD/svg11.dtd">
<svg height="276.685156pt" version="1.1" viewBox="0 0 385.21 276.685156" width="385.21pt" xmlns="http://www.w3.org/2000/svg" xmlns:xlink="http://www.w3.org/1999/xlink">
 <metadata>
  <rdf:RDF xmlns:cc="http://creativecommons.org/ns#" xmlns:dc="http://purl.org/dc/elements/1.1/" xmlns:rdf="http://www.w3.org/1999/02/22-rdf-syntax-ns#">
   <cc:Work>
    <dc:type rdf:resource="http://purl.org/dc/dcmitype/StillImage"/>
    <dc:date>2022-01-21T03:00:37.954863</dc:date>
    <dc:format>image/svg+xml</dc:format>
    <dc:creator>
     <cc:Agent>
      <dc:title>Matplotlib v3.4.3, https://matplotlib.org/</dc:title>
     </cc:Agent>
    </dc:creator>
   </cc:Work>
  </rdf:RDF>
 </metadata>
 <defs>
  <style type="text/css">*{stroke-linecap:butt;stroke-linejoin:round;}</style>
 </defs>
 <g id="figure_1">
  <g id="patch_1">
   <path d="M 0 276.685156 
L 385.21 276.685156 
L 385.21 0 
L 0 0 
z
" style="fill:none;"/>
  </g>
  <g id="axes_1">
   <g id="patch_2">
    <path d="M 43.21 239.28 
L 378.01 239.28 
L 378.01 21.84 
L 43.21 21.84 
z
" style="fill:#ffffff;"/>
   </g>
   <g id="matplotlib.axis_1">
    <g id="xtick_1">
     <g id="line2d_1">
      <path clip-path="url(#p53a6ccdf2f)" d="M 57.410243 239.28 
L 57.410243 21.84 
" style="fill:none;stroke:#b0b0b0;stroke-linecap:square;stroke-width:0.8;"/>
     </g>
     <g id="line2d_2">
      <defs>
       <path d="M 0 0 
L 0 3.5 
" id="mf158dbc4a8" style="stroke:#000000;stroke-width:0.8;"/>
      </defs>
      <g>
       <use style="stroke:#000000;stroke-width:0.8;" x="57.410243" xlink:href="#mf158dbc4a8" y="239.28"/>
      </g>
     </g>
     <g id="text_1">
      <!-- 0.0 -->
      <g transform="translate(50.460243 253.437812)scale(0.1 -0.1)">
       <defs>
        <path d="M 266 2259 
Q 266 3072 433 3567 
Q 600 4063 929 4331 
Q 1259 4600 1759 4600 
Q 2128 4600 2406 4451 
Q 2684 4303 2865 4023 
Q 3047 3744 3150 3342 
Q 3253 2941 3253 2259 
Q 3253 1453 3087 958 
Q 2922 463 2592 192 
Q 2263 -78 1759 -78 
Q 1097 -78 719 397 
Q 266 969 266 2259 
z
M 844 2259 
Q 844 1131 1108 757 
Q 1372 384 1759 384 
Q 2147 384 2411 759 
Q 2675 1134 2675 2259 
Q 2675 3391 2411 3762 
Q 2147 4134 1753 4134 
Q 1366 4134 1134 3806 
Q 844 3388 844 2259 
z
" id="ArialMT-30" transform="scale(0.015625)"/>
        <path d="M 581 0 
L 581 641 
L 1222 641 
L 1222 0 
L 581 0 
z
" id="ArialMT-2e" transform="scale(0.015625)"/>
       </defs>
       <use xlink:href="#ArialMT-30"/>
       <use x="55.615234" xlink:href="#ArialMT-2e"/>
       <use x="83.398438" xlink:href="#ArialMT-30"/>
      </g>
     </g>
    </g>
    <g id="xtick_2">
     <g id="line2d_3">
      <path clip-path="url(#p53a6ccdf2f)" d="M 108.307172 239.28 
L 108.307172 21.84 
" style="fill:none;stroke:#b0b0b0;stroke-linecap:square;stroke-width:0.8;"/>
     </g>
     <g id="line2d_4">
      <g>
       <use style="stroke:#000000;stroke-width:0.8;" x="108.307172" xlink:href="#mf158dbc4a8" y="239.28"/>
      </g>
     </g>
     <g id="text_2">
      <!-- 0.5 -->
      <g transform="translate(101.357172 253.437812)scale(0.1 -0.1)">
       <defs>
        <path d="M 266 1200 
L 856 1250 
Q 922 819 1161 601 
Q 1400 384 1738 384 
Q 2144 384 2425 690 
Q 2706 997 2706 1503 
Q 2706 1984 2436 2262 
Q 2166 2541 1728 2541 
Q 1456 2541 1237 2417 
Q 1019 2294 894 2097 
L 366 2166 
L 809 4519 
L 3088 4519 
L 3088 3981 
L 1259 3981 
L 1013 2750 
Q 1425 3038 1878 3038 
Q 2478 3038 2890 2622 
Q 3303 2206 3303 1553 
Q 3303 931 2941 478 
Q 2500 -78 1738 -78 
Q 1113 -78 717 272 
Q 322 622 266 1200 
z
" id="ArialMT-35" transform="scale(0.015625)"/>
       </defs>
       <use xlink:href="#ArialMT-30"/>
       <use x="55.615234" xlink:href="#ArialMT-2e"/>
       <use x="83.398438" xlink:href="#ArialMT-35"/>
      </g>
     </g>
    </g>
    <g id="xtick_3">
     <g id="line2d_5">
      <path clip-path="url(#p53a6ccdf2f)" d="M 159.204102 239.28 
L 159.204102 21.84 
" style="fill:none;stroke:#b0b0b0;stroke-linecap:square;stroke-width:0.8;"/>
     </g>
     <g id="line2d_6">
      <g>
       <use style="stroke:#000000;stroke-width:0.8;" x="159.204102" xlink:href="#mf158dbc4a8" y="239.28"/>
      </g>
     </g>
     <g id="text_3">
      <!-- 1.0 -->
      <g transform="translate(152.254102 253.437812)scale(0.1 -0.1)">
       <defs>
        <path d="M 2384 0 
L 1822 0 
L 1822 3584 
Q 1619 3391 1289 3197 
Q 959 3003 697 2906 
L 697 3450 
Q 1169 3672 1522 3987 
Q 1875 4303 2022 4600 
L 2384 4600 
L 2384 0 
z
" id="ArialMT-31" transform="scale(0.015625)"/>
       </defs>
       <use xlink:href="#ArialMT-31"/>
       <use x="55.615234" xlink:href="#ArialMT-2e"/>
       <use x="83.398438" xlink:href="#ArialMT-30"/>
      </g>
     </g>
    </g>
    <g id="xtick_4">
     <g id="line2d_7">
      <path clip-path="url(#p53a6ccdf2f)" d="M 210.101031 239.28 
L 210.101031 21.84 
" style="fill:none;stroke:#b0b0b0;stroke-linecap:square;stroke-width:0.8;"/>
     </g>
     <g id="line2d_8">
      <g>
       <use style="stroke:#000000;stroke-width:0.8;" x="210.101031" xlink:href="#mf158dbc4a8" y="239.28"/>
      </g>
     </g>
     <g id="text_4">
      <!-- 1.5 -->
      <g transform="translate(203.151031 253.437812)scale(0.1 -0.1)">
       <use xlink:href="#ArialMT-31"/>
       <use x="55.615234" xlink:href="#ArialMT-2e"/>
       <use x="83.398438" xlink:href="#ArialMT-35"/>
      </g>
     </g>
    </g>
    <g id="xtick_5">
     <g id="line2d_9">
      <path clip-path="url(#p53a6ccdf2f)" d="M 260.99796 239.28 
L 260.99796 21.84 
" style="fill:none;stroke:#b0b0b0;stroke-linecap:square;stroke-width:0.8;"/>
     </g>
     <g id="line2d_10">
      <g>
       <use style="stroke:#000000;stroke-width:0.8;" x="260.99796" xlink:href="#mf158dbc4a8" y="239.28"/>
      </g>
     </g>
     <g id="text_5">
      <!-- 2.0 -->
      <g transform="translate(254.04796 253.437812)scale(0.1 -0.1)">
       <defs>
        <path d="M 3222 541 
L 3222 0 
L 194 0 
Q 188 203 259 391 
Q 375 700 629 1000 
Q 884 1300 1366 1694 
Q 2113 2306 2375 2664 
Q 2638 3022 2638 3341 
Q 2638 3675 2398 3904 
Q 2159 4134 1775 4134 
Q 1369 4134 1125 3890 
Q 881 3647 878 3216 
L 300 3275 
Q 359 3922 746 4261 
Q 1134 4600 1788 4600 
Q 2447 4600 2831 4234 
Q 3216 3869 3216 3328 
Q 3216 3053 3103 2787 
Q 2991 2522 2730 2228 
Q 2469 1934 1863 1422 
Q 1356 997 1212 845 
Q 1069 694 975 541 
L 3222 541 
z
" id="ArialMT-32" transform="scale(0.015625)"/>
       </defs>
       <use xlink:href="#ArialMT-32"/>
       <use x="55.615234" xlink:href="#ArialMT-2e"/>
       <use x="83.398438" xlink:href="#ArialMT-30"/>
      </g>
     </g>
    </g>
    <g id="xtick_6">
     <g id="line2d_11">
      <path clip-path="url(#p53a6ccdf2f)" d="M 311.894889 239.28 
L 311.894889 21.84 
" style="fill:none;stroke:#b0b0b0;stroke-linecap:square;stroke-width:0.8;"/>
     </g>
     <g id="line2d_12">
      <g>
       <use style="stroke:#000000;stroke-width:0.8;" x="311.894889" xlink:href="#mf158dbc4a8" y="239.28"/>
      </g>
     </g>
     <g id="text_6">
      <!-- 2.5 -->
      <g transform="translate(304.944889 253.437812)scale(0.1 -0.1)">
       <use xlink:href="#ArialMT-32"/>
       <use x="55.615234" xlink:href="#ArialMT-2e"/>
       <use x="83.398438" xlink:href="#ArialMT-35"/>
      </g>
     </g>
    </g>
    <g id="xtick_7">
     <g id="line2d_13">
      <path clip-path="url(#p53a6ccdf2f)" d="M 362.791818 239.28 
L 362.791818 21.84 
" style="fill:none;stroke:#b0b0b0;stroke-linecap:square;stroke-width:0.8;"/>
     </g>
     <g id="line2d_14">
      <g>
       <use style="stroke:#000000;stroke-width:0.8;" x="362.791818" xlink:href="#mf158dbc4a8" y="239.28"/>
      </g>
     </g>
     <g id="text_7">
      <!-- 3.0 -->
      <g transform="translate(355.841818 253.437812)scale(0.1 -0.1)">
       <defs>
        <path d="M 269 1209 
L 831 1284 
Q 928 806 1161 595 
Q 1394 384 1728 384 
Q 2125 384 2398 659 
Q 2672 934 2672 1341 
Q 2672 1728 2419 1979 
Q 2166 2231 1775 2231 
Q 1616 2231 1378 2169 
L 1441 2663 
Q 1497 2656 1531 2656 
Q 1891 2656 2178 2843 
Q 2466 3031 2466 3422 
Q 2466 3731 2256 3934 
Q 2047 4138 1716 4138 
Q 1388 4138 1169 3931 
Q 950 3725 888 3313 
L 325 3413 
Q 428 3978 793 4289 
Q 1159 4600 1703 4600 
Q 2078 4600 2393 4439 
Q 2709 4278 2876 4000 
Q 3044 3722 3044 3409 
Q 3044 3113 2884 2869 
Q 2725 2625 2413 2481 
Q 2819 2388 3044 2092 
Q 3269 1797 3269 1353 
Q 3269 753 2831 336 
Q 2394 -81 1725 -81 
Q 1122 -81 723 278 
Q 325 638 269 1209 
z
" id="ArialMT-33" transform="scale(0.015625)"/>
       </defs>
       <use xlink:href="#ArialMT-33"/>
       <use x="55.615234" xlink:href="#ArialMT-2e"/>
       <use x="83.398438" xlink:href="#ArialMT-30"/>
      </g>
     </g>
    </g>
    <g id="text_8">
     <!-- Displacement amplitude -->
     <g transform="translate(151.918125 267.298906)scale(0.11 -0.11)">
      <defs>
       <path d="M 494 0 
L 494 4581 
L 2072 4581 
Q 2606 4581 2888 4516 
Q 3281 4425 3559 4188 
Q 3922 3881 4101 3404 
Q 4281 2928 4281 2316 
Q 4281 1794 4159 1391 
Q 4038 988 3847 723 
Q 3656 459 3429 307 
Q 3203 156 2883 78 
Q 2563 0 2147 0 
L 494 0 
z
M 1100 541 
L 2078 541 
Q 2531 541 2789 625 
Q 3047 709 3200 863 
Q 3416 1078 3536 1442 
Q 3656 1806 3656 2325 
Q 3656 3044 3420 3430 
Q 3184 3816 2847 3947 
Q 2603 4041 2063 4041 
L 1100 4041 
L 1100 541 
z
" id="ArialMT-44" transform="scale(0.015625)"/>
       <path d="M 425 3934 
L 425 4581 
L 988 4581 
L 988 3934 
L 425 3934 
z
M 425 0 
L 425 3319 
L 988 3319 
L 988 0 
L 425 0 
z
" id="ArialMT-69" transform="scale(0.015625)"/>
       <path d="M 197 991 
L 753 1078 
Q 800 744 1014 566 
Q 1228 388 1613 388 
Q 2000 388 2187 545 
Q 2375 703 2375 916 
Q 2375 1106 2209 1216 
Q 2094 1291 1634 1406 
Q 1016 1563 777 1677 
Q 538 1791 414 1992 
Q 291 2194 291 2438 
Q 291 2659 392 2848 
Q 494 3038 669 3163 
Q 800 3259 1026 3326 
Q 1253 3394 1513 3394 
Q 1903 3394 2198 3281 
Q 2494 3169 2634 2976 
Q 2775 2784 2828 2463 
L 2278 2388 
Q 2241 2644 2061 2787 
Q 1881 2931 1553 2931 
Q 1166 2931 1000 2803 
Q 834 2675 834 2503 
Q 834 2394 903 2306 
Q 972 2216 1119 2156 
Q 1203 2125 1616 2013 
Q 2213 1853 2448 1751 
Q 2684 1650 2818 1456 
Q 2953 1263 2953 975 
Q 2953 694 2789 445 
Q 2625 197 2315 61 
Q 2006 -75 1616 -75 
Q 969 -75 630 194 
Q 291 463 197 991 
z
" id="ArialMT-73" transform="scale(0.015625)"/>
       <path d="M 422 -1272 
L 422 3319 
L 934 3319 
L 934 2888 
Q 1116 3141 1344 3267 
Q 1572 3394 1897 3394 
Q 2322 3394 2647 3175 
Q 2972 2956 3137 2557 
Q 3303 2159 3303 1684 
Q 3303 1175 3120 767 
Q 2938 359 2589 142 
Q 2241 -75 1856 -75 
Q 1575 -75 1351 44 
Q 1128 163 984 344 
L 984 -1272 
L 422 -1272 
z
M 931 1641 
Q 931 1000 1190 694 
Q 1450 388 1819 388 
Q 2194 388 2461 705 
Q 2728 1022 2728 1688 
Q 2728 2322 2467 2637 
Q 2206 2953 1844 2953 
Q 1484 2953 1207 2617 
Q 931 2281 931 1641 
z
" id="ArialMT-70" transform="scale(0.015625)"/>
       <path d="M 409 0 
L 409 4581 
L 972 4581 
L 972 0 
L 409 0 
z
" id="ArialMT-6c" transform="scale(0.015625)"/>
       <path d="M 2588 409 
Q 2275 144 1986 34 
Q 1697 -75 1366 -75 
Q 819 -75 525 192 
Q 231 459 231 875 
Q 231 1119 342 1320 
Q 453 1522 633 1644 
Q 813 1766 1038 1828 
Q 1203 1872 1538 1913 
Q 2219 1994 2541 2106 
Q 2544 2222 2544 2253 
Q 2544 2597 2384 2738 
Q 2169 2928 1744 2928 
Q 1347 2928 1158 2789 
Q 969 2650 878 2297 
L 328 2372 
Q 403 2725 575 2942 
Q 747 3159 1072 3276 
Q 1397 3394 1825 3394 
Q 2250 3394 2515 3294 
Q 2781 3194 2906 3042 
Q 3031 2891 3081 2659 
Q 3109 2516 3109 2141 
L 3109 1391 
Q 3109 606 3145 398 
Q 3181 191 3288 0 
L 2700 0 
Q 2613 175 2588 409 
z
M 2541 1666 
Q 2234 1541 1622 1453 
Q 1275 1403 1131 1340 
Q 988 1278 909 1158 
Q 831 1038 831 891 
Q 831 666 1001 516 
Q 1172 366 1500 366 
Q 1825 366 2078 508 
Q 2331 650 2450 897 
Q 2541 1088 2541 1459 
L 2541 1666 
z
" id="ArialMT-61" transform="scale(0.015625)"/>
       <path d="M 2588 1216 
L 3141 1144 
Q 3050 572 2676 248 
Q 2303 -75 1759 -75 
Q 1078 -75 664 370 
Q 250 816 250 1647 
Q 250 2184 428 2587 
Q 606 2991 970 3192 
Q 1334 3394 1763 3394 
Q 2303 3394 2647 3120 
Q 2991 2847 3088 2344 
L 2541 2259 
Q 2463 2594 2264 2762 
Q 2066 2931 1784 2931 
Q 1359 2931 1093 2626 
Q 828 2322 828 1663 
Q 828 994 1084 691 
Q 1341 388 1753 388 
Q 2084 388 2306 591 
Q 2528 794 2588 1216 
z
" id="ArialMT-63" transform="scale(0.015625)"/>
       <path d="M 2694 1069 
L 3275 997 
Q 3138 488 2766 206 
Q 2394 -75 1816 -75 
Q 1088 -75 661 373 
Q 234 822 234 1631 
Q 234 2469 665 2931 
Q 1097 3394 1784 3394 
Q 2450 3394 2872 2941 
Q 3294 2488 3294 1666 
Q 3294 1616 3291 1516 
L 816 1516 
Q 847 969 1125 678 
Q 1403 388 1819 388 
Q 2128 388 2347 550 
Q 2566 713 2694 1069 
z
M 847 1978 
L 2700 1978 
Q 2663 2397 2488 2606 
Q 2219 2931 1791 2931 
Q 1403 2931 1139 2672 
Q 875 2413 847 1978 
z
" id="ArialMT-65" transform="scale(0.015625)"/>
       <path d="M 422 0 
L 422 3319 
L 925 3319 
L 925 2853 
Q 1081 3097 1340 3245 
Q 1600 3394 1931 3394 
Q 2300 3394 2536 3241 
Q 2772 3088 2869 2813 
Q 3263 3394 3894 3394 
Q 4388 3394 4653 3120 
Q 4919 2847 4919 2278 
L 4919 0 
L 4359 0 
L 4359 2091 
Q 4359 2428 4304 2576 
Q 4250 2725 4106 2815 
Q 3963 2906 3769 2906 
Q 3419 2906 3187 2673 
Q 2956 2441 2956 1928 
L 2956 0 
L 2394 0 
L 2394 2156 
Q 2394 2531 2256 2718 
Q 2119 2906 1806 2906 
Q 1569 2906 1367 2781 
Q 1166 2656 1075 2415 
Q 984 2175 984 1722 
L 984 0 
L 422 0 
z
" id="ArialMT-6d" transform="scale(0.015625)"/>
       <path d="M 422 0 
L 422 3319 
L 928 3319 
L 928 2847 
Q 1294 3394 1984 3394 
Q 2284 3394 2536 3286 
Q 2788 3178 2913 3003 
Q 3038 2828 3088 2588 
Q 3119 2431 3119 2041 
L 3119 0 
L 2556 0 
L 2556 2019 
Q 2556 2363 2490 2533 
Q 2425 2703 2258 2804 
Q 2091 2906 1866 2906 
Q 1506 2906 1245 2678 
Q 984 2450 984 1813 
L 984 0 
L 422 0 
z
" id="ArialMT-6e" transform="scale(0.015625)"/>
       <path d="M 1650 503 
L 1731 6 
Q 1494 -44 1306 -44 
Q 1000 -44 831 53 
Q 663 150 594 308 
Q 525 466 525 972 
L 525 2881 
L 113 2881 
L 113 3319 
L 525 3319 
L 525 4141 
L 1084 4478 
L 1084 3319 
L 1650 3319 
L 1650 2881 
L 1084 2881 
L 1084 941 
Q 1084 700 1114 631 
Q 1144 563 1211 522 
Q 1278 481 1403 481 
Q 1497 481 1650 503 
z
" id="ArialMT-74" transform="scale(0.015625)"/>
       <path id="ArialMT-20" transform="scale(0.015625)"/>
       <path d="M 2597 0 
L 2597 488 
Q 2209 -75 1544 -75 
Q 1250 -75 995 37 
Q 741 150 617 320 
Q 494 491 444 738 
Q 409 903 409 1263 
L 409 3319 
L 972 3319 
L 972 1478 
Q 972 1038 1006 884 
Q 1059 663 1231 536 
Q 1403 409 1656 409 
Q 1909 409 2131 539 
Q 2353 669 2445 892 
Q 2538 1116 2538 1541 
L 2538 3319 
L 3100 3319 
L 3100 0 
L 2597 0 
z
" id="ArialMT-75" transform="scale(0.015625)"/>
       <path d="M 2575 0 
L 2575 419 
Q 2259 -75 1647 -75 
Q 1250 -75 917 144 
Q 584 363 401 755 
Q 219 1147 219 1656 
Q 219 2153 384 2558 
Q 550 2963 881 3178 
Q 1213 3394 1622 3394 
Q 1922 3394 2156 3267 
Q 2391 3141 2538 2938 
L 2538 4581 
L 3097 4581 
L 3097 0 
L 2575 0 
z
M 797 1656 
Q 797 1019 1065 703 
Q 1334 388 1700 388 
Q 2069 388 2326 689 
Q 2584 991 2584 1609 
Q 2584 2291 2321 2609 
Q 2059 2928 1675 2928 
Q 1300 2928 1048 2622 
Q 797 2316 797 1656 
z
" id="ArialMT-64" transform="scale(0.015625)"/>
      </defs>
      <use xlink:href="#ArialMT-44"/>
      <use x="72.216797" xlink:href="#ArialMT-69"/>
      <use x="94.433594" xlink:href="#ArialMT-73"/>
      <use x="144.433594" xlink:href="#ArialMT-70"/>
      <use x="200.048828" xlink:href="#ArialMT-6c"/>
      <use x="222.265625" xlink:href="#ArialMT-61"/>
      <use x="277.880859" xlink:href="#ArialMT-63"/>
      <use x="327.880859" xlink:href="#ArialMT-65"/>
      <use x="383.496094" xlink:href="#ArialMT-6d"/>
      <use x="466.796875" xlink:href="#ArialMT-65"/>
      <use x="522.412109" xlink:href="#ArialMT-6e"/>
      <use x="578.027344" xlink:href="#ArialMT-74"/>
      <use x="605.810547" xlink:href="#ArialMT-20"/>
      <use x="633.59375" xlink:href="#ArialMT-61"/>
      <use x="689.208984" xlink:href="#ArialMT-6d"/>
      <use x="772.509766" xlink:href="#ArialMT-70"/>
      <use x="828.125" xlink:href="#ArialMT-6c"/>
      <use x="850.341797" xlink:href="#ArialMT-69"/>
      <use x="872.558594" xlink:href="#ArialMT-74"/>
      <use x="900.341797" xlink:href="#ArialMT-75"/>
      <use x="955.957031" xlink:href="#ArialMT-64"/>
      <use x="1011.572266" xlink:href="#ArialMT-65"/>
     </g>
    </g>
   </g>
   <g id="matplotlib.axis_2">
    <g id="ytick_1">
     <g id="line2d_15">
      <path clip-path="url(#p53a6ccdf2f)" d="M 43.21 229.407116 
L 378.01 229.407116 
" style="fill:none;stroke:#b0b0b0;stroke-linecap:square;stroke-width:0.8;"/>
     </g>
     <g id="line2d_16">
      <defs>
       <path d="M 0 0 
L -3.5 0 
" id="m25bdac234a" style="stroke:#000000;stroke-width:0.8;"/>
      </defs>
      <g>
       <use style="stroke:#000000;stroke-width:0.8;" x="43.21" xlink:href="#m25bdac234a" y="229.407116"/>
      </g>
     </g>
     <g id="text_9">
      <!-- 0.0 -->
      <g transform="translate(22.31 232.986023)scale(0.1 -0.1)">
       <use xlink:href="#ArialMT-30"/>
       <use x="55.615234" xlink:href="#ArialMT-2e"/>
       <use x="83.398438" xlink:href="#ArialMT-30"/>
      </g>
     </g>
    </g>
    <g id="ytick_2">
     <g id="line2d_17">
      <path clip-path="url(#p53a6ccdf2f)" d="M 43.21 189.866338 
L 378.01 189.866338 
" style="fill:none;stroke:#b0b0b0;stroke-linecap:square;stroke-width:0.8;"/>
     </g>
     <g id="line2d_18">
      <g>
       <use style="stroke:#000000;stroke-width:0.8;" x="43.21" xlink:href="#m25bdac234a" y="189.866338"/>
      </g>
     </g>
     <g id="text_10">
      <!-- 0.2 -->
      <g transform="translate(22.31 193.445245)scale(0.1 -0.1)">
       <use xlink:href="#ArialMT-30"/>
       <use x="55.615234" xlink:href="#ArialMT-2e"/>
       <use x="83.398438" xlink:href="#ArialMT-32"/>
      </g>
     </g>
    </g>
    <g id="ytick_3">
     <g id="line2d_19">
      <path clip-path="url(#p53a6ccdf2f)" d="M 43.21 150.325561 
L 378.01 150.325561 
" style="fill:none;stroke:#b0b0b0;stroke-linecap:square;stroke-width:0.8;"/>
     </g>
     <g id="line2d_20">
      <g>
       <use style="stroke:#000000;stroke-width:0.8;" x="43.21" xlink:href="#m25bdac234a" y="150.325561"/>
      </g>
     </g>
     <g id="text_11">
      <!-- 0.4 -->
      <g transform="translate(22.31 153.904467)scale(0.1 -0.1)">
       <defs>
        <path d="M 2069 0 
L 2069 1097 
L 81 1097 
L 81 1613 
L 2172 4581 
L 2631 4581 
L 2631 1613 
L 3250 1613 
L 3250 1097 
L 2631 1097 
L 2631 0 
L 2069 0 
z
M 2069 1613 
L 2069 3678 
L 634 1613 
L 2069 1613 
z
" id="ArialMT-34" transform="scale(0.015625)"/>
       </defs>
       <use xlink:href="#ArialMT-30"/>
       <use x="55.615234" xlink:href="#ArialMT-2e"/>
       <use x="83.398438" xlink:href="#ArialMT-34"/>
      </g>
     </g>
    </g>
    <g id="ytick_4">
     <g id="line2d_21">
      <path clip-path="url(#p53a6ccdf2f)" d="M 43.21 110.784783 
L 378.01 110.784783 
" style="fill:none;stroke:#b0b0b0;stroke-linecap:square;stroke-width:0.8;"/>
     </g>
     <g id="line2d_22">
      <g>
       <use style="stroke:#000000;stroke-width:0.8;" x="43.21" xlink:href="#m25bdac234a" y="110.784783"/>
      </g>
     </g>
     <g id="text_12">
      <!-- 0.6 -->
      <g transform="translate(22.31 114.363689)scale(0.1 -0.1)">
       <defs>
        <path d="M 3184 3459 
L 2625 3416 
Q 2550 3747 2413 3897 
Q 2184 4138 1850 4138 
Q 1581 4138 1378 3988 
Q 1113 3794 959 3422 
Q 806 3050 800 2363 
Q 1003 2672 1297 2822 
Q 1591 2972 1913 2972 
Q 2475 2972 2870 2558 
Q 3266 2144 3266 1488 
Q 3266 1056 3080 686 
Q 2894 316 2569 119 
Q 2244 -78 1831 -78 
Q 1128 -78 684 439 
Q 241 956 241 2144 
Q 241 3472 731 4075 
Q 1159 4600 1884 4600 
Q 2425 4600 2770 4297 
Q 3116 3994 3184 3459 
z
M 888 1484 
Q 888 1194 1011 928 
Q 1134 663 1356 523 
Q 1578 384 1822 384 
Q 2178 384 2434 671 
Q 2691 959 2691 1453 
Q 2691 1928 2437 2201 
Q 2184 2475 1800 2475 
Q 1419 2475 1153 2201 
Q 888 1928 888 1484 
z
" id="ArialMT-36" transform="scale(0.015625)"/>
       </defs>
       <use xlink:href="#ArialMT-30"/>
       <use x="55.615234" xlink:href="#ArialMT-2e"/>
       <use x="83.398438" xlink:href="#ArialMT-36"/>
      </g>
     </g>
    </g>
    <g id="ytick_5">
     <g id="line2d_23">
      <path clip-path="url(#p53a6ccdf2f)" d="M 43.21 71.244005 
L 378.01 71.244005 
" style="fill:none;stroke:#b0b0b0;stroke-linecap:square;stroke-width:0.8;"/>
     </g>
     <g id="line2d_24">
      <g>
       <use style="stroke:#000000;stroke-width:0.8;" x="43.21" xlink:href="#m25bdac234a" y="71.244005"/>
      </g>
     </g>
     <g id="text_13">
      <!-- 0.8 -->
      <g transform="translate(22.31 74.822911)scale(0.1 -0.1)">
       <defs>
        <path d="M 1131 2484 
Q 781 2613 612 2850 
Q 444 3088 444 3419 
Q 444 3919 803 4259 
Q 1163 4600 1759 4600 
Q 2359 4600 2725 4251 
Q 3091 3903 3091 3403 
Q 3091 3084 2923 2848 
Q 2756 2613 2416 2484 
Q 2838 2347 3058 2040 
Q 3278 1734 3278 1309 
Q 3278 722 2862 322 
Q 2447 -78 1769 -78 
Q 1091 -78 675 323 
Q 259 725 259 1325 
Q 259 1772 486 2073 
Q 713 2375 1131 2484 
z
M 1019 3438 
Q 1019 3113 1228 2906 
Q 1438 2700 1772 2700 
Q 2097 2700 2305 2904 
Q 2513 3109 2513 3406 
Q 2513 3716 2298 3927 
Q 2084 4138 1766 4138 
Q 1444 4138 1231 3931 
Q 1019 3725 1019 3438 
z
M 838 1322 
Q 838 1081 952 856 
Q 1066 631 1291 507 
Q 1516 384 1775 384 
Q 2178 384 2440 643 
Q 2703 903 2703 1303 
Q 2703 1709 2433 1975 
Q 2163 2241 1756 2241 
Q 1359 2241 1098 1978 
Q 838 1716 838 1322 
z
" id="ArialMT-38" transform="scale(0.015625)"/>
       </defs>
       <use xlink:href="#ArialMT-30"/>
       <use x="55.615234" xlink:href="#ArialMT-2e"/>
       <use x="83.398438" xlink:href="#ArialMT-38"/>
      </g>
     </g>
    </g>
    <g id="ytick_6">
     <g id="line2d_25">
      <path clip-path="url(#p53a6ccdf2f)" d="M 43.21 31.703227 
L 378.01 31.703227 
" style="fill:none;stroke:#b0b0b0;stroke-linecap:square;stroke-width:0.8;"/>
     </g>
     <g id="line2d_26">
      <g>
       <use style="stroke:#000000;stroke-width:0.8;" x="43.21" xlink:href="#m25bdac234a" y="31.703227"/>
      </g>
     </g>
     <g id="text_14">
      <!-- 1.0 -->
      <g transform="translate(22.31 35.282133)scale(0.1 -0.1)">
       <use xlink:href="#ArialMT-31"/>
       <use x="55.615234" xlink:href="#ArialMT-2e"/>
       <use x="83.398438" xlink:href="#ArialMT-30"/>
      </g>
     </g>
    </g>
    <g id="text_15">
     <!-- $P(|e\rangle)$ -->
     <g transform="translate(15.67 145.575)rotate(-90)scale(0.11 -0.11)">
      <defs>
       <path d="M 1081 4666 
L 2541 4666 
Q 3178 4666 3512 4369 
Q 3847 4072 3847 3500 
Q 3847 2731 3353 2303 
Q 2859 1875 1966 1875 
L 1172 1875 
L 806 0 
L 172 0 
L 1081 4666 
z
M 1613 4147 
L 1275 2394 
L 2069 2394 
Q 2606 2394 2893 2669 
Q 3181 2944 3181 3456 
Q 3181 3784 2986 3965 
Q 2791 4147 2438 4147 
L 1613 4147 
z
" id="DejaVuSans-Oblique-50" transform="scale(0.015625)"/>
       <path d="M 1984 4856 
Q 1566 4138 1362 3434 
Q 1159 2731 1159 2009 
Q 1159 1288 1364 580 
Q 1569 -128 1984 -844 
L 1484 -844 
Q 1016 -109 783 600 
Q 550 1309 550 2009 
Q 550 2706 781 3412 
Q 1013 4119 1484 4856 
L 1984 4856 
z
" id="DejaVuSans-28" transform="scale(0.015625)"/>
       <path d="M 1344 4891 
L 1344 -1509 
L 813 -1509 
L 813 4891 
L 1344 4891 
z
" id="DejaVuSans-7c" transform="scale(0.015625)"/>
       <path d="M 3078 2063 
Q 3088 2113 3092 2166 
Q 3097 2219 3097 2272 
Q 3097 2653 2873 2875 
Q 2650 3097 2266 3097 
Q 1838 3097 1509 2826 
Q 1181 2556 1013 2059 
L 3078 2063 
z
M 3578 1613 
L 903 1613 
Q 884 1494 878 1425 
Q 872 1356 872 1306 
Q 872 872 1139 634 
Q 1406 397 1894 397 
Q 2269 397 2603 481 
Q 2938 566 3225 728 
L 3116 159 
Q 2806 34 2476 -28 
Q 2147 -91 1806 -91 
Q 1078 -91 686 257 
Q 294 606 294 1247 
Q 294 1794 489 2264 
Q 684 2734 1063 3103 
Q 1306 3334 1642 3459 
Q 1978 3584 2356 3584 
Q 2950 3584 3301 3228 
Q 3653 2872 3653 2272 
Q 3653 2128 3634 1964 
Q 3616 1800 3578 1613 
z
" id="DejaVuSans-Oblique-65" transform="scale(0.015625)"/>
       <path d="M 1925 2006 
L 1044 -844 
L 513 -844 
L 1394 2006 
L 513 4856 
L 1044 4856 
L 1925 2006 
z
" id="DejaVuSans-27e9" transform="scale(0.015625)"/>
       <path d="M 513 4856 
L 1013 4856 
Q 1481 4119 1714 3412 
Q 1947 2706 1947 2009 
Q 1947 1309 1714 600 
Q 1481 -109 1013 -844 
L 513 -844 
Q 928 -128 1133 580 
Q 1338 1288 1338 2009 
Q 1338 2731 1133 3434 
Q 928 4138 513 4856 
z
" id="DejaVuSans-29" transform="scale(0.015625)"/>
      </defs>
      <use transform="translate(0 0.578125)" xlink:href="#DejaVuSans-Oblique-50"/>
      <use transform="translate(60.302734 0.578125)" xlink:href="#DejaVuSans-28"/>
      <use transform="translate(99.316406 0.578125)" xlink:href="#DejaVuSans-7c"/>
      <use transform="translate(133.007812 0.578125)" xlink:href="#DejaVuSans-Oblique-65"/>
      <use transform="translate(194.53125 0.578125)" xlink:href="#DejaVuSans-27e9"/>
      <use transform="translate(233.544922 0.578125)" xlink:href="#DejaVuSans-29"/>
     </g>
    </g>
   </g>
   <g id="line2d_27">
    <path clip-path="url(#p53a6ccdf2f)" d="M 58.428182 31.723636 
L 73.646364 36.42668 
L 88.864545 48.851456 
L 104.082727 67.506794 
L 119.300909 90.282693 
L 134.519091 114.835461 
L 149.737273 138.982204 
L 164.955455 160.999911 
L 180.173636 179.78728 
L 195.391818 194.878248 
L 210.61 206.337324 
L 225.828182 214.590427 
L 241.046364 220.245416 
L 256.264545 223.942766 
L 271.482727 226.256684 
L 286.700909 227.647307 
L 301.919091 228.452496 
L 317.137273 228.903099 
L 332.355455 229.147586 
L 347.573636 229.276641 
L 362.791818 229.343216 
" style="fill:none;stroke:#016e82;stroke-linecap:square;stroke-width:1.5;"/>
    <defs>
     <path d="M 0 1.5 
C 0.397805 1.5 0.77937 1.341951 1.06066 1.06066 
C 1.341951 0.77937 1.5 0.397805 1.5 0 
C 1.5 -0.397805 1.341951 -0.77937 1.06066 -1.06066 
C 0.77937 -1.341951 0.397805 -1.5 0 -1.5 
C -0.397805 -1.5 -0.77937 -1.341951 -1.06066 -1.06066 
C -1.341951 -0.77937 -1.5 -0.397805 -1.5 0 
C -1.5 0.397805 -1.341951 0.77937 -1.06066 1.06066 
C -0.77937 1.341951 -0.397805 1.5 0 1.5 
z
" id="mcaed4993ee" style="stroke:#016e82;"/>
    </defs>
    <g clip-path="url(#p53a6ccdf2f)">
     <use style="fill:#016e82;stroke:#016e82;" x="58.428182" xlink:href="#mcaed4993ee" y="31.723636"/>
     <use style="fill:#016e82;stroke:#016e82;" x="73.646364" xlink:href="#mcaed4993ee" y="36.42668"/>
     <use style="fill:#016e82;stroke:#016e82;" x="88.864545" xlink:href="#mcaed4993ee" y="48.851456"/>
     <use style="fill:#016e82;stroke:#016e82;" x="104.082727" xlink:href="#mcaed4993ee" y="67.506794"/>
     <use style="fill:#016e82;stroke:#016e82;" x="119.300909" xlink:href="#mcaed4993ee" y="90.282693"/>
     <use style="fill:#016e82;stroke:#016e82;" x="134.519091" xlink:href="#mcaed4993ee" y="114.835461"/>
     <use style="fill:#016e82;stroke:#016e82;" x="149.737273" xlink:href="#mcaed4993ee" y="138.982204"/>
     <use style="fill:#016e82;stroke:#016e82;" x="164.955455" xlink:href="#mcaed4993ee" y="160.999911"/>
     <use style="fill:#016e82;stroke:#016e82;" x="180.173636" xlink:href="#mcaed4993ee" y="179.78728"/>
     <use style="fill:#016e82;stroke:#016e82;" x="195.391818" xlink:href="#mcaed4993ee" y="194.878248"/>
     <use style="fill:#016e82;stroke:#016e82;" x="210.61" xlink:href="#mcaed4993ee" y="206.337324"/>
     <use style="fill:#016e82;stroke:#016e82;" x="225.828182" xlink:href="#mcaed4993ee" y="214.590427"/>
     <use style="fill:#016e82;stroke:#016e82;" x="241.046364" xlink:href="#mcaed4993ee" y="220.245416"/>
     <use style="fill:#016e82;stroke:#016e82;" x="256.264545" xlink:href="#mcaed4993ee" y="223.942766"/>
     <use style="fill:#016e82;stroke:#016e82;" x="271.482727" xlink:href="#mcaed4993ee" y="226.256684"/>
     <use style="fill:#016e82;stroke:#016e82;" x="286.700909" xlink:href="#mcaed4993ee" y="227.647307"/>
     <use style="fill:#016e82;stroke:#016e82;" x="301.919091" xlink:href="#mcaed4993ee" y="228.452496"/>
     <use style="fill:#016e82;stroke:#016e82;" x="317.137273" xlink:href="#mcaed4993ee" y="228.903099"/>
     <use style="fill:#016e82;stroke:#016e82;" x="332.355455" xlink:href="#mcaed4993ee" y="229.147586"/>
     <use style="fill:#016e82;stroke:#016e82;" x="347.573636" xlink:href="#mcaed4993ee" y="229.276641"/>
     <use style="fill:#016e82;stroke:#016e82;" x="362.791818" xlink:href="#mcaed4993ee" y="229.343216"/>
    </g>
   </g>
   <g id="line2d_28">
    <path clip-path="url(#p53a6ccdf2f)" d="M 58.428182 229.314239 
L 73.646364 224.671269 
L 88.864545 212.938565 
L 104.082727 196.917653 
L 119.300909 180.257779 
L 134.519091 166.494025 
L 149.737273 158.151431 
L 164.955455 156.272766 
L 180.173636 160.411549 
L 195.391818 169.025 
L 210.61 180.069994 
L 225.828182 191.583862 
L 241.046364 202.08603 
L 256.264545 210.73714 
L 271.482727 217.287324 
L 286.700909 221.900851 
L 301.919091 224.952777 
L 317.137273 226.864627 
L 332.355455 228.006395 
L 347.573636 228.65918 
L 362.791818 229.016716 
" style="fill:none;stroke:#333795;stroke-linecap:square;stroke-width:1.5;"/>
    <defs>
     <path d="M 0 1.5 
C 0.397805 1.5 0.77937 1.341951 1.06066 1.06066 
C 1.341951 0.77937 1.5 0.397805 1.5 0 
C 1.5 -0.397805 1.341951 -0.77937 1.06066 -1.06066 
C 0.77937 -1.341951 0.397805 -1.5 0 -1.5 
C -0.397805 -1.5 -0.77937 -1.341951 -1.06066 -1.06066 
C -1.341951 -0.77937 -1.5 -0.397805 -1.5 0 
C -1.5 0.397805 -1.341951 0.77937 -1.06066 1.06066 
C -0.77937 1.341951 -0.397805 1.5 0 1.5 
z
" id="me014288f6a" style="stroke:#333795;"/>
    </defs>
    <g clip-path="url(#p53a6ccdf2f)">
     <use style="fill:#333795;stroke:#333795;" x="58.428182" xlink:href="#me014288f6a" y="229.314239"/>
     <use style="fill:#333795;stroke:#333795;" x="73.646364" xlink:href="#me014288f6a" y="224.671269"/>
     <use style="fill:#333795;stroke:#333795;" x="88.864545" xlink:href="#me014288f6a" y="212.938565"/>
     <use style="fill:#333795;stroke:#333795;" x="104.082727" xlink:href="#me014288f6a" y="196.917653"/>
     <use style="fill:#333795;stroke:#333795;" x="119.300909" xlink:href="#me014288f6a" y="180.257779"/>
     <use style="fill:#333795;stroke:#333795;" x="134.519091" xlink:href="#me014288f6a" y="166.494025"/>
     <use style="fill:#333795;stroke:#333795;" x="149.737273" xlink:href="#me014288f6a" y="158.151431"/>
     <use style="fill:#333795;stroke:#333795;" x="164.955455" xlink:href="#me014288f6a" y="156.272766"/>
     <use style="fill:#333795;stroke:#333795;" x="180.173636" xlink:href="#me014288f6a" y="160.411549"/>
     <use style="fill:#333795;stroke:#333795;" x="195.391818" xlink:href="#me014288f6a" y="169.025"/>
     <use style="fill:#333795;stroke:#333795;" x="210.61" xlink:href="#me014288f6a" y="180.069994"/>
     <use style="fill:#333795;stroke:#333795;" x="225.828182" xlink:href="#me014288f6a" y="191.583862"/>
     <use style="fill:#333795;stroke:#333795;" x="241.046364" xlink:href="#me014288f6a" y="202.08603"/>
     <use style="fill:#333795;stroke:#333795;" x="256.264545" xlink:href="#me014288f6a" y="210.73714"/>
     <use style="fill:#333795;stroke:#333795;" x="271.482727" xlink:href="#me014288f6a" y="217.287324"/>
     <use style="fill:#333795;stroke:#333795;" x="286.700909" xlink:href="#me014288f6a" y="221.900851"/>
     <use style="fill:#333795;stroke:#333795;" x="301.919091" xlink:href="#me014288f6a" y="224.952777"/>
     <use style="fill:#333795;stroke:#333795;" x="317.137273" xlink:href="#me014288f6a" y="226.864627"/>
     <use style="fill:#333795;stroke:#333795;" x="332.355455" xlink:href="#me014288f6a" y="228.006395"/>
     <use style="fill:#333795;stroke:#333795;" x="347.573636" xlink:href="#me014288f6a" y="228.65918"/>
     <use style="fill:#333795;stroke:#333795;" x="362.791818" xlink:href="#me014288f6a" y="229.016716"/>
    </g>
   </g>
   <g id="line2d_29">
    <path clip-path="url(#p53a6ccdf2f)" d="M 58.428182 229.381403 
L 73.646364 229.32539 
L 88.864545 228.650881 
L 104.082727 226.193915 
L 119.300909 220.840552 
L 134.519091 212.257987 
L 149.737273 201.286096 
L 164.955455 189.810078 
L 180.173636 180.167389 
L 195.391818 174.364144 
L 210.61 173.438757 
L 225.828182 177.217082 
L 241.046364 184.507082 
L 256.264545 193.593874 
L 271.482727 202.799831 
L 286.700909 210.897596 
L 301.919091 217.272014 
L 317.137273 221.849943 
L 332.355455 224.899496 
L 347.573636 226.815025 
L 362.791818 227.966089 
" style="fill:none;stroke:#2e5eac;stroke-linecap:square;stroke-width:1.5;"/>
    <defs>
     <path d="M 0 1.5 
C 0.397805 1.5 0.77937 1.341951 1.06066 1.06066 
C 1.341951 0.77937 1.5 0.397805 1.5 0 
C 1.5 -0.397805 1.341951 -0.77937 1.06066 -1.06066 
C 0.77937 -1.341951 0.397805 -1.5 0 -1.5 
C -0.397805 -1.5 -0.77937 -1.341951 -1.06066 -1.06066 
C -1.341951 -0.77937 -1.5 -0.397805 -1.5 0 
C -1.5 0.397805 -1.341951 0.77937 -1.06066 1.06066 
C -0.77937 1.341951 -0.397805 1.5 0 1.5 
z
" id="m356b5ca397" style="stroke:#2e5eac;"/>
    </defs>
    <g clip-path="url(#p53a6ccdf2f)">
     <use style="fill:#2e5eac;stroke:#2e5eac;" x="58.428182" xlink:href="#m356b5ca397" y="229.381403"/>
     <use style="fill:#2e5eac;stroke:#2e5eac;" x="73.646364" xlink:href="#m356b5ca397" y="229.32539"/>
     <use style="fill:#2e5eac;stroke:#2e5eac;" x="88.864545" xlink:href="#m356b5ca397" y="228.650881"/>
     <use style="fill:#2e5eac;stroke:#2e5eac;" x="104.082727" xlink:href="#m356b5ca397" y="226.193915"/>
     <use style="fill:#2e5eac;stroke:#2e5eac;" x="119.300909" xlink:href="#m356b5ca397" y="220.840552"/>
     <use style="fill:#2e5eac;stroke:#2e5eac;" x="134.519091" xlink:href="#m356b5ca397" y="212.257987"/>
     <use style="fill:#2e5eac;stroke:#2e5eac;" x="149.737273" xlink:href="#m356b5ca397" y="201.286096"/>
     <use style="fill:#2e5eac;stroke:#2e5eac;" x="164.955455" xlink:href="#m356b5ca397" y="189.810078"/>
     <use style="fill:#2e5eac;stroke:#2e5eac;" x="180.173636" xlink:href="#m356b5ca397" y="180.167389"/>
     <use style="fill:#2e5eac;stroke:#2e5eac;" x="195.391818" xlink:href="#m356b5ca397" y="174.364144"/>
     <use style="fill:#2e5eac;stroke:#2e5eac;" x="210.61" xlink:href="#m356b5ca397" y="173.438757"/>
     <use style="fill:#2e5eac;stroke:#2e5eac;" x="225.828182" xlink:href="#m356b5ca397" y="177.217082"/>
     <use style="fill:#2e5eac;stroke:#2e5eac;" x="241.046364" xlink:href="#m356b5ca397" y="184.507082"/>
     <use style="fill:#2e5eac;stroke:#2e5eac;" x="256.264545" xlink:href="#m356b5ca397" y="193.593874"/>
     <use style="fill:#2e5eac;stroke:#2e5eac;" x="271.482727" xlink:href="#m356b5ca397" y="202.799831"/>
     <use style="fill:#2e5eac;stroke:#2e5eac;" x="286.700909" xlink:href="#m356b5ca397" y="210.897596"/>
     <use style="fill:#2e5eac;stroke:#2e5eac;" x="301.919091" xlink:href="#m356b5ca397" y="217.272014"/>
     <use style="fill:#2e5eac;stroke:#2e5eac;" x="317.137273" xlink:href="#m356b5ca397" y="221.849943"/>
     <use style="fill:#2e5eac;stroke:#2e5eac;" x="332.355455" xlink:href="#m356b5ca397" y="224.899496"/>
     <use style="fill:#2e5eac;stroke:#2e5eac;" x="347.573636" xlink:href="#m356b5ca397" y="226.815025"/>
     <use style="fill:#2e5eac;stroke:#2e5eac;" x="362.791818" xlink:href="#m356b5ca397" y="227.966089"/>
    </g>
   </g>
   <g id="line2d_30">
    <path clip-path="url(#p53a6ccdf2f)" d="M 58.428182 229.396364 
L 73.646364 229.395594 
L 88.864545 229.37549 
L 104.082727 229.204014 
L 119.300909 228.487554 
L 134.519091 226.532755 
L 149.737273 222.543742 
L 164.955455 216.026679 
L 180.173636 207.209968 
L 195.391818 197.230334 
L 210.61 187.928323 
L 225.828182 181.294343 
L 241.046364 178.793788 
L 256.264545 180.86974 
L 271.482727 186.835479 
L 286.700909 195.180685 
L 301.919091 204.129126 
L 317.137273 212.194824 
L 332.355455 218.523767 
L 347.573636 222.938611 
L 362.791818 225.745531 
" style="fill:none;stroke:#4498d3;stroke-linecap:square;stroke-width:1.5;"/>
    <defs>
     <path d="M 0 1.5 
C 0.397805 1.5 0.77937 1.341951 1.06066 1.06066 
C 1.341951 0.77937 1.5 0.397805 1.5 0 
C 1.5 -0.397805 1.341951 -0.77937 1.06066 -1.06066 
C 0.77937 -1.341951 0.397805 -1.5 0 -1.5 
C -0.397805 -1.5 -0.77937 -1.341951 -1.06066 -1.06066 
C -1.341951 -0.77937 -1.5 -0.397805 -1.5 0 
C -1.5 0.397805 -1.341951 0.77937 -1.06066 1.06066 
C -0.77937 1.341951 -0.397805 1.5 0 1.5 
z
" id="m71c1d1c62d" style="stroke:#4498d3;"/>
    </defs>
    <g clip-path="url(#p53a6ccdf2f)">
     <use style="fill:#4498d3;stroke:#4498d3;" x="58.428182" xlink:href="#m71c1d1c62d" y="229.396364"/>
     <use style="fill:#4498d3;stroke:#4498d3;" x="73.646364" xlink:href="#m71c1d1c62d" y="229.395594"/>
     <use style="fill:#4498d3;stroke:#4498d3;" x="88.864545" xlink:href="#m71c1d1c62d" y="229.37549"/>
     <use style="fill:#4498d3;stroke:#4498d3;" x="104.082727" xlink:href="#m71c1d1c62d" y="229.204014"/>
     <use style="fill:#4498d3;stroke:#4498d3;" x="119.300909" xlink:href="#m71c1d1c62d" y="228.487554"/>
     <use style="fill:#4498d3;stroke:#4498d3;" x="134.519091" xlink:href="#m71c1d1c62d" y="226.532755"/>
     <use style="fill:#4498d3;stroke:#4498d3;" x="149.737273" xlink:href="#m71c1d1c62d" y="222.543742"/>
     <use style="fill:#4498d3;stroke:#4498d3;" x="164.955455" xlink:href="#m71c1d1c62d" y="216.026679"/>
     <use style="fill:#4498d3;stroke:#4498d3;" x="180.173636" xlink:href="#m71c1d1c62d" y="207.209968"/>
     <use style="fill:#4498d3;stroke:#4498d3;" x="195.391818" xlink:href="#m71c1d1c62d" y="197.230334"/>
     <use style="fill:#4498d3;stroke:#4498d3;" x="210.61" xlink:href="#m71c1d1c62d" y="187.928323"/>
     <use style="fill:#4498d3;stroke:#4498d3;" x="225.828182" xlink:href="#m71c1d1c62d" y="181.294343"/>
     <use style="fill:#4498d3;stroke:#4498d3;" x="241.046364" xlink:href="#m71c1d1c62d" y="178.793788"/>
     <use style="fill:#4498d3;stroke:#4498d3;" x="256.264545" xlink:href="#m71c1d1c62d" y="180.86974"/>
     <use style="fill:#4498d3;stroke:#4498d3;" x="271.482727" xlink:href="#m71c1d1c62d" y="186.835479"/>
     <use style="fill:#4498d3;stroke:#4498d3;" x="286.700909" xlink:href="#m71c1d1c62d" y="195.180685"/>
     <use style="fill:#4498d3;stroke:#4498d3;" x="301.919091" xlink:href="#m71c1d1c62d" y="204.129126"/>
     <use style="fill:#4498d3;stroke:#4498d3;" x="317.137273" xlink:href="#m71c1d1c62d" y="212.194824"/>
     <use style="fill:#4498d3;stroke:#4498d3;" x="332.355455" xlink:href="#m71c1d1c62d" y="218.523767"/>
     <use style="fill:#4498d3;stroke:#4498d3;" x="347.573636" xlink:href="#m71c1d1c62d" y="222.938611"/>
     <use style="fill:#4498d3;stroke:#4498d3;" x="362.791818" xlink:href="#m71c1d1c62d" y="225.745531"/>
    </g>
   </g>
   <g id="patch_3">
    <path d="M 43.21 239.28 
L 43.21 21.84 
" style="fill:none;stroke:#000000;stroke-linecap:square;stroke-linejoin:miter;stroke-width:0.8;"/>
   </g>
   <g id="patch_4">
    <path d="M 378.01 239.28 
L 378.01 21.84 
" style="fill:none;stroke:#000000;stroke-linecap:square;stroke-linejoin:miter;stroke-width:0.8;"/>
   </g>
   <g id="patch_5">
    <path d="M 43.21 239.28 
L 378.01 239.28 
" style="fill:none;stroke:#000000;stroke-linecap:square;stroke-linejoin:miter;stroke-width:0.8;"/>
   </g>
   <g id="patch_6">
    <path d="M 43.21 21.84 
L 378.01 21.84 
" style="fill:none;stroke:#000000;stroke-linecap:square;stroke-linejoin:miter;stroke-width:0.8;"/>
   </g>
   <g id="text_16">
    <!-- Displacement sequence with selective $\pi$ pulse -->
    <g transform="translate(87.91 15.84)scale(0.12 -0.12)">
     <defs>
      <path d="M 2538 -1272 
L 2538 353 
Q 2406 169 2170 47 
Q 1934 -75 1669 -75 
Q 1078 -75 651 397 
Q 225 869 225 1691 
Q 225 2191 398 2587 
Q 572 2984 901 3189 
Q 1231 3394 1625 3394 
Q 2241 3394 2594 2875 
L 2594 3319 
L 3100 3319 
L 3100 -1272 
L 2538 -1272 
z
M 803 1669 
Q 803 1028 1072 708 
Q 1341 388 1716 388 
Q 2075 388 2334 692 
Q 2594 997 2594 1619 
Q 2594 2281 2320 2615 
Q 2047 2950 1678 2950 
Q 1313 2950 1058 2639 
Q 803 2328 803 1669 
z
" id="ArialMT-71" transform="scale(0.015625)"/>
      <path d="M 1034 0 
L 19 3319 
L 600 3319 
L 1128 1403 
L 1325 691 
Q 1338 744 1497 1375 
L 2025 3319 
L 2603 3319 
L 3100 1394 
L 3266 759 
L 3456 1400 
L 4025 3319 
L 4572 3319 
L 3534 0 
L 2950 0 
L 2422 1988 
L 2294 2553 
L 1622 0 
L 1034 0 
z
" id="ArialMT-77" transform="scale(0.015625)"/>
      <path d="M 422 0 
L 422 4581 
L 984 4581 
L 984 2938 
Q 1378 3394 1978 3394 
Q 2347 3394 2619 3248 
Q 2891 3103 3008 2847 
Q 3125 2591 3125 2103 
L 3125 0 
L 2563 0 
L 2563 2103 
Q 2563 2525 2380 2717 
Q 2197 2909 1863 2909 
Q 1613 2909 1392 2779 
Q 1172 2650 1078 2428 
Q 984 2206 984 1816 
L 984 0 
L 422 0 
z
" id="ArialMT-68" transform="scale(0.015625)"/>
      <path d="M 1344 0 
L 81 3319 
L 675 3319 
L 1388 1331 
Q 1503 1009 1600 663 
Q 1675 925 1809 1294 
L 2547 3319 
L 3125 3319 
L 1869 0 
L 1344 0 
z
" id="ArialMT-76" transform="scale(0.015625)"/>
      <path d="M 584 3500 
L 3938 3500 
L 3825 2925 
L 3384 2925 
L 2966 775 
Q 2922 550 2981 450 
Q 3038 353 3209 353 
Q 3256 353 3325 363 
Q 3397 369 3419 372 
L 3338 -44 
Q 3222 -84 3103 -103 
Q 2981 -122 2866 -122 
Q 2491 -122 2388 81 
Q 2284 288 2391 838 
L 2797 2925 
L 1506 2925 
L 938 0 
L 350 0 
L 919 2925 
L 472 2925 
L 584 3500 
z
" id="DejaVuSans-Oblique-3c0" transform="scale(0.015625)"/>
     </defs>
     <use transform="translate(0 0.421875)" xlink:href="#ArialMT-44"/>
     <use transform="translate(72.216797 0.421875)" xlink:href="#ArialMT-69"/>
     <use transform="translate(94.433594 0.421875)" xlink:href="#ArialMT-73"/>
     <use transform="translate(144.433594 0.421875)" xlink:href="#ArialMT-70"/>
     <use transform="translate(200.048828 0.421875)" xlink:href="#ArialMT-6c"/>
     <use transform="translate(222.265625 0.421875)" xlink:href="#ArialMT-61"/>
     <use transform="translate(277.880859 0.421875)" xlink:href="#ArialMT-63"/>
     <use transform="translate(327.880859 0.421875)" xlink:href="#ArialMT-65"/>
     <use transform="translate(383.496094 0.421875)" xlink:href="#ArialMT-6d"/>
     <use transform="translate(466.796875 0.421875)" xlink:href="#ArialMT-65"/>
     <use transform="translate(522.412109 0.421875)" xlink:href="#ArialMT-6e"/>
     <use transform="translate(578.027344 0.421875)" xlink:href="#ArialMT-74"/>
     <use transform="translate(605.810547 0.421875)" xlink:href="#ArialMT-20"/>
     <use transform="translate(633.59375 0.421875)" xlink:href="#ArialMT-73"/>
     <use transform="translate(683.59375 0.421875)" xlink:href="#ArialMT-65"/>
     <use transform="translate(739.208984 0.421875)" xlink:href="#ArialMT-71"/>
     <use transform="translate(794.824219 0.421875)" xlink:href="#ArialMT-75"/>
     <use transform="translate(850.439453 0.421875)" xlink:href="#ArialMT-65"/>
     <use transform="translate(906.054688 0.421875)" xlink:href="#ArialMT-6e"/>
     <use transform="translate(961.669922 0.421875)" xlink:href="#ArialMT-63"/>
     <use transform="translate(1011.669922 0.421875)" xlink:href="#ArialMT-65"/>
     <use transform="translate(1067.285156 0.421875)" xlink:href="#ArialMT-20"/>
     <use transform="translate(1095.068359 0.421875)" xlink:href="#ArialMT-77"/>
     <use transform="translate(1167.285156 0.421875)" xlink:href="#ArialMT-69"/>
     <use transform="translate(1189.501953 0.421875)" xlink:href="#ArialMT-74"/>
     <use transform="translate(1217.285156 0.421875)" xlink:href="#ArialMT-68"/>
     <use transform="translate(1272.900391 0.421875)" xlink:href="#ArialMT-20"/>
     <use transform="translate(1300.683594 0.421875)" xlink:href="#ArialMT-73"/>
     <use transform="translate(1350.683594 0.421875)" xlink:href="#ArialMT-65"/>
     <use transform="translate(1406.298828 0.421875)" xlink:href="#ArialMT-6c"/>
     <use transform="translate(1428.515625 0.421875)" xlink:href="#ArialMT-65"/>
     <use transform="translate(1484.130859 0.421875)" xlink:href="#ArialMT-63"/>
     <use transform="translate(1534.130859 0.421875)" xlink:href="#ArialMT-74"/>
     <use transform="translate(1561.914062 0.421875)" xlink:href="#ArialMT-69"/>
     <use transform="translate(1584.130859 0.421875)" xlink:href="#ArialMT-76"/>
     <use transform="translate(1634.130859 0.421875)" xlink:href="#ArialMT-65"/>
     <use transform="translate(1689.746094 0.421875)" xlink:href="#ArialMT-20"/>
     <use transform="translate(1717.529297 0.421875)" xlink:href="#DejaVuSans-Oblique-3c0"/>
     <use transform="translate(1777.734375 0.421875)" xlink:href="#ArialMT-20"/>
     <use transform="translate(1805.517578 0.421875)" xlink:href="#ArialMT-70"/>
     <use transform="translate(1861.132812 0.421875)" xlink:href="#ArialMT-75"/>
     <use transform="translate(1916.748047 0.421875)" xlink:href="#ArialMT-6c"/>
     <use transform="translate(1938.964844 0.421875)" xlink:href="#ArialMT-73"/>
     <use transform="translate(1988.964844 0.421875)" xlink:href="#ArialMT-65"/>
    </g>
   </g>
   <g id="legend_1">
    <g id="patch_7">
     <path d="M 274.81 86.42125 
L 371.01 86.42125 
Q 373.01 86.42125 373.01 84.42125 
L 373.01 28.84 
Q 373.01 26.84 371.01 26.84 
L 274.81 26.84 
Q 272.81 26.84 272.81 28.84 
L 272.81 84.42125 
Q 272.81 86.42125 274.81 86.42125 
z
" style="fill:#ffffff;opacity:0.8;stroke:#cccccc;stroke-linejoin:miter;"/>
    </g>
    <g id="line2d_31">
     <path d="M 276.81 34.497812 
L 296.81 34.497812 
" style="fill:none;stroke:#016e82;stroke-linecap:square;stroke-width:1.5;"/>
    </g>
    <g id="line2d_32">
     <g>
      <use style="fill:#016e82;stroke:#016e82;" x="286.81" xlink:href="#mcaed4993ee" y="34.497812"/>
     </g>
    </g>
    <g id="text_17">
     <!-- measure n = 0 -->
     <g transform="translate(304.81 37.997812)scale(0.1 -0.1)">
      <defs>
       <path d="M 416 0 
L 416 3319 
L 922 3319 
L 922 2816 
Q 1116 3169 1280 3281 
Q 1444 3394 1641 3394 
Q 1925 3394 2219 3213 
L 2025 2691 
Q 1819 2813 1613 2813 
Q 1428 2813 1281 2702 
Q 1134 2591 1072 2394 
Q 978 2094 978 1738 
L 978 0 
L 416 0 
z
" id="ArialMT-72" transform="scale(0.015625)"/>
       <path d="M 3381 2694 
L 356 2694 
L 356 3219 
L 3381 3219 
L 3381 2694 
z
M 3381 1303 
L 356 1303 
L 356 1828 
L 3381 1828 
L 3381 1303 
z
" id="ArialMT-3d" transform="scale(0.015625)"/>
      </defs>
      <use xlink:href="#ArialMT-6d"/>
      <use x="83.300781" xlink:href="#ArialMT-65"/>
      <use x="138.916016" xlink:href="#ArialMT-61"/>
      <use x="194.53125" xlink:href="#ArialMT-73"/>
      <use x="244.53125" xlink:href="#ArialMT-75"/>
      <use x="300.146484" xlink:href="#ArialMT-72"/>
      <use x="333.447266" xlink:href="#ArialMT-65"/>
      <use x="389.0625" xlink:href="#ArialMT-20"/>
      <use x="416.845703" xlink:href="#ArialMT-6e"/>
      <use x="472.460938" xlink:href="#ArialMT-20"/>
      <use x="500.244141" xlink:href="#ArialMT-3d"/>
      <use x="558.642578" xlink:href="#ArialMT-20"/>
      <use x="586.425781" xlink:href="#ArialMT-30"/>
     </g>
    </g>
    <g id="line2d_33">
     <path d="M 276.81 48.643125 
L 296.81 48.643125 
" style="fill:none;stroke:#333795;stroke-linecap:square;stroke-width:1.5;"/>
    </g>
    <g id="line2d_34">
     <g>
      <use style="fill:#333795;stroke:#333795;" x="286.81" xlink:href="#me014288f6a" y="48.643125"/>
     </g>
    </g>
    <g id="text_18">
     <!-- measure n = 1 -->
     <g transform="translate(304.81 52.143125)scale(0.1 -0.1)">
      <use xlink:href="#ArialMT-6d"/>
      <use x="83.300781" xlink:href="#ArialMT-65"/>
      <use x="138.916016" xlink:href="#ArialMT-61"/>
      <use x="194.53125" xlink:href="#ArialMT-73"/>
      <use x="244.53125" xlink:href="#ArialMT-75"/>
      <use x="300.146484" xlink:href="#ArialMT-72"/>
      <use x="333.447266" xlink:href="#ArialMT-65"/>
      <use x="389.0625" xlink:href="#ArialMT-20"/>
      <use x="416.845703" xlink:href="#ArialMT-6e"/>
      <use x="472.460938" xlink:href="#ArialMT-20"/>
      <use x="500.244141" xlink:href="#ArialMT-3d"/>
      <use x="558.642578" xlink:href="#ArialMT-20"/>
      <use x="586.425781" xlink:href="#ArialMT-31"/>
     </g>
    </g>
    <g id="line2d_35">
     <path d="M 276.81 62.788437 
L 296.81 62.788437 
" style="fill:none;stroke:#2e5eac;stroke-linecap:square;stroke-width:1.5;"/>
    </g>
    <g id="line2d_36">
     <g>
      <use style="fill:#2e5eac;stroke:#2e5eac;" x="286.81" xlink:href="#m356b5ca397" y="62.788437"/>
     </g>
    </g>
    <g id="text_19">
     <!-- measure n = 2 -->
     <g transform="translate(304.81 66.288437)scale(0.1 -0.1)">
      <use xlink:href="#ArialMT-6d"/>
      <use x="83.300781" xlink:href="#ArialMT-65"/>
      <use x="138.916016" xlink:href="#ArialMT-61"/>
      <use x="194.53125" xlink:href="#ArialMT-73"/>
      <use x="244.53125" xlink:href="#ArialMT-75"/>
      <use x="300.146484" xlink:href="#ArialMT-72"/>
      <use x="333.447266" xlink:href="#ArialMT-65"/>
      <use x="389.0625" xlink:href="#ArialMT-20"/>
      <use x="416.845703" xlink:href="#ArialMT-6e"/>
      <use x="472.460938" xlink:href="#ArialMT-20"/>
      <use x="500.244141" xlink:href="#ArialMT-3d"/>
      <use x="558.642578" xlink:href="#ArialMT-20"/>
      <use x="586.425781" xlink:href="#ArialMT-32"/>
     </g>
    </g>
    <g id="line2d_37">
     <path d="M 276.81 76.93375 
L 296.81 76.93375 
" style="fill:none;stroke:#4498d3;stroke-linecap:square;stroke-width:1.5;"/>
    </g>
    <g id="line2d_38">
     <g>
      <use style="fill:#4498d3;stroke:#4498d3;" x="286.81" xlink:href="#m71c1d1c62d" y="76.93375"/>
     </g>
    </g>
    <g id="text_20">
     <!-- measure n = 3 -->
     <g transform="translate(304.81 80.43375)scale(0.1 -0.1)">
      <use xlink:href="#ArialMT-6d"/>
      <use x="83.300781" xlink:href="#ArialMT-65"/>
      <use x="138.916016" xlink:href="#ArialMT-61"/>
      <use x="194.53125" xlink:href="#ArialMT-73"/>
      <use x="244.53125" xlink:href="#ArialMT-75"/>
      <use x="300.146484" xlink:href="#ArialMT-72"/>
      <use x="333.447266" xlink:href="#ArialMT-65"/>
      <use x="389.0625" xlink:href="#ArialMT-20"/>
      <use x="416.845703" xlink:href="#ArialMT-6e"/>
      <use x="472.460938" xlink:href="#ArialMT-20"/>
      <use x="500.244141" xlink:href="#ArialMT-3d"/>
      <use x="558.642578" xlink:href="#ArialMT-20"/>
      <use x="586.425781" xlink:href="#ArialMT-33"/>
     </g>
    </g>
   </g>
  </g>
 </g>
 <defs>
  <clipPath id="p53a6ccdf2f">
   <rect height="217.44" width="334.8" x="43.21" y="21.84"/>
  </clipPath>
 </defs>
</svg>
