<?xml version="1.0" encoding="utf-8" standalone="no"?>
<!DOCTYPE svg PUBLIC "-//W3C//DTD SVG 1.1//EN"
  "http://www.w3.org/Graphics/SVG/1.1/DTD/svg11.dtd">
<svg xmlns:xlink="http://www.w3.org/1999/xlink" width="419.591563pt" height="310.717156pt" viewBox="0 0 419.591563 310.717156" xmlns="http://www.w3.org/2000/svg" version="1.1">
 <metadata>
  <rdf:RDF xmlns:dc="http://purl.org/dc/elements/1.1/" xmlns:cc="http://creativecommons.org/ns#" xmlns:rdf="http://www.w3.org/1999/02/22-rdf-syntax-ns#">
   <cc:Work>
    <dc:type rdf:resource="http://purl.org/dc/dcmitype/StillImage"/>
    <dc:date>2026-06-01T19:10:56.265319</dc:date>
    <dc:format>image/svg+xml</dc:format>
    <dc:creator>
     <cc:Agent>
      <dc:title>Matplotlib v3.10.8, https://matplotlib.org/</dc:title>
     </cc:Agent>
    </dc:creator>
   </cc:Work>
  </rdf:RDF>
 </metadata>
 <defs>
  <style type="text/css">*{stroke-linejoin: round; stroke-linecap: butt}</style>
 </defs>
 <g id="figure_1">
  <g id="patch_1">
   <path d="M 0 310.717156 
L 419.591563 310.717156 
L 419.591563 0 
L 0 0 
z
" style="fill: #ffffff"/>
  </g>
  <g id="axes_1">
   <g id="patch_2">
    <path d="M 55.271563 273.312 
L 412.391563 273.312 
L 412.391563 7.2 
L 55.271563 7.2 
z
" style="fill: #ffffff"/>
   </g>
   <g id="FillBetweenPolyCollection_1">
    <path d="M 71.50429 214.390979 
L 71.50429 214.390979 
L 73.668653 214.390915 
L 75.833017 214.390722 
L 77.997381 214.390392 
L 80.161744 214.389913 
L 82.326108 214.389269 
L 84.490472 214.388435 
L 86.654835 214.387383 
L 88.819199 214.386075 
L 90.983563 214.384466 
L 93.147926 214.3825 
L 95.31229 214.38011 
L 97.476653 214.377217 
L 99.641017 214.373726 
L 101.805381 214.369523 
L 103.969744 214.364475 
L 106.134108 214.358427 
L 108.298472 214.351194 
L 110.462835 214.342563 
L 112.627199 214.332283 
L 114.791562 214.320067 
L 116.955926 214.30558 
L 119.12029 214.288439 
L 121.284653 214.268204 
L 123.449017 214.244373 
L 125.613381 214.216375 
L 127.777744 214.183567 
L 129.942108 214.145224 
L 132.106472 214.100532 
L 134.270835 214.048589 
L 136.435199 213.988392 
L 138.599562 213.91884 
L 140.763926 213.838727 
L 142.92829 213.746743 
L 145.092653 213.641477 
L 147.257017 213.521416 
L 149.421381 213.384957 
L 151.585744 213.230413 
L 153.750108 213.056028 
L 155.914472 212.859998 
L 158.078835 212.640486 
L 160.243199 212.395657 
L 162.407562 212.123703 
L 164.571926 211.822883 
L 166.73629 211.491563 
L 168.900653 211.12826 
L 171.065017 210.731693 
L 173.229381 210.300834 
L 175.393744 209.834958 
L 177.558108 209.333705 
L 179.722472 208.797128 
L 181.886835 208.225746 
L 184.051199 207.620594 
L 186.215563 206.983264 
L 188.379926 206.315939 
L 190.54429 205.621422 
L 192.708653 204.903144 
L 194.873017 204.165172 
L 197.037381 203.412192 
L 199.201744 202.649482 
L 201.366108 201.882869 
L 203.530472 201.118666 
L 205.694835 200.363601 
L 207.859199 199.62472 
L 210.023562 198.909286 
L 212.187926 198.224665 
L 214.35229 197.578193 
L 216.516653 196.977052 
L 218.681017 196.428132 
L 220.845381 195.937896 
L 223.009744 195.512255 
L 225.174108 195.156437 
L 227.338472 194.874889 
L 229.502835 194.671169 
L 231.667199 194.547881 
L 233.831562 194.506608 
L 235.995926 194.547881 
L 238.16029 194.671169 
L 240.324653 194.874889 
L 242.489017 195.156437 
L 244.653381 195.512255 
L 246.817744 195.937896 
L 248.982108 196.428132 
L 251.146472 196.977052 
L 253.310835 197.578193 
L 255.475199 198.224665 
L 257.639563 198.909286 
L 259.803926 199.62472 
L 261.96829 200.363601 
L 264.132653 201.118666 
L 266.297017 201.882869 
L 268.461381 202.649482 
L 270.625744 203.412192 
L 272.790108 204.165172 
L 274.954472 204.903144 
L 277.118835 205.621422 
L 279.283199 206.315939 
L 281.447563 206.983264 
L 283.611926 207.620594 
L 285.77629 208.225746 
L 287.940653 208.797128 
L 290.105017 209.333705 
L 292.269381 209.834958 
L 294.433744 210.300834 
L 296.598108 210.731693 
L 298.762472 211.12826 
L 300.926835 211.491563 
L 303.091199 211.822883 
L 305.255562 212.123703 
L 307.419926 212.395657 
L 309.58429 212.640486 
L 311.748653 212.859998 
L 313.913017 213.056028 
L 316.077381 213.230413 
L 318.241744 213.384957 
L 320.406108 213.521416 
L 322.570472 213.641477 
L 324.734835 213.746743 
L 326.899199 213.838727 
L 329.063562 213.91884 
L 331.227926 213.988392 
L 333.39229 214.048589 
L 335.556653 214.100532 
L 337.721017 214.145224 
L 339.885381 214.183567 
L 342.049744 214.216375 
L 344.214108 214.244373 
L 346.378472 214.268204 
L 348.542835 214.288439 
L 350.707199 214.30558 
L 352.871562 214.320067 
L 355.035926 214.332283 
L 357.20029 214.342563 
L 359.364653 214.351194 
L 361.529017 214.358427 
L 363.693381 214.364475 
L 365.857744 214.369523 
L 368.022108 214.373726 
L 370.186472 214.377217 
L 372.350835 214.38011 
L 374.515199 214.3825 
L 376.679562 214.384466 
L 378.843926 214.386075 
L 381.00829 214.387383 
L 383.172653 214.388435 
L 385.337017 214.389269 
L 387.501381 214.389913 
L 389.665744 214.390392 
L 391.830108 214.390722 
L 393.994472 214.390915 
L 396.158835 214.390979 
L 396.158835 214.390979 
L 396.158835 214.394375 
L 393.994472 214.394375 
L 391.830108 214.394375 
L 389.665744 214.394375 
L 387.501381 214.394375 
L 385.337017 214.394375 
L 383.172653 214.394375 
L 381.00829 214.394375 
L 378.843926 214.394375 
L 376.679562 214.394375 
L 374.515199 214.394375 
L 372.350835 214.394375 
L 370.186472 214.394375 
L 368.022108 214.394375 
L 365.857744 214.394375 
L 363.693381 214.394375 
L 361.529017 214.394375 
L 359.364653 214.394375 
L 357.20029 214.394375 
L 355.035926 214.394375 
L 352.871562 214.394375 
L 350.707199 214.394375 
L 348.542835 214.394375 
L 346.378472 214.394375 
L 344.214108 214.394375 
L 342.049744 214.394375 
L 339.885381 214.394375 
L 337.721017 214.394375 
L 335.556653 214.394375 
L 333.39229 214.394375 
L 331.227926 214.394375 
L 329.063562 214.394375 
L 326.899199 214.394375 
L 324.734835 214.394375 
L 322.570472 214.394375 
L 320.406108 214.394375 
L 318.241744 214.394375 
L 316.077381 214.394375 
L 313.913017 214.394375 
L 311.748653 214.394375 
L 309.58429 214.394375 
L 307.419926 214.394375 
L 305.255562 214.394375 
L 303.091199 214.394375 
L 300.926835 214.394375 
L 298.762472 214.394375 
L 296.598108 214.394375 
L 294.433744 214.394375 
L 292.269381 214.394375 
L 290.105017 214.394375 
L 287.940653 214.394375 
L 285.77629 214.394375 
L 283.611926 214.394375 
L 281.447563 214.394375 
L 279.283199 214.394375 
L 277.118835 214.394375 
L 274.954472 214.394375 
L 272.790108 214.394375 
L 270.625744 214.394375 
L 268.461381 214.394375 
L 266.297017 214.394375 
L 264.132653 214.394375 
L 261.96829 214.394375 
L 259.803926 214.394375 
L 257.639563 214.394375 
L 255.475199 214.394375 
L 253.310835 214.394375 
L 251.146472 214.394375 
L 248.982108 214.394375 
L 246.817744 214.394375 
L 244.653381 214.394375 
L 242.489017 214.394375 
L 240.324653 214.394375 
L 238.16029 214.394375 
L 235.995926 214.394375 
L 233.831562 214.394375 
L 231.667199 214.394375 
L 229.502835 214.394375 
L 227.338472 214.394375 
L 225.174108 214.394375 
L 223.009744 214.394375 
L 220.845381 214.394375 
L 218.681017 214.394375 
L 216.516653 214.394375 
L 214.35229 214.394375 
L 212.187926 214.394375 
L 210.023562 214.394375 
L 207.859199 214.394375 
L 205.694835 214.394375 
L 203.530472 214.394375 
L 201.366108 214.394375 
L 199.201744 214.394375 
L 197.037381 214.394375 
L 194.873017 214.394375 
L 192.708653 214.394375 
L 190.54429 214.394375 
L 188.379926 214.394375 
L 186.215563 214.394375 
L 184.051199 214.394375 
L 181.886835 214.394375 
L 179.722472 214.394375 
L 177.558108 214.394375 
L 175.393744 214.394375 
L 173.229381 214.394375 
L 171.065017 214.394375 
L 168.900653 214.394375 
L 166.73629 214.394375 
L 164.571926 214.394375 
L 162.407562 214.394375 
L 160.243199 214.394375 
L 158.078835 214.394375 
L 155.914472 214.394375 
L 153.750108 214.394375 
L 151.585744 214.394375 
L 149.421381 214.394375 
L 147.257017 214.394375 
L 145.092653 214.394375 
L 142.92829 214.394375 
L 140.763926 214.394375 
L 138.599562 214.394375 
L 136.435199 214.394375 
L 134.270835 214.394375 
L 132.106472 214.394375 
L 129.942108 214.394375 
L 127.777744 214.394375 
L 125.613381 214.394375 
L 123.449017 214.394375 
L 121.284653 214.394375 
L 119.12029 214.394375 
L 116.955926 214.394375 
L 114.791562 214.394375 
L 112.627199 214.394375 
L 110.462835 214.394375 
L 108.298472 214.394375 
L 106.134108 214.394375 
L 103.969744 214.394375 
L 101.805381 214.394375 
L 99.641017 214.394375 
L 97.476653 214.394375 
L 95.31229 214.394375 
L 93.147926 214.394375 
L 90.983563 214.394375 
L 88.819199 214.394375 
L 86.654835 214.394375 
L 84.490472 214.394375 
L 82.326108 214.394375 
L 80.161744 214.394375 
L 77.997381 214.394375 
L 75.833017 214.394375 
L 73.668653 214.394375 
L 71.50429 214.394375 
z
" clip-path="url(#p12f0dc68cf)" style="fill: #016e82"/>
   </g>
   <g id="FillBetweenPolyCollection_2">
    <path d="M 71.50429 136.875559 
L 73.668653 136.870487 
L 75.833017 136.865266 
L 77.997381 136.859744 
L 80.161744 136.85376 
L 82.326108 136.847142 
L 84.490472 136.839703 
L 86.654835 136.831235 
L 88.819199 136.821505 
L 90.983563 136.810251 
L 93.147926 136.797175 
L 95.31229 136.781939 
L 97.476653 136.764159 
L 99.641017 136.743396 
L 101.805381 136.719152 
L 103.969744 136.690862 
L 106.134108 136.657887 
L 108.298472 136.619504 
L 110.462835 136.574903 
L 112.627199 136.523177 
L 114.791562 136.463314 
L 116.955926 136.394197 
L 119.12029 136.31459 
L 121.284653 136.223143 
L 123.449017 136.118386 
L 125.613381 135.998733 
L 127.777744 135.862485 
L 129.942108 135.707836 
L 132.106472 135.532891 
L 134.270835 135.335678 
L 136.435199 135.114174 
L 138.599562 134.866335 
L 140.763926 134.590133 
L 142.92829 134.283595 
L 145.092653 133.944862 
L 147.257017 133.572244 
L 149.421381 133.164285 
L 151.585744 132.719841 
L 153.750108 132.238155 
L 155.914472 131.718947 
L 158.078835 131.162499 
L 160.243199 130.569744 
L 162.407562 129.942356 
L 164.571926 129.282833 
L 166.73629 128.594577 
L 168.900653 127.881953 
L 171.065017 127.150347 
L 173.229381 126.406197 
L 175.393744 125.656998 
L 177.558108 124.911293 
L 179.722472 124.178619 
L 181.886835 123.469437 
L 184.051199 122.795015 
L 186.215563 122.167282 
L 188.379926 121.598648 
L 190.54429 121.101787 
L 192.708653 120.689396 
L 194.873017 120.373918 
L 197.037381 120.16726 
L 199.201744 120.08048 
L 201.366108 120.123487 
L 203.530472 120.30473 
L 205.694835 120.630915 
L 207.859199 121.106736 
L 210.023562 121.734644 
L 212.187926 122.514665 
L 214.35229 123.444262 
L 216.516653 124.518263 
L 218.681017 125.728856 
L 220.845381 127.065644 
L 223.009744 128.515778 
L 225.174108 130.064159 
L 227.338472 131.693694 
L 229.502835 133.385625 
L 231.667199 135.119895 
L 233.831562 136.875559 
L 235.995926 138.631224 
L 238.16029 140.365494 
L 240.324653 142.057425 
L 242.489017 143.68696 
L 244.653381 145.235341 
L 246.817744 146.685475 
L 248.982108 148.022263 
L 251.146472 149.232856 
L 253.310835 150.306857 
L 255.475199 151.236454 
L 257.639563 152.016475 
L 259.803926 152.644383 
L 261.96829 153.120204 
L 264.132653 153.446389 
L 266.297017 153.627632 
L 268.461381 153.670639 
L 270.625744 153.583859 
L 272.790108 153.377201 
L 274.954472 153.061723 
L 277.118835 152.649332 
L 279.283199 152.152471 
L 281.447563 151.583837 
L 283.611926 150.956104 
L 285.77629 150.281682 
L 287.940653 149.5725 
L 290.105017 148.839826 
L 292.269381 148.094121 
L 294.433744 147.344922 
L 296.598108 146.600771 
L 298.762472 145.869166 
L 300.926835 145.156542 
L 303.091199 144.468286 
L 305.255562 143.808763 
L 307.419926 143.181375 
L 309.58429 142.58862 
L 311.748653 142.032172 
L 313.913017 141.512964 
L 316.077381 141.031278 
L 318.241744 140.586834 
L 320.406108 140.178875 
L 322.570472 139.806257 
L 324.734835 139.467524 
L 326.899199 139.160986 
L 329.063562 138.884783 
L 331.227926 138.636945 
L 333.39229 138.415441 
L 335.556653 138.218228 
L 337.721017 138.043282 
L 339.885381 137.888634 
L 342.049744 137.752386 
L 344.214108 137.632733 
L 346.378472 137.527976 
L 348.542835 137.436529 
L 350.707199 137.356922 
L 352.871562 137.287805 
L 355.035926 137.227942 
L 357.20029 137.176216 
L 359.364653 137.131615 
L 361.529017 137.093232 
L 363.693381 137.060257 
L 365.857744 137.031967 
L 368.022108 137.007723 
L 370.186472 136.98696 
L 372.350835 136.96918 
L 374.515199 136.953944 
L 376.679562 136.940868 
L 378.843926 136.929614 
L 381.00829 136.919884 
L 383.172653 136.911416 
L 385.337017 136.903977 
L 387.501381 136.897359 
L 389.665744 136.891375 
L 391.830108 136.885852 
L 393.994472 136.880632 
L 396.158835 136.875559 
L 393.994472 136.875559 
L 391.830108 136.875559 
L 389.665744 136.875559 
L 387.501381 136.875559 
L 385.337017 136.875559 
L 383.172653 136.875559 
L 381.00829 136.875559 
L 378.843926 136.875559 
L 376.679562 136.875559 
L 374.515199 136.875559 
L 372.350835 136.875559 
L 370.186472 136.875559 
L 368.022108 136.875559 
L 365.857744 136.875559 
L 363.693381 136.875559 
L 361.529017 136.875559 
L 359.364653 136.875559 
L 357.20029 136.875559 
L 355.035926 136.875559 
L 352.871562 136.875559 
L 350.707199 136.875559 
L 348.542835 136.875559 
L 346.378472 136.875559 
L 344.214108 136.875559 
L 342.049744 136.875559 
L 339.885381 136.875559 
L 337.721017 136.875559 
L 335.556653 136.875559 
L 333.39229 136.875559 
L 331.227926 136.875559 
L 329.063562 136.875559 
L 326.899199 136.875559 
L 324.734835 136.875559 
L 322.570472 136.875559 
L 320.406108 136.875559 
L 318.241744 136.875559 
L 316.077381 136.875559 
L 313.913017 136.875559 
L 311.748653 136.875559 
L 309.58429 136.875559 
L 307.419926 136.875559 
L 305.255562 136.875559 
L 303.091199 136.875559 
L 300.926835 136.875559 
L 298.762472 136.875559 
L 296.598108 136.875559 
L 294.433744 136.875559 
L 292.269381 136.875559 
L 290.105017 136.875559 
L 287.940653 136.875559 
L 285.77629 136.875559 
L 283.611926 136.875559 
L 281.447563 136.875559 
L 279.283199 136.875559 
L 277.118835 136.875559 
L 274.954472 136.875559 
L 272.790108 136.875559 
L 270.625744 136.875559 
L 268.461381 136.875559 
L 266.297017 136.875559 
L 264.132653 136.875559 
L 261.96829 136.875559 
L 259.803926 136.875559 
L 257.639563 136.875559 
L 255.475199 136.875559 
L 253.310835 136.875559 
L 251.146472 136.875559 
L 248.982108 136.875559 
L 246.817744 136.875559 
L 244.653381 136.875559 
L 242.489017 136.875559 
L 240.324653 136.875559 
L 238.16029 136.875559 
L 235.995926 136.875559 
L 233.831562 136.875559 
L 231.667199 136.875559 
L 229.502835 136.875559 
L 227.338472 136.875559 
L 225.174108 136.875559 
L 223.009744 136.875559 
L 220.845381 136.875559 
L 218.681017 136.875559 
L 216.516653 136.875559 
L 214.35229 136.875559 
L 212.187926 136.875559 
L 210.023562 136.875559 
L 207.859199 136.875559 
L 205.694835 136.875559 
L 203.530472 136.875559 
L 201.366108 136.875559 
L 199.201744 136.875559 
L 197.037381 136.875559 
L 194.873017 136.875559 
L 192.708653 136.875559 
L 190.54429 136.875559 
L 188.379926 136.875559 
L 186.215563 136.875559 
L 184.051199 136.875559 
L 181.886835 136.875559 
L 179.722472 136.875559 
L 177.558108 136.875559 
L 175.393744 136.875559 
L 173.229381 136.875559 
L 171.065017 136.875559 
L 168.900653 136.875559 
L 166.73629 136.875559 
L 164.571926 136.875559 
L 162.407562 136.875559 
L 160.243199 136.875559 
L 158.078835 136.875559 
L 155.914472 136.875559 
L 153.750108 136.875559 
L 151.585744 136.875559 
L 149.421381 136.875559 
L 147.257017 136.875559 
L 145.092653 136.875559 
L 142.92829 136.875559 
L 140.763926 136.875559 
L 138.599562 136.875559 
L 136.435199 136.875559 
L 134.270835 136.875559 
L 132.106472 136.875559 
L 129.942108 136.875559 
L 127.777744 136.875559 
L 125.613381 136.875559 
L 123.449017 136.875559 
L 121.284653 136.875559 
L 119.12029 136.875559 
L 116.955926 136.875559 
L 114.791562 136.875559 
L 112.627199 136.875559 
L 110.462835 136.875559 
L 108.298472 136.875559 
L 106.134108 136.875559 
L 103.969744 136.875559 
L 101.805381 136.875559 
L 99.641017 136.875559 
L 97.476653 136.875559 
L 95.31229 136.875559 
L 93.147926 136.875559 
L 90.983563 136.875559 
L 88.819199 136.875559 
L 86.654835 136.875559 
L 84.490472 136.875559 
L 82.326108 136.875559 
L 80.161744 136.875559 
L 77.997381 136.875559 
L 75.833017 136.875559 
L 73.668653 136.875559 
z
" clip-path="url(#p12f0dc68cf)" style="fill: #333795"/>
   </g>
   <g id="FillBetweenPolyCollection_3">
    <path d="M 71.50429 64.047998 
L 71.50429 64.047998 
L 73.668653 64.046082 
L 75.833017 64.040296 
L 77.997381 64.030525 
L 80.161744 64.016573 
L 82.326108 63.998166 
L 84.490472 63.974947 
L 86.654835 63.946469 
L 88.819199 63.912197 
L 90.983563 63.871501 
L 93.147926 63.823648 
L 95.31229 63.767804 
L 97.476653 63.703023 
L 99.641017 63.628247 
L 101.805381 63.542303 
L 103.969744 63.443897 
L 106.134108 63.33162 
L 108.298472 63.203947 
L 110.462835 63.059241 
L 112.627199 62.895768 
L 114.791562 62.711703 
L 116.955926 62.505154 
L 119.12029 62.274187 
L 121.284653 62.01685 
L 123.449017 61.731221 
L 125.613381 61.415448 
L 127.777744 61.067804 
L 129.942108 60.686755 
L 132.106472 60.271026 
L 134.270835 59.819687 
L 136.435199 59.332235 
L 138.599562 58.808696 
L 140.763926 58.249717 
L 142.92829 57.656676 
L 145.092653 57.031779 
L 147.257017 56.378161 
L 149.421381 55.699982 
L 151.585744 55.002501 
L 153.750108 54.292147 
L 155.914472 53.576559 
L 158.078835 52.864602 
L 160.243199 52.166351 
L 162.407562 51.493038 
L 164.571926 50.856954 
L 166.73629 50.27131 
L 168.900653 49.750046 
L 171.065017 49.30759 
L 173.229381 48.958573 
L 175.393744 48.717492 
L 177.558108 48.598339 
L 179.722472 48.614185 
L 181.886835 48.776751 
L 184.051199 49.09596 
L 186.215563 49.579494 
L 188.379926 50.232362 
L 190.54429 51.056511 
L 192.708653 52.050481 
L 194.873017 53.209129 
L 197.037381 54.523446 
L 199.201744 55.980464 
L 201.366108 57.563281 
L 203.530472 59.251207 
L 205.694835 61.020032 
L 207.859199 62.842423 
L 210.023562 64.688441 
L 212.187926 66.526168 
L 214.35229 68.322429 
L 216.516653 70.043591 
L 218.681017 71.656411 
L 220.845381 73.12891 
L 223.009744 74.431238 
L 225.174108 75.53651 
L 227.338472 76.421567 
L 229.502835 77.067649 
L 231.667199 77.46094 
L 233.831562 77.592987 
L 235.995926 77.46094 
L 238.16029 77.067649 
L 240.324653 76.421567 
L 242.489017 75.53651 
L 244.653381 74.431238 
L 246.817744 73.12891 
L 248.982108 71.656411 
L 251.146472 70.043591 
L 253.310835 68.322429 
L 255.475199 66.526168 
L 257.639563 64.688441 
L 259.803926 62.842423 
L 261.96829 61.020032 
L 264.132653 59.251207 
L 266.297017 57.563281 
L 268.461381 55.980464 
L 270.625744 54.523446 
L 272.790108 53.209129 
L 274.954472 52.050481 
L 277.118835 51.056511 
L 279.283199 50.232362 
L 281.447563 49.579494 
L 283.611926 49.09596 
L 285.77629 48.776751 
L 287.940653 48.614185 
L 290.105017 48.598339 
L 292.269381 48.717492 
L 294.433744 48.958573 
L 296.598108 49.30759 
L 298.762472 49.750046 
L 300.926835 50.27131 
L 303.091199 50.856954 
L 305.255562 51.493038 
L 307.419926 52.166351 
L 309.58429 52.864602 
L 311.748653 53.576559 
L 313.913017 54.292147 
L 316.077381 55.002501 
L 318.241744 55.699982 
L 320.406108 56.378161 
L 322.570472 57.031779 
L 324.734835 57.656676 
L 326.899199 58.249717 
L 329.063562 58.808696 
L 331.227926 59.332235 
L 333.39229 59.819687 
L 335.556653 60.271026 
L 337.721017 60.686755 
L 339.885381 61.067804 
L 342.049744 61.415448 
L 344.214108 61.731221 
L 346.378472 62.01685 
L 348.542835 62.274187 
L 350.707199 62.505154 
L 352.871562 62.711703 
L 355.035926 62.895768 
L 357.20029 63.059241 
L 359.364653 63.203947 
L 361.529017 63.33162 
L 363.693381 63.443897 
L 365.857744 63.542303 
L 368.022108 63.628247 
L 370.186472 63.703023 
L 372.350835 63.767804 
L 374.515199 63.823648 
L 376.679562 63.871501 
L 378.843926 63.912197 
L 381.00829 63.946469 
L 383.172653 63.974947 
L 385.337017 63.998166 
L 387.501381 64.016573 
L 389.665744 64.030525 
L 391.830108 64.040296 
L 393.994472 64.046082 
L 396.158835 64.047998 
L 396.158835 64.047998 
L 396.158835 64.224 
L 393.994472 64.224 
L 391.830108 64.224 
L 389.665744 64.224 
L 387.501381 64.224 
L 385.337017 64.224 
L 383.172653 64.224 
L 381.00829 64.224 
L 378.843926 64.224 
L 376.679562 64.224 
L 374.515199 64.224 
L 372.350835 64.224 
L 370.186472 64.224 
L 368.022108 64.224 
L 365.857744 64.224 
L 363.693381 64.224 
L 361.529017 64.224 
L 359.364653 64.224 
L 357.20029 64.224 
L 355.035926 64.224 
L 352.871562 64.224 
L 350.707199 64.224 
L 348.542835 64.224 
L 346.378472 64.224 
L 344.214108 64.224 
L 342.049744 64.224 
L 339.885381 64.224 
L 337.721017 64.224 
L 335.556653 64.224 
L 333.39229 64.224 
L 331.227926 64.224 
L 329.063562 64.224 
L 326.899199 64.224 
L 324.734835 64.224 
L 322.570472 64.224 
L 320.406108 64.224 
L 318.241744 64.224 
L 316.077381 64.224 
L 313.913017 64.224 
L 311.748653 64.224 
L 309.58429 64.224 
L 307.419926 64.224 
L 305.255562 64.224 
L 303.091199 64.224 
L 300.926835 64.224 
L 298.762472 64.224 
L 296.598108 64.224 
L 294.433744 64.224 
L 292.269381 64.224 
L 290.105017 64.224 
L 287.940653 64.224 
L 285.77629 64.224 
L 283.611926 64.224 
L 281.447563 64.224 
L 279.283199 64.224 
L 277.118835 64.224 
L 274.954472 64.224 
L 272.790108 64.224 
L 270.625744 64.224 
L 268.461381 64.224 
L 266.297017 64.224 
L 264.132653 64.224 
L 261.96829 64.224 
L 259.803926 64.224 
L 257.639563 64.224 
L 255.475199 64.224 
L 253.310835 64.224 
L 251.146472 64.224 
L 248.982108 64.224 
L 246.817744 64.224 
L 244.653381 64.224 
L 242.489017 64.224 
L 240.324653 64.224 
L 238.16029 64.224 
L 235.995926 64.224 
L 233.831562 64.224 
L 231.667199 64.224 
L 229.502835 64.224 
L 227.338472 64.224 
L 225.174108 64.224 
L 223.009744 64.224 
L 220.845381 64.224 
L 218.681017 64.224 
L 216.516653 64.224 
L 214.35229 64.224 
L 212.187926 64.224 
L 210.023562 64.224 
L 207.859199 64.224 
L 205.694835 64.224 
L 203.530472 64.224 
L 201.366108 64.224 
L 199.201744 64.224 
L 197.037381 64.224 
L 194.873017 64.224 
L 192.708653 64.224 
L 190.54429 64.224 
L 188.379926 64.224 
L 186.215563 64.224 
L 184.051199 64.224 
L 181.886835 64.224 
L 179.722472 64.224 
L 177.558108 64.224 
L 175.393744 64.224 
L 173.229381 64.224 
L 171.065017 64.224 
L 168.900653 64.224 
L 166.73629 64.224 
L 164.571926 64.224 
L 162.407562 64.224 
L 160.243199 64.224 
L 158.078835 64.224 
L 155.914472 64.224 
L 153.750108 64.224 
L 151.585744 64.224 
L 149.421381 64.224 
L 147.257017 64.224 
L 145.092653 64.224 
L 142.92829 64.224 
L 140.763926 64.224 
L 138.599562 64.224 
L 136.435199 64.224 
L 134.270835 64.224 
L 132.106472 64.224 
L 129.942108 64.224 
L 127.777744 64.224 
L 125.613381 64.224 
L 123.449017 64.224 
L 121.284653 64.224 
L 119.12029 64.224 
L 116.955926 64.224 
L 114.791562 64.224 
L 112.627199 64.224 
L 110.462835 64.224 
L 108.298472 64.224 
L 106.134108 64.224 
L 103.969744 64.224 
L 101.805381 64.224 
L 99.641017 64.224 
L 97.476653 64.224 
L 95.31229 64.224 
L 93.147926 64.224 
L 90.983563 64.224 
L 88.819199 64.224 
L 86.654835 64.224 
L 84.490472 64.224 
L 82.326108 64.224 
L 80.161744 64.224 
L 77.997381 64.224 
L 75.833017 64.224 
L 73.668653 64.224 
L 71.50429 64.224 
z
" clip-path="url(#p12f0dc68cf)" style="fill: #2e5eac"/>
   </g>
   <g id="matplotlib.axis_1">
    <g id="xtick_1">
     <g id="line2d_1">
      <defs>
       <path id="m244a88bde1" d="M 0 0 
L 0 3.5 
" style="stroke: #333333; stroke-width: 0.8"/>
      </defs>
      <g>
       <use xlink:href="#m244a88bde1" x="78.820435" y="273.312" style="fill: #333333; stroke: #333333; stroke-width: 0.8"/>
      </g>
     </g>
     <g id="text_1">
      <!-- −3 -->
      <g style="fill: #333333" transform="translate(73.119654 287.469812) scale(0.1 -0.1)">
       <defs>
        <path id="ArialMT-2212" d="M 3381 1997 
L 356 1997 
L 356 2522 
L 3381 2522 
L 3381 1997 
z
" transform="scale(0.015625)"/>
        <path id="ArialMT-33" d="M 269 1209 
L 831 1284 
Q 928 806 1161 595 
Q 1394 384 1728 384 
Q 2125 384 2398 659 
Q 2672 934 2672 1341 
Q 2672 1728 2419 1979 
Q 2166 2231 1775 2231 
Q 1616 2231 1378 2169 
L 1441 2663 
Q 1497 2656 1531 2656 
Q 1891 2656 2178 2843 
Q 2466 3031 2466 3422 
Q 2466 3731 2256 3934 
Q 2047 4138 1716 4138 
Q 1388 4138 1169 3931 
Q 950 3725 888 3313 
L 325 3413 
Q 428 3978 793 4289 
Q 1159 4600 1703 4600 
Q 2078 4600 2393 4439 
Q 2709 4278 2876 4000 
Q 3044 3722 3044 3409 
Q 3044 3113 2884 2869 
Q 2725 2625 2413 2481 
Q 2819 2388 3044 2092 
Q 3269 1797 3269 1353 
Q 3269 753 2831 336 
Q 2394 -81 1725 -81 
Q 1122 -81 723 278 
Q 325 638 269 1209 
z
" transform="scale(0.015625)"/>
       </defs>
       <use xlink:href="#ArialMT-2212"/>
       <use xlink:href="#ArialMT-33" transform="translate(58.398438 0)"/>
      </g>
     </g>
    </g>
    <g id="xtick_2">
     <g id="line2d_2">
      <g>
       <use xlink:href="#m244a88bde1" x="130.490811" y="273.312" style="fill: #333333; stroke: #333333; stroke-width: 0.8"/>
      </g>
     </g>
     <g id="text_2">
      <!-- −2 -->
      <g style="fill: #333333" transform="translate(124.79003 287.469812) scale(0.1 -0.1)">
       <defs>
        <path id="ArialMT-32" d="M 3222 541 
L 3222 0 
L 194 0 
Q 188 203 259 391 
Q 375 700 629 1000 
Q 884 1300 1366 1694 
Q 2113 2306 2375 2664 
Q 2638 3022 2638 3341 
Q 2638 3675 2398 3904 
Q 2159 4134 1775 4134 
Q 1369 4134 1125 3890 
Q 881 3647 878 3216 
L 300 3275 
Q 359 3922 746 4261 
Q 1134 4600 1788 4600 
Q 2447 4600 2831 4234 
Q 3216 3869 3216 3328 
Q 3216 3053 3103 2787 
Q 2991 2522 2730 2228 
Q 2469 1934 1863 1422 
Q 1356 997 1212 845 
Q 1069 694 975 541 
L 3222 541 
z
" transform="scale(0.015625)"/>
       </defs>
       <use xlink:href="#ArialMT-2212"/>
       <use xlink:href="#ArialMT-32" transform="translate(58.398438 0)"/>
      </g>
     </g>
    </g>
    <g id="xtick_3">
     <g id="line2d_3">
      <g>
       <use xlink:href="#m244a88bde1" x="182.161187" y="273.312" style="fill: #333333; stroke: #333333; stroke-width: 0.8"/>
      </g>
     </g>
     <g id="text_3">
      <!-- −1 -->
      <g style="fill: #333333" transform="translate(176.460406 287.469812) scale(0.1 -0.1)">
       <defs>
        <path id="ArialMT-31" d="M 2384 0 
L 1822 0 
L 1822 3584 
Q 1619 3391 1289 3197 
Q 959 3003 697 2906 
L 697 3450 
Q 1169 3672 1522 3987 
Q 1875 4303 2022 4600 
L 2384 4600 
L 2384 0 
z
" transform="scale(0.015625)"/>
       </defs>
       <use xlink:href="#ArialMT-2212"/>
       <use xlink:href="#ArialMT-31" transform="translate(58.398438 0)"/>
      </g>
     </g>
    </g>
    <g id="xtick_4">
     <g id="line2d_4">
      <g>
       <use xlink:href="#m244a88bde1" x="233.831563" y="273.312" style="fill: #333333; stroke: #333333; stroke-width: 0.8"/>
      </g>
     </g>
     <g id="text_4">
      <!-- 0 -->
      <g style="fill: #333333" transform="translate(231.051094 287.469812) scale(0.1 -0.1)">
       <defs>
        <path id="ArialMT-30" d="M 266 2259 
Q 266 3072 433 3567 
Q 600 4063 929 4331 
Q 1259 4600 1759 4600 
Q 2128 4600 2406 4451 
Q 2684 4303 2865 4023 
Q 3047 3744 3150 3342 
Q 3253 2941 3253 2259 
Q 3253 1453 3087 958 
Q 2922 463 2592 192 
Q 2263 -78 1759 -78 
Q 1097 -78 719 397 
Q 266 969 266 2259 
z
M 844 2259 
Q 844 1131 1108 757 
Q 1372 384 1759 384 
Q 2147 384 2411 759 
Q 2675 1134 2675 2259 
Q 2675 3391 2411 3762 
Q 2147 4134 1753 4134 
Q 1366 4134 1134 3806 
Q 844 3388 844 2259 
z
" transform="scale(0.015625)"/>
       </defs>
       <use xlink:href="#ArialMT-30"/>
      </g>
     </g>
    </g>
    <g id="xtick_5">
     <g id="line2d_5">
      <g>
       <use xlink:href="#m244a88bde1" x="285.501938" y="273.312" style="fill: #333333; stroke: #333333; stroke-width: 0.8"/>
      </g>
     </g>
     <g id="text_5">
      <!-- 1 -->
      <g style="fill: #333333" transform="translate(282.721469 287.469812) scale(0.1 -0.1)">
       <use xlink:href="#ArialMT-31"/>
      </g>
     </g>
    </g>
    <g id="xtick_6">
     <g id="line2d_6">
      <g>
       <use xlink:href="#m244a88bde1" x="337.172314" y="273.312" style="fill: #333333; stroke: #333333; stroke-width: 0.8"/>
      </g>
     </g>
     <g id="text_6">
      <!-- 2 -->
      <g style="fill: #333333" transform="translate(334.391845 287.469812) scale(0.1 -0.1)">
       <use xlink:href="#ArialMT-32"/>
      </g>
     </g>
    </g>
    <g id="xtick_7">
     <g id="line2d_7">
      <g>
       <use xlink:href="#m244a88bde1" x="388.84269" y="273.312" style="fill: #333333; stroke: #333333; stroke-width: 0.8"/>
      </g>
     </g>
     <g id="text_7">
      <!-- 3 -->
      <g style="fill: #333333" transform="translate(386.062221 287.469812) scale(0.1 -0.1)">
       <use xlink:href="#ArialMT-33"/>
      </g>
     </g>
    </g>
    <g id="text_8">
     <!-- $\varphi$ -->
     <g style="fill: #333333" transform="translate(230.201563 301.207156) scale(0.11 -0.11)">
      <defs>
       <path id="DejaVuSans-Oblique-3c6" d="M 2969 3034 
Q 2766 3034 2675 2581 
L 2259 438 
Q 2553 438 2916 763 
Q 3244 1053 3375 1750 
Q 3497 2400 3300 2750 
Q 3138 3034 2969 3034 
z
M 3063 3525 
Q 3513 3525 3819 3113 
Q 4147 2672 3981 1750 
Q 3828 903 3291 400 
Q 2784 -75 2159 -75 
L 1916 -1331 
L 1344 -1331 
L 1588 -78 
Q 963 -78 641 400 
Q 309 888 475 1747 
Q 647 2641 1166 3097 
Q 1556 3438 2084 3525 
L 1984 3016 
Q 1766 2944 1538 2700 
Q 1194 2341 1081 1747 
Q 963 1116 1156 756 
Q 1334 434 1688 434 
L 2103 2581 
Q 2288 3525 3063 3525 
z
" transform="scale(0.015625)"/>
      </defs>
      <use xlink:href="#DejaVuSans-Oblique-3c6" transform="translate(0 0.921875)"/>
     </g>
    </g>
   </g>
   <g id="matplotlib.axis_2">
    <g id="ytick_1">
     <g id="line2d_8">
      <defs>
       <path id="m058d348461" d="M 0 0 
L -3.5 0 
" style="stroke: #333333; stroke-width: 0.8"/>
      </defs>
      <g>
       <use xlink:href="#m058d348461" x="55.271563" y="268.987897" style="fill: #333333; stroke: #333333; stroke-width: 0.8"/>
      </g>
     </g>
     <g id="text_9">
      <!-- −15.0 -->
      <g style="fill: #333333" transform="translate(22.97 272.566803) scale(0.1 -0.1)">
       <defs>
        <path id="ArialMT-35" d="M 266 1200 
L 856 1250 
Q 922 819 1161 601 
Q 1400 384 1738 384 
Q 2144 384 2425 690 
Q 2706 997 2706 1503 
Q 2706 1984 2436 2262 
Q 2166 2541 1728 2541 
Q 1456 2541 1237 2417 
Q 1019 2294 894 2097 
L 366 2166 
L 809 4519 
L 3088 4519 
L 3088 3981 
L 1259 3981 
L 1013 2750 
Q 1425 3038 1878 3038 
Q 2478 3038 2890 2622 
Q 3303 2206 3303 1553 
Q 3303 931 2941 478 
Q 2500 -78 1738 -78 
Q 1113 -78 717 272 
Q 322 622 266 1200 
z
" transform="scale(0.015625)"/>
        <path id="ArialMT-2e" d="M 581 0 
L 581 641 
L 1222 641 
L 1222 0 
L 581 0 
z
" transform="scale(0.015625)"/>
       </defs>
       <use xlink:href="#ArialMT-2212"/>
       <use xlink:href="#ArialMT-31" transform="translate(58.398438 0)"/>
       <use xlink:href="#ArialMT-35" transform="translate(114.013672 0)"/>
       <use xlink:href="#ArialMT-2e" transform="translate(169.628906 0)"/>
       <use xlink:href="#ArialMT-30" transform="translate(197.412109 0)"/>
      </g>
     </g>
    </g>
    <g id="ytick_2">
     <g id="line2d_9">
      <g>
       <use xlink:href="#m058d348461" x="55.271563" y="233.304376" style="fill: #333333; stroke: #333333; stroke-width: 0.8"/>
      </g>
     </g>
     <g id="text_10">
      <!-- −12.5 -->
      <g style="fill: #333333" transform="translate(22.97 236.883282) scale(0.1 -0.1)">
       <use xlink:href="#ArialMT-2212"/>
       <use xlink:href="#ArialMT-31" transform="translate(58.398438 0)"/>
       <use xlink:href="#ArialMT-32" transform="translate(114.013672 0)"/>
       <use xlink:href="#ArialMT-2e" transform="translate(169.628906 0)"/>
       <use xlink:href="#ArialMT-35" transform="translate(197.412109 0)"/>
      </g>
     </g>
    </g>
    <g id="ytick_3">
     <g id="line2d_10">
      <g>
       <use xlink:href="#m058d348461" x="55.271563" y="197.620855" style="fill: #333333; stroke: #333333; stroke-width: 0.8"/>
      </g>
     </g>
     <g id="text_11">
      <!-- −10.0 -->
      <g style="fill: #333333" transform="translate(22.97 201.199761) scale(0.1 -0.1)">
       <use xlink:href="#ArialMT-2212"/>
       <use xlink:href="#ArialMT-31" transform="translate(58.398438 0)"/>
       <use xlink:href="#ArialMT-30" transform="translate(114.013672 0)"/>
       <use xlink:href="#ArialMT-2e" transform="translate(169.628906 0)"/>
       <use xlink:href="#ArialMT-30" transform="translate(197.412109 0)"/>
      </g>
     </g>
    </g>
    <g id="ytick_4">
     <g id="line2d_11">
      <g>
       <use xlink:href="#m058d348461" x="55.271563" y="161.937334" style="fill: #333333; stroke: #333333; stroke-width: 0.8"/>
      </g>
     </g>
     <g id="text_12">
      <!-- −7.5 -->
      <g style="fill: #333333" transform="translate(28.530938 165.516241) scale(0.1 -0.1)">
       <defs>
        <path id="ArialMT-37" d="M 303 3981 
L 303 4522 
L 3269 4522 
L 3269 4084 
Q 2831 3619 2401 2847 
Q 1972 2075 1738 1259 
Q 1569 684 1522 0 
L 944 0 
Q 953 541 1156 1306 
Q 1359 2072 1739 2783 
Q 2119 3494 2547 3981 
L 303 3981 
z
" transform="scale(0.015625)"/>
       </defs>
       <use xlink:href="#ArialMT-2212"/>
       <use xlink:href="#ArialMT-37" transform="translate(58.398438 0)"/>
       <use xlink:href="#ArialMT-2e" transform="translate(114.013672 0)"/>
       <use xlink:href="#ArialMT-35" transform="translate(141.796875 0)"/>
      </g>
     </g>
    </g>
    <g id="ytick_5">
     <g id="line2d_12">
      <g>
       <use xlink:href="#m058d348461" x="55.271563" y="126.253813" style="fill: #333333; stroke: #333333; stroke-width: 0.8"/>
      </g>
     </g>
     <g id="text_13">
      <!-- −5.0 -->
      <g style="fill: #333333" transform="translate(28.530938 129.83272) scale(0.1 -0.1)">
       <use xlink:href="#ArialMT-2212"/>
       <use xlink:href="#ArialMT-35" transform="translate(58.398438 0)"/>
       <use xlink:href="#ArialMT-2e" transform="translate(114.013672 0)"/>
       <use xlink:href="#ArialMT-30" transform="translate(141.796875 0)"/>
      </g>
     </g>
    </g>
    <g id="ytick_6">
     <g id="line2d_13">
      <g>
       <use xlink:href="#m058d348461" x="55.271563" y="90.570293" style="fill: #333333; stroke: #333333; stroke-width: 0.8"/>
      </g>
     </g>
     <g id="text_14">
      <!-- −2.5 -->
      <g style="fill: #333333" transform="translate(28.530938 94.149199) scale(0.1 -0.1)">
       <use xlink:href="#ArialMT-2212"/>
       <use xlink:href="#ArialMT-32" transform="translate(58.398438 0)"/>
       <use xlink:href="#ArialMT-2e" transform="translate(114.013672 0)"/>
       <use xlink:href="#ArialMT-35" transform="translate(141.796875 0)"/>
      </g>
     </g>
    </g>
    <g id="ytick_7">
     <g id="line2d_14">
      <g>
       <use xlink:href="#m058d348461" x="55.271563" y="54.886772" style="fill: #333333; stroke: #333333; stroke-width: 0.8"/>
      </g>
     </g>
     <g id="text_15">
      <!-- 0.0 -->
      <g style="fill: #333333" transform="translate(34.371563 58.465678) scale(0.1 -0.1)">
       <use xlink:href="#ArialMT-30"/>
       <use xlink:href="#ArialMT-2e" transform="translate(55.615234 0)"/>
       <use xlink:href="#ArialMT-30" transform="translate(83.398438 0)"/>
      </g>
     </g>
    </g>
    <g id="ytick_8">
     <g id="line2d_15">
      <g>
       <use xlink:href="#m058d348461" x="55.271563" y="19.203251" style="fill: #333333; stroke: #333333; stroke-width: 0.8"/>
      </g>
     </g>
     <g id="text_16">
      <!-- 2.5 -->
      <g style="fill: #333333" transform="translate(34.371563 22.782157) scale(0.1 -0.1)">
       <use xlink:href="#ArialMT-32"/>
       <use xlink:href="#ArialMT-2e" transform="translate(55.615234 0)"/>
       <use xlink:href="#ArialMT-35" transform="translate(83.398438 0)"/>
      </g>
     </g>
    </g>
    <g id="text_17">
     <!-- Re $\psi_j(\varphi)$,  energy [GHz] -->
     <g style="fill: #333333" transform="translate(15.56 198.611) rotate(-90) scale(0.11 -0.11)">
      <defs>
       <path id="ArialMT-52" d="M 503 0 
L 503 4581 
L 2534 4581 
Q 3147 4581 3465 4457 
Q 3784 4334 3975 4021 
Q 4166 3709 4166 3331 
Q 4166 2844 3850 2509 
Q 3534 2175 2875 2084 
Q 3116 1969 3241 1856 
Q 3506 1613 3744 1247 
L 4541 0 
L 3778 0 
L 3172 953 
Q 2906 1366 2734 1584 
Q 2563 1803 2427 1890 
Q 2291 1978 2150 2013 
Q 2047 2034 1813 2034 
L 1109 2034 
L 1109 0 
L 503 0 
z
M 1109 2559 
L 2413 2559 
Q 2828 2559 3062 2645 
Q 3297 2731 3419 2920 
Q 3541 3109 3541 3331 
Q 3541 3656 3305 3865 
Q 3069 4075 2559 4075 
L 1109 4075 
L 1109 2559 
z
" transform="scale(0.015625)"/>
       <path id="ArialMT-65" d="M 2694 1069 
L 3275 997 
Q 3138 488 2766 206 
Q 2394 -75 1816 -75 
Q 1088 -75 661 373 
Q 234 822 234 1631 
Q 234 2469 665 2931 
Q 1097 3394 1784 3394 
Q 2450 3394 2872 2941 
Q 3294 2488 3294 1666 
Q 3294 1616 3291 1516 
L 816 1516 
Q 847 969 1125 678 
Q 1403 388 1819 388 
Q 2128 388 2347 550 
Q 2566 713 2694 1069 
z
M 847 1978 
L 2700 1978 
Q 2663 2397 2488 2606 
Q 2219 2931 1791 2931 
Q 1403 2931 1139 2672 
Q 875 2413 847 1978 
z
" transform="scale(0.015625)"/>
       <path id="ArialMT-20" transform="scale(0.015625)"/>
       <path id="DejaVuSans-Oblique-3c8" d="M 1591 -78 
Q 891 38 616 341 
Q 278 713 425 1472 
L 819 3500 
L 1400 3500 
L 1009 1494 
Q 900 922 1119 684 
Q 1313 478 1691 434 
L 2284 3500 
L 2856 3500 
L 2263 438 
Q 2681 481 2928 688 
Q 3247 950 3353 1497 
L 3741 3500 
L 4322 3500 
L 3928 1475 
Q 3775 688 3300 344 
Q 2872 34 2163 -75 
L 1919 -1331 
L 1347 -1331 
L 1591 -78 
z
" transform="scale(0.015625)"/>
       <path id="DejaVuSans-Oblique-6a" d="M 928 3500 
L 1503 3500 
L 813 -63 
L 809 -78 
Q 694 -675 544 -897 
Q 403 -1106 132 -1218 
Q -138 -1331 -506 -1331 
L -722 -1331 
L -628 -844 
L -481 -844 
Q -144 -844 -1 -703 
Q 141 -563 238 -63 
L 928 3500 
z
M 1197 4863 
L 1772 4863 
L 1631 4134 
L 1056 4134 
L 1197 4863 
z
" transform="scale(0.015625)"/>
       <path id="DejaVuSans-28" d="M 1984 4856 
Q 1566 4138 1362 3434 
Q 1159 2731 1159 2009 
Q 1159 1288 1364 580 
Q 1569 -128 1984 -844 
L 1484 -844 
Q 1016 -109 783 600 
Q 550 1309 550 2009 
Q 550 2706 781 3412 
Q 1013 4119 1484 4856 
L 1984 4856 
z
" transform="scale(0.015625)"/>
       <path id="DejaVuSans-29" d="M 513 4856 
L 1013 4856 
Q 1481 4119 1714 3412 
Q 1947 2706 1947 2009 
Q 1947 1309 1714 600 
Q 1481 -109 1013 -844 
L 513 -844 
Q 928 -128 1133 580 
Q 1338 1288 1338 2009 
Q 1338 2731 1133 3434 
Q 928 4138 513 4856 
z
" transform="scale(0.015625)"/>
       <path id="ArialMT-2c" d="M 569 0 
L 569 641 
L 1209 641 
L 1209 0 
Q 1209 -353 1084 -570 
Q 959 -788 688 -906 
L 531 -666 
Q 709 -588 793 -436 
Q 878 -284 888 0 
L 569 0 
z
" transform="scale(0.015625)"/>
       <path id="ArialMT-6e" d="M 422 0 
L 422 3319 
L 928 3319 
L 928 2847 
Q 1294 3394 1984 3394 
Q 2284 3394 2536 3286 
Q 2788 3178 2913 3003 
Q 3038 2828 3088 2588 
Q 3119 2431 3119 2041 
L 3119 0 
L 2556 0 
L 2556 2019 
Q 2556 2363 2490 2533 
Q 2425 2703 2258 2804 
Q 2091 2906 1866 2906 
Q 1506 2906 1245 2678 
Q 984 2450 984 1813 
L 984 0 
L 422 0 
z
" transform="scale(0.015625)"/>
       <path id="ArialMT-72" d="M 416 0 
L 416 3319 
L 922 3319 
L 922 2816 
Q 1116 3169 1280 3281 
Q 1444 3394 1641 3394 
Q 1925 3394 2219 3213 
L 2025 2691 
Q 1819 2813 1613 2813 
Q 1428 2813 1281 2702 
Q 1134 2591 1072 2394 
Q 978 2094 978 1738 
L 978 0 
L 416 0 
z
" transform="scale(0.015625)"/>
       <path id="ArialMT-67" d="M 319 -275 
L 866 -356 
Q 900 -609 1056 -725 
Q 1266 -881 1628 -881 
Q 2019 -881 2231 -725 
Q 2444 -569 2519 -288 
Q 2563 -116 2559 434 
Q 2191 0 1641 0 
Q 956 0 581 494 
Q 206 988 206 1678 
Q 206 2153 378 2554 
Q 550 2956 876 3175 
Q 1203 3394 1644 3394 
Q 2231 3394 2613 2919 
L 2613 3319 
L 3131 3319 
L 3131 450 
Q 3131 -325 2973 -648 
Q 2816 -972 2473 -1159 
Q 2131 -1347 1631 -1347 
Q 1038 -1347 672 -1080 
Q 306 -813 319 -275 
z
M 784 1719 
Q 784 1066 1043 766 
Q 1303 466 1694 466 
Q 2081 466 2343 764 
Q 2606 1063 2606 1700 
Q 2606 2309 2336 2618 
Q 2066 2928 1684 2928 
Q 1309 2928 1046 2623 
Q 784 2319 784 1719 
z
" transform="scale(0.015625)"/>
       <path id="ArialMT-79" d="M 397 -1278 
L 334 -750 
Q 519 -800 656 -800 
Q 844 -800 956 -737 
Q 1069 -675 1141 -563 
Q 1194 -478 1313 -144 
Q 1328 -97 1363 -6 
L 103 3319 
L 709 3319 
L 1400 1397 
Q 1534 1031 1641 628 
Q 1738 1016 1872 1384 
L 2581 3319 
L 3144 3319 
L 1881 -56 
Q 1678 -603 1566 -809 
Q 1416 -1088 1222 -1217 
Q 1028 -1347 759 -1347 
Q 597 -1347 397 -1278 
z
" transform="scale(0.015625)"/>
       <path id="ArialMT-5b" d="M 434 -1272 
L 434 4581 
L 1675 4581 
L 1675 4116 
L 997 4116 
L 997 -806 
L 1675 -806 
L 1675 -1272 
L 434 -1272 
z
" transform="scale(0.015625)"/>
       <path id="ArialMT-47" d="M 2638 1797 
L 2638 2334 
L 4578 2338 
L 4578 638 
Q 4131 281 3656 101 
Q 3181 -78 2681 -78 
Q 2006 -78 1454 211 
Q 903 500 622 1047 
Q 341 1594 341 2269 
Q 341 2938 620 3517 
Q 900 4097 1425 4378 
Q 1950 4659 2634 4659 
Q 3131 4659 3532 4498 
Q 3934 4338 4162 4050 
Q 4391 3763 4509 3300 
L 3963 3150 
Q 3859 3500 3706 3700 
Q 3553 3900 3268 4020 
Q 2984 4141 2638 4141 
Q 2222 4141 1919 4014 
Q 1616 3888 1430 3681 
Q 1244 3475 1141 3228 
Q 966 2803 966 2306 
Q 966 1694 1177 1281 
Q 1388 869 1791 669 
Q 2194 469 2647 469 
Q 3041 469 3416 620 
Q 3791 772 3984 944 
L 3984 1797 
L 2638 1797 
z
" transform="scale(0.015625)"/>
       <path id="ArialMT-48" d="M 513 0 
L 513 4581 
L 1119 4581 
L 1119 2700 
L 3500 2700 
L 3500 4581 
L 4106 4581 
L 4106 0 
L 3500 0 
L 3500 2159 
L 1119 2159 
L 1119 0 
L 513 0 
z
" transform="scale(0.015625)"/>
       <path id="ArialMT-7a" d="M 125 0 
L 125 456 
L 2238 2881 
Q 1878 2863 1603 2863 
L 250 2863 
L 250 3319 
L 2963 3319 
L 2963 2947 
L 1166 841 
L 819 456 
Q 1197 484 1528 484 
L 3063 484 
L 3063 0 
L 125 0 
z
" transform="scale(0.015625)"/>
       <path id="ArialMT-5d" d="M 1363 -1272 
L 122 -1272 
L 122 -806 
L 800 -806 
L 800 4116 
L 122 4116 
L 122 4581 
L 1363 4581 
L 1363 -1272 
z
" transform="scale(0.015625)"/>
      </defs>
      <use xlink:href="#ArialMT-52" transform="translate(0 0.125)"/>
      <use xlink:href="#ArialMT-65" transform="translate(72.216797 0.125)"/>
      <use xlink:href="#ArialMT-20" transform="translate(127.832031 0.125)"/>
      <use xlink:href="#DejaVuSans-Oblique-3c8" transform="translate(155.615234 0.125)"/>
      <use xlink:href="#DejaVuSans-Oblique-6a" transform="translate(221.582031 -16.28125) scale(0.7)"/>
      <use xlink:href="#DejaVuSans-28" transform="translate(243.764648 0.125)"/>
      <use xlink:href="#DejaVuSans-Oblique-3c6" transform="translate(282.77832 0.125)"/>
      <use xlink:href="#DejaVuSans-29" transform="translate(348.745117 0.125)"/>
      <use xlink:href="#ArialMT-2c" transform="translate(387.758789 0.125)"/>
      <use xlink:href="#ArialMT-20" transform="translate(415.541992 0.125)"/>
      <use xlink:href="#ArialMT-20" transform="translate(443.325195 0.125)"/>
      <use xlink:href="#ArialMT-65" transform="translate(471.108398 0.125)"/>
      <use xlink:href="#ArialMT-6e" transform="translate(526.723633 0.125)"/>
      <use xlink:href="#ArialMT-65" transform="translate(582.338867 0.125)"/>
      <use xlink:href="#ArialMT-72" transform="translate(637.954102 0.125)"/>
      <use xlink:href="#ArialMT-67" transform="translate(671.254883 0.125)"/>
      <use xlink:href="#ArialMT-79" transform="translate(726.870117 0.125)"/>
      <use xlink:href="#ArialMT-20" transform="translate(776.870117 0.125)"/>
      <use xlink:href="#ArialMT-5b" transform="translate(804.65332 0.125)"/>
      <use xlink:href="#ArialMT-47" transform="translate(832.436523 0.125)"/>
      <use xlink:href="#ArialMT-48" transform="translate(910.219727 0.125)"/>
      <use xlink:href="#ArialMT-7a" transform="translate(982.436523 0.125)"/>
      <use xlink:href="#ArialMT-5d" transform="translate(1032.436523 0.125)"/>
     </g>
    </g>
   </g>
   <g id="line2d_16">
    <path d="M 71.50429 214.390979 
L 119.12029 214.288439 
L 134.270835 214.048589 
L 145.092653 213.641477 
L 153.750108 213.056028 
L 160.243199 212.395657 
L 166.73629 211.491563 
L 173.229381 210.300834 
L 179.722472 208.797128 
L 186.215563 206.983264 
L 192.708653 204.903144 
L 214.35229 197.578193 
L 218.681017 196.428132 
L 223.009744 195.512255 
L 227.338472 194.874889 
L 231.667199 194.547881 
L 235.995926 194.547881 
L 240.324653 194.874889 
L 244.653381 195.512255 
L 248.982108 196.428132 
L 253.310835 197.578193 
L 259.803926 199.62472 
L 281.447563 206.983264 
L 287.940653 208.797128 
L 294.433744 210.300834 
L 300.926835 211.491563 
L 307.419926 212.395657 
L 313.913017 213.056028 
L 320.406108 213.521416 
L 329.063562 213.91884 
L 339.885381 214.183567 
L 357.20029 214.342563 
L 396.158835 214.390979 
L 396.158835 214.390979 
" clip-path="url(#p12f0dc68cf)" style="fill: none; stroke: #016e82; stroke-width: 1.5; stroke-linecap: square"/>
   </g>
   <g id="line2d_17">
    <path d="M 71.50429 136.875559 
L 103.969744 136.690862 
L 116.955926 136.394197 
L 125.613381 135.998733 
L 132.106472 135.532891 
L 138.599562 134.866335 
L 145.092653 133.944862 
L 151.585744 132.719841 
L 158.078835 131.162499 
L 164.571926 129.282833 
L 171.065017 127.150347 
L 184.051199 122.795015 
L 188.379926 121.598648 
L 192.708653 120.689396 
L 197.037381 120.16726 
L 199.201744 120.08048 
L 201.366108 120.123487 
L 203.530472 120.30473 
L 205.694835 120.630915 
L 207.859199 121.106736 
L 210.023562 121.734644 
L 212.187926 122.514665 
L 214.35229 123.444262 
L 216.516653 124.518263 
L 220.845381 127.065644 
L 225.174108 130.064159 
L 229.502835 133.385625 
L 242.489017 143.68696 
L 246.817744 146.685475 
L 251.146472 149.232856 
L 253.310835 150.306857 
L 255.475199 151.236454 
L 257.639563 152.016475 
L 259.803926 152.644383 
L 261.96829 153.120204 
L 264.132653 153.446389 
L 266.297017 153.627632 
L 268.461381 153.670639 
L 270.625744 153.583859 
L 274.954472 153.061723 
L 279.283199 152.152471 
L 283.611926 150.956104 
L 290.105017 148.839826 
L 303.091199 144.468286 
L 309.58429 142.58862 
L 316.077381 141.031278 
L 322.570472 139.806257 
L 329.063562 138.884783 
L 335.556653 138.218228 
L 342.049744 137.752386 
L 350.707199 137.356922 
L 361.529017 137.093232 
L 378.843926 136.929614 
L 396.158835 136.875559 
L 396.158835 136.875559 
" clip-path="url(#p12f0dc68cf)" style="fill: none; stroke: #333795; stroke-width: 1.5; stroke-linecap: square"/>
   </g>
   <g id="line2d_18">
    <path d="M 71.50429 64.047998 
L 86.654835 63.946469 
L 97.476653 63.703023 
L 106.134108 63.33162 
L 114.791562 62.711703 
L 121.284653 62.01685 
L 127.777744 61.067804 
L 134.270835 59.819687 
L 140.763926 58.249717 
L 147.257017 56.378161 
L 155.914472 53.576559 
L 162.407562 51.493038 
L 166.73629 50.27131 
L 171.065017 49.30759 
L 175.393744 48.717492 
L 177.558108 48.598339 
L 179.722472 48.614185 
L 181.886835 48.776751 
L 184.051199 49.09596 
L 186.215563 49.579494 
L 188.379926 50.232362 
L 190.54429 51.056511 
L 192.708653 52.050481 
L 194.873017 53.209129 
L 197.037381 54.523446 
L 201.366108 57.563281 
L 205.694835 61.020032 
L 216.516653 70.043591 
L 218.681017 71.656411 
L 220.845381 73.12891 
L 223.009744 74.431238 
L 225.174108 75.53651 
L 227.338472 76.421567 
L 229.502835 77.067649 
L 231.667199 77.46094 
L 233.831562 77.592987 
L 235.995926 77.46094 
L 238.16029 77.067649 
L 240.324653 76.421567 
L 242.489017 75.53651 
L 244.653381 74.431238 
L 246.817744 73.12891 
L 248.982108 71.656411 
L 253.310835 68.322429 
L 266.297017 57.563281 
L 270.625744 54.523446 
L 272.790108 53.209129 
L 274.954472 52.050481 
L 277.118835 51.056511 
L 279.283199 50.232362 
L 281.447563 49.579494 
L 283.611926 49.09596 
L 285.77629 48.776751 
L 287.940653 48.614185 
L 290.105017 48.598339 
L 292.269381 48.717492 
L 296.598108 49.30759 
L 300.926835 50.27131 
L 305.255562 51.493038 
L 313.913017 54.292147 
L 322.570472 57.031779 
L 329.063562 58.808696 
L 335.556653 60.271026 
L 342.049744 61.415448 
L 348.542835 62.274187 
L 355.035926 62.895768 
L 363.693381 63.443897 
L 372.350835 63.767804 
L 385.337017 63.998166 
L 396.158835 64.047998 
L 396.158835 64.047998 
" clip-path="url(#p12f0dc68cf)" style="fill: none; stroke: #2e5eac; stroke-width: 1.5; stroke-linecap: square"/>
   </g>
   <g id="line2d_19">
    <path d="M 137.987957 -1 
L 142.92829 17.519709 
L 153.750108 59.063051 
L 164.571926 100.423869 
L 171.065017 124.398043 
L 175.393744 139.794498 
L 179.722472 154.595386 
L 184.051199 168.69689 
L 188.379926 182.000097 
L 192.708653 194.411696 
L 197.037381 205.844628 
L 201.366108 216.218698 
L 203.530472 220.985617 
L 205.694835 225.461142 
L 207.859199 229.637421 
L 210.023562 233.507128 
L 212.187926 237.063475 
L 214.35229 240.300221 
L 216.516653 243.21169 
L 218.681017 245.792772 
L 220.845381 248.038941 
L 223.009744 249.946255 
L 225.174108 251.511369 
L 227.338472 252.731536 
L 229.502835 253.604616 
L 231.667199 254.129077 
L 233.831562 254.304 
L 235.995926 254.129077 
L 238.16029 253.604616 
L 240.324653 252.731536 
L 242.489017 251.511369 
L 244.653381 249.946255 
L 246.817744 248.038941 
L 248.982108 245.792772 
L 251.146472 243.21169 
L 253.310835 240.300221 
L 255.475199 237.063475 
L 257.639563 233.507128 
L 259.803926 229.637421 
L 261.96829 225.461142 
L 264.132653 220.985617 
L 266.297017 216.218698 
L 270.625744 205.844628 
L 274.954472 194.411696 
L 279.283199 182.000097 
L 283.611926 168.69689 
L 287.940653 154.595386 
L 292.269381 139.794498 
L 298.762472 116.510084 
L 305.255562 92.253834 
L 316.077381 50.710492 
L 326.899199 9.349674 
L 329.675168 -1 
L 329.675168 -1 
" clip-path="url(#p12f0dc68cf)" style="fill: none; stroke: #808080; stroke-width: 1.5; stroke-linecap: square"/>
   </g>
   <g id="patch_3">
    <path d="M 55.271563 273.312 
L 55.271563 7.2 
" style="fill: none; stroke: #333333; stroke-width: 0.8; stroke-linejoin: miter; stroke-linecap: square"/>
   </g>
   <g id="patch_4">
    <path d="M 55.271563 273.312 
L 412.391563 273.312 
" style="fill: none; stroke: #333333; stroke-width: 0.8; stroke-linejoin: miter; stroke-linecap: square"/>
   </g>
  </g>
 </g>
 <defs>
  <clipPath id="p12f0dc68cf">
   <rect x="55.271563" y="7.2" width="357.12" height="266.112"/>
  </clipPath>
 </defs>
</svg>
